<?xml version="1.0" encoding="utf-8"?>
<!-- Generator: Adobe Illustrator 19.2.1, SVG Export Plug-In . SVG Version: 6.00 Build 0)  -->
<svg version="1.1" id="Layer_1" xmlns="http://www.w3.org/2000/svg" xmlns:xlink="http://www.w3.org/1999/xlink" x="0px" y="0px"
	 viewBox="0 0 430 270" style="enable-background:new 0 0 430 270;" xml:space="preserve">
<style type="text/css">
	.st0{opacity:0.79;fill:#F3E5E3;}
	.st1{fill:#F37D7F;}
	.st2{opacity:0.49;fill:#F7C5C1;}
	.st3{fill:#9B1C1F;}
	.st4{fill:#FFFFFF;}
	.st5{fill:#F7C5C1;}
	.st6{fill:#ED2426;stroke:#ED2426;stroke-miterlimit:10;}
	.st7{fill:#FFFFFF;stroke:#FFFFFF;stroke-miterlimit:10;}
	.st8{fill:#82321A;}
	.st9{fill:#65C7C4;}
	.st10{opacity:0.51;fill:#ADDBCF;}
</style>
<g>
	<path class="st0" d="M59.6,18.6c0,0,94.3,25.4,169.5,20.1v-2.9l4.1,1v5.8h13.4l5.2,2.5h13.4l-5.7,3.1c0,0-6.7,6.6-8.2,7.6
		s-2.1,3-2.1,3h4.6l1.5-3h2.6l0.5,3h3.6l3.1-3l8.8-7.6h5.7l-5.2,7.6h5.2c0,0,7.2,3.6,14.9-3.8v3.8h4.1l5.2,3h-5.2l0.5,4.3h4.6
		l4.8,2.2c0,0,2.5,6.6,1.4,8c-1.1,1.4-3.5,4.4-3.5,4.4l1.5,2.5l3.5-4.5l3.1-0.6l2.9,7v2.7c0,0-5.6,8.4-4.9,9.6s3.9,1.3,3.9,1.3h9.1
		l2.1-2.5c0,0,15.9-9.5,15.3-12.6l-1.9-2.8l1-1.5l13-1.5l3.4-3.7l0.6-7.8l5.8-6.5l4.5-2l16-3.8l0.5-2l1.9-1.4l2.6-3.9v-5.6
		c0,0,2.3-10,2-10.9c-0.3-0.8,4.3,0,4.3,0l3.5-1.4l3.1,1.1l2.3,2.8l1,5.4l5.3,5.7l2.5,0.7l1.4,2.7l-5.4,5.1l-3.4-0.2l-2.6,2v3.4
		l-4.4,2.8l-3,7.3l-0.4,3l1.4,1.8l-0.1,2.7l3.1,2.7l2.6,0.7l-0.4,2.1H398l-1.4,2.4l-2.8,1.1l-1.1,1.7c0,0-9.9,2.1-9,4.8l2.1,0.4
		l2.3-2.1l4.3-0.5l-5.4,4.7l-4,0.5l-2.9,1.7l1.6,2l-0.8,7.9l-2.9,5.1l-1.6-2.1h-1.8l-3.3-1.9l1.8,7.9l4.9-0.8l-0.5,4.7h-4l-3.1-1.7
		l-0.5-4.7l-1.1-2l1.1-1.2l-0.8-2l-4,3.5l1.5,2.1l1.4,5.1l-5.9,1.3h6l2.8,3l2,7.8h2.8l0.1,2.1l0.9,1.9l-2.8,3.9h4.8l0.4,1.5
		l-1.5,2.7h-4.5v5.1c0,0-1.3,2.5-2.5,2.8c-1.3,0.4-4.1,6.9-4.1,6.9s-6.3,2.5-6.3,3.5s-2,5.3-2,5.3s-4.8,6-6.5,6.1
		c-1.8,0.1-4.1,0.8-4.1,0.8l-0.5,3.3l0.5,2.4l-1.9,1.8c0,0-0.1,7.6-0.9,8.5l7.3,12.8l2.8,3.1l0.1,3.2l8.6,10.4
		c0,0,2.9,14.4-0.4,16.3c-3.3,2-3.3,2-3.3,2l-3.8-5.3l-4.1-0.5l-4.5-6.9l-4-1.6l-1.8-3.9l0.9-3.7L340,210l-0.6-5.7l-1.3-3.1
		l-3.4-0.5l-6.3-6.4l-5.1-0.2l-3.4,3.1l-2.8,0.2l-5.1-2.8c0,0-5.7-3.4-10.9-1l-3.3-1.5l-1.7,3.1l-2.7-2.3l-1,1.8l-6.8,0.5l-4.6,1.3
		l-2.7,3.3l4.4-0.5l0.7,1l-2.4,1l0.1,1.4l4.5,2.4l0.6,1.5l-3.8,0.5l-4.5-3.7l-0.5,4.4l-2.6-1.7l-2.6,1.7l-2.4-0.2l-5.2-4.5h-4
		l-1,1.6l-4.4,0.1l-5.3-2.8l-9,4.1l-2.3-1l-1,0.3l-0.8,3.1l-7.8,5.3l-5-0.7l0.2,2.8c0,0-3.5,1.4-4.5,1.8c-1,0.5-0.2,1.6-0.2,1.6
		l-2.9,2.4l0.6,2.6l-1.9,1.4l0.4,4.7l1.1,3.2l0.7,4.2h-3.3l-7.4-2.8l-5.2-5.2l-1-4.7l-7.9-9.5l-1.9-6.7l-4.4-3.7l-8.4-2.6
		c0,0-4.1,0.7-7.3,7.2l-6.6-3.3l-4.3-4.1v-4.9l-2.6-4.2l-4.5-1.3l-6.9-8.5l-13.7-0.9l-0.1,3.1l-22.5-1.3l-28.1-14.7l0.2-3.1
		L63,165.5l-0.4-4.6l-4-6.7h-4.1v-2.2l-4-1.5l-0.7-3.2l-8.5-2.1l-1.5-2.1l1.7-2.4l-1.7-2.5l1-2.2l-2.7-2.9v-4.4l-3.3-2.5v-0.9
		l2.2-2.5l-2.8-2.4l-1.5-4l1-1.6l4.3,2.3l-2.6-6l-2.7,1.1l-1.3-1.4l0.9-2.1l-3.5-4.6V93.9l-1.8-3v-2.3l3-2.2l1.9-3.8l1-15.3l4.5-4.1
		l8.3-19.8l-0.4-3.1l1.9-2.9L45.9,35l0.7-13.1l6.3,4.1l2.8-0.3l3.9,4.7L59.1,25l1.3-0.8L59.6,18.6z"/>
	<path class="st0" d="M134.5,215.5l14.1,2.4l5.3,23l2.6,1l5.1-0.9l10.1,7.8c0,0,1.2,3.2-3.9,1.7l-13.6-8.1l-4.8,0.1
		c0,0-3.1-3.8-5.6,2.4c0,0-1.1,1.6-4.9,2.1c0,0-4.3,4-7.2,7.4c0,0-6.8,5.1-9.3,4.4c0,0-2.1-2.6,8.7-6.8l1.8-1.7l0.2-3.1l-0.8-0.6
		l-2,1.2h-2.7l-0.9-1.3l-0.4-1.7l-2.3-0.5l-1.9-3.8c0,0,0.9-3,1.7-3.3c0.8-0.3,1.6,0,1.6,0l2.9-1.6l0.9-1.6l-0.4-0.9l-5.1-0.6
		c0,0-1.9-2.1-0.5-4.3l1.3-0.4l1.8,1.1h1.6l0.9-1.9l-2.7-1.8l-0.3-3.4l-0.4-1L134.5,215.5z"/>
</g>
<g>
	<path class="st1" d="M109.3,131.3l9.5-42.5c0,0,1.9-6.2,9.2-6.4c7.3-0.2,21.4,0,21.4,0s7,1.6,8.3,7.3c1.4,5.8,8.7,41.5,8.7,41.5
		s-0.6,8.5-7.5,3.2l-5.8-32.2h-1.2l10,54.4h-11v35.6c0,0-4.7,11.3-11.4,0.6v-36.3h-1.6v36.4c0,0-6.2,11-12.2,0.4v-36.6h-11.3
		l10.5-54.4h-1.2l-6.4,30.8C117.3,133.1,110.9,142.1,109.3,131.3z"/>
	<polygon class="st2" points="126.8,102.3 116.3,156.6 114.1,156.6 124.9,102.3 	"/>
	<path class="st2" d="M132.2,197.8c-2,0.5-4.5-0.3-6.9-4.5v-36.7h2.2v36.7C129.2,196.1,130.8,197.4,132.2,197.8z"/>
	<path class="st2" d="M137.9,82.4c-2.9,0-5.7,0-7.9,0.1c-7.3,0.2-9.2,6.3-9.2,6.3l-9.5,42.5c0.5,3,1.3,4.5,2.2,5.1
		c-1.8,0.8-3.7,0.2-4.5-5.1l9.5-42.5c0,0,1.9-6.2,9.2-6.3C130.5,82.4,134.3,82.4,137.9,82.4z"/>
	<g>
		<path class="st3" d="M134.9,44.7c0,0-17.1-5-16.5,28.6c0,0,0,1.5-2.9,1.8c0,0,9.9,9.2,16,4.6v-2.7l-7.3-14l12.5-10.4l10.7,7.3
			c0,0,0.9,11-6.7,16.5l0.9,3.4c0,0,12.5,1.8,15.6-4.9l-3.1-0.9C154.2,73.8,158.4,41.4,134.9,44.7z"/>
		<path class="st4" d="M136.8,52.5l-12.5,10.4l7.3,14c0,0,6,2.5,9.2-0.6c3.1-3.1,5.8-5,6.7-16.5L136.8,52.5z"/>
	</g>
	<path class="st5" d="M118.3,36.9c0,0,8.4,12.8,8.8,13.3c0.4,0.5,8.6-6.5,18.5,0l9.7-13.2C155.3,37.1,139.7,25.8,118.3,36.9z"/>
	<g>
		<circle class="st6" cx="137.2" cy="39.8" r="5"/>
		<g>
			<rect x="133.4" y="39" class="st7" width="7.5" height="0.9"/>
			<rect x="136.6" y="36.3" class="st7" width="1.1" height="7"/>
		</g>
	</g>
</g>
<g>
	<g>
		<path class="st4" d="M269.9,81l1.4,16.1l6.3,7.2c0,0,4.7,3.7,9.4,0l4.8-5.5l2-18c0,0-0.2-6-9.3-6.5
			C275.5,73.6,270.4,74.9,269.9,81z"/>
		<path class="st8" d="M268.2,78.4l1.4-1.9h0.9l-1.2-2.3l0.3-3.5l2.6-2.6l-0.8,2.8l2.2-3.5l2.4-1.9l2,1.3l1.5-1.7l4.1-0.4l1.8,1.3
			l2.2,3.3l-0.3-1.8l6.9,6.7c0,0-0.1,5.8-0.4,7.3c0,0-1.4-4-4.7-2.7c0,0-6.7,1.7-7.9,1.5c-1.2-0.2-8.8-1.7-8.8-1.7s-1.8,0.3-2.5,3.2
			c0,0-0.6-1.9-0.3-3.6l-0.9,1.2L268.2,78.4z"/>
	</g>
	<path class="st9" d="M258.8,167.1v-49.3c0,0,1.1-8.9,8.8-8.9s28.4,0,28.4,0s8.6,1.6,9.3,8.6c0.7,7,0,49.6,0,49.6s-3.4,5.8-8.2,0
		v-40.5h-1.2v100.6c0,0-6.1,11.5-12.6,0.8v-52.8h-1.6v52.5c0,0-6.6,11.5-12.8,0.1V126.6h-1.4l0,40.2
		C267.4,166.8,263.5,175.5,258.8,167.1z"/>
	<path class="st10" d="M295.8,227.2c0,0-4.7,8.8-10.2,3.8c4.2,0.8,7.4-5.3,7.4-5.3l0.8-98.9l1.9-0.2L295.8,227.2z"/>
	<path class="st10" d="M305.2,167.1c0,0-2.9,5-7.2,1.1c2.7,0.4,4.5-2.5,4.5-2.5s0.7-42.5,0-49.6c-0.3-3-2-5-4-6.3
		c2.6,1.1,6.3,3.3,6.7,7.8C305.9,124.6,305.2,167.1,305.2,167.1z"/>
</g>
</svg>
