<?xml version="1.0" encoding="utf-8"?>
<!-- Generator: Adobe Illustrator 19.2.1, SVG Export Plug-In . SVG Version: 6.00 Build 0)  -->
<svg version="1.1" id="Layer_1" xmlns="http://www.w3.org/2000/svg" xmlns:xlink="http://www.w3.org/1999/xlink" x="0px" y="0px"
	 viewBox="0 0 430 270" style="enable-background:new 0 0 430 270;" xml:space="preserve">
<style type="text/css">
	.st0{opacity:0.79;fill:#F3E5E3;}
	.st1{fill:#F37D7F;}
	.st2{opacity:0.49;fill:#F7C5C1;}
	.st3{fill:#9B1C1F;}
	.st4{fill:#FFFFFF;}
	.st5{fill:#F7C5C1;}
	.st6{fill:#ED2426;stroke:#ED2426;stroke-miterlimit:10;}
	.st7{fill:#FFFFFF;stroke:#FFFFFF;stroke-miterlimit:10;}
	.st8{fill:#82321A;}
	.st9{fill:#65C7C4;}
	.st10{opacity:0.51;fill:#ADDBCF;}
	.st11{fill:#F9DEDA;}
	.st12{fill:none;stroke:#ADDBCF;stroke-miterlimit:10;}
	.st13{fill:none;stroke:#F7C5C1;stroke-width:1.4;stroke-miterlimit:10;}
	.st14{fill:none;stroke:#FFFFFF;stroke-miterlimit:10;}
	.st15{fill:#FFFFFF;stroke:#FFFFFF;stroke-linejoin:round;stroke-miterlimit:10;}
	.st16{fill:#F16369;}
	.st17{font-family:'Helvetica-Light';}
	.st18{font-size:4.6823px;}
	.st19{fill:none;stroke:#FFFFFF;stroke-width:1.5;stroke-miterlimit:10;}
	.st20{opacity:0.77;fill:#F7C5C1;}
	.st21{fill:none;stroke:#FFFFFF;stroke-width:2;stroke-miterlimit:10;}
	.st22{fill:none;stroke:#FFFFFF;stroke-width:1.3;stroke-miterlimit:10;}
	.st23{fill:#ADDBCF;}
	.st24{opacity:0.66;fill:#65C7C4;}
	.st25{fill:#196B78;}
	.st26{font-family:'Helvetica-Bold';}
	.st27{font-size:8.5133px;}
	.st28{font-family:'MyriadPro-Bold';}
	.st29{font-size:6.8106px;}
	.st30{font-size:5.1086px;}
	.st31{fill:#ED2426;}
	.st32{fill:none;stroke:#F16369;stroke-miterlimit:10;}
	.st33{fill:none;stroke:#F16369;stroke-miterlimit:10;stroke-dasharray:1.9479,1.9479;}
	.st34{fill:none;stroke:#F16369;stroke-miterlimit:10;stroke-dasharray:2.0422,2.0422;}
	.st35{fill:none;stroke:#F16369;stroke-miterlimit:10;stroke-dasharray:2.0525,2.0525;}
	.st36{font-size:11.6672px;}
	.st37{font-size:7.4036px;}
	.st38{font-size:17.7785px;}
	.st39{font-family:'MyriadPro-Semibold';}
	.st40{fill:none;stroke:#196B78;stroke-miterlimit:10;}
	.st41{fill:none;stroke:#196B78;stroke-miterlimit:10;stroke-dasharray:2.0083,2.0083;}
	.st42{fill:none;stroke:#196B78;stroke-miterlimit:10;stroke-dasharray:1.9769,1.9769;}
	.st43{font-family:'StoneInformalStd-Semibold';}
	.st44{font-family:'Helvetica';}
	.st45{font-size:7.2225px;}
	.st46{fill:none;stroke:#196B78;stroke-miterlimit:10;stroke-dasharray:1.9539,1.9539;}
</style>
<g>
	<g>
		<path class="st0" d="M62.1,18.6c0,0,94.3,25.4,169.5,20.1v-2.9l4.1,1v5.8h13.4l5.2,2.5h13.4l-5.7,3.1c0,0-6.7,6.6-8.2,7.6
			s-2.1,3-2.1,3h4.6l1.5-3h2.6l0.5,3h3.6l3.1-3l8.8-7.6h5.7l-5.2,7.6h5.2c0,0,7.2,3.6,14.9-3.8v3.8h4.1l5.2,3h-5.2l0.5,4.3h4.6
			l4.8,2.2c0,0,2.5,6.6,1.4,8c-1.1,1.4-3.5,4.4-3.5,4.4l1.5,2.5l3.5-4.5l3.1-0.6l2.9,7v2.7c0,0-5.6,8.4-4.9,9.6
			c0.8,1.2,3.9,1.3,3.9,1.3h9.1l2.1-2.5c0,0,15.9-9.5,15.3-12.6l-1.9-2.8l1-1.5l13-1.5l3.4-3.7l0.6-7.8l5.8-6.5l4.5-2l16-3.8l0.5-2
			l1.9-1.4l2.6-3.9v-5.6c0,0,2.3-10,2-10.9s4.3,0,4.3,0l3.5-1.4l3.1,1.1l2.3,2.8l1,5.4l5.3,5.7l2.5,0.7l1.4,2.7l-5.4,5.1l-3.4-0.2
			l-2.6,2v3.4l-4.4,2.8l-3,7.3l-0.4,3l1.4,1.8l-0.1,2.7l3.1,2.7l2.6,0.7l-0.4,2.1h-5.1l-1.4,2.4l-2.8,1.1l-1.1,1.7
			c0,0-9.9,2.1-9,4.8l2.1,0.4l2.3-2.1l4.3-0.5l-5.4,4.7l-4,0.5l-2.9,1.7l1.6,2l-0.8,7.9l-2.9,5.1l-1.6-2.1h-1.8l-3.3-1.9l1.8,7.9
			l4.9-0.8l-0.5,4.7h-4L373,113l-0.5-4.7l-1.1-2l1.1-1.2l-0.8-2l-4,3.5l1.5,2.1l1.4,5.1l-5.9,1.3h6l2.8,3l2,7.8h2.8l0.1,2.1l0.9,1.9
			l-2.8,3.9h4.8l0.4,1.5l-1.5,2.7h-4.5v5.1c0,0-1.3,2.5-2.5,2.8c-1.3,0.4-4.1,6.9-4.1,6.9s-6.3,2.5-6.3,3.5s-2,5.3-2,5.3
			s-4.8,6-6.5,6.1c-1.8,0.1-4.1,0.8-4.1,0.8l-0.5,3.3l0.5,2.4l-1.9,1.8c0,0-0.1,7.6-0.9,8.5l7.3,12.8l2.8,3.1l0.1,3.2l8.6,10.4
			c0,0,2.9,14.4-0.4,16.3c-3.3,2-3.3,2-3.3,2l-3.8-5.3l-4.1-0.5l-4.5-6.9l-4-1.6l-1.8-3.9l0.9-3.7l-2.6-0.7l-0.6-5.7l-1.3-3.1
			l-3.4-0.5l-6.3-6.4l-5.1-0.2l-3.4,3.1l-2.8,0.2l-5.1-2.8c0,0-5.7-3.4-10.9-1l-3.3-1.5l-1.7,3.1l-2.7-2.3l-1,1.8l-6.8,0.5l-4.6,1.3
			l-2.7,3.3l4.4-0.5l0.7,1l-2.4,1l0.1,1.4l4.5,2.4l0.6,1.5l-3.8,0.5l-4.5-3.7l-0.5,4.4l-2.6-1.7l-2.6,1.7l-2.4-0.2l-5.2-4.5h-4
			l-1,1.6l-4.4,0.1l-5.3-2.8l-9,4.1l-2.3-1l-1,0.3l-0.8,3.1l-7.8,5.3l-5-0.7l0.2,2.8c0,0-3.5,1.4-4.5,1.8c-1,0.5-0.2,1.6-0.2,1.6
			l-2.9,2.4l0.6,2.6l-1.9,1.4l0.4,4.7l1.1,3.2l0.7,4.2h-3.3l-7.4-2.8l-5.2-5.2l-1-4.7l-7.9-9.5l-1.9-6.7l-4.4-3.7l-8.4-2.6
			c0,0-4.1,0.7-7.3,7.2l-6.6-3.3l-4.3-4.1v-4.9l-2.6-4.2l-4.5-1.3l-6.9-8.5l-13.7-0.9l-0.1,3.1l-22.5-1.3L84,169.9l0.2-3.1
			l-18.7-1.3l-0.4-4.6l-4-6.7H57v-2.2l-4-1.5l-0.7-3.2l-8.5-2.1l-1.5-2.1l1.7-2.4l-1.7-2.5l1-2.2l-2.7-2.9v-4.4l-3.3-2.5v-0.9
			l2.2-2.5l-2.8-2.4l-1.5-4l1-1.6l4.3,2.3l-2.6-6l-2.7,1.1l-1.3-1.4l0.9-2.1l-3.5-4.6V93.9l-1.8-3v-2.3l3-2.2l1.9-3.8l1-15.3
			l4.5-4.1l8.3-19.8l-0.4-3.1l1.9-2.9L48.4,35l0.7-13.1l6.3,4.1l2.8-0.3l3.9,4.7L61.6,25l1.3-0.8L62.1,18.6z"/>
		<path class="st0" d="M136.9,215.5l14.1,2.4l5.3,23l2.6,1l5.1-0.9l10.1,7.8c0,0,1.2,3.2-3.9,1.7l-13.6-8.1l-4.8,0.1
			c0,0-3.1-3.8-5.6,2.4c0,0-1.1,1.6-4.9,2.1c0,0-4.3,4-7.2,7.4c0,0-6.8,5.1-9.3,4.4c0,0-2.1-2.6,8.7-6.8l1.8-1.7l0.2-3.1l-0.8-0.6
			l-2,1.2h-2.7l-0.9-1.3l-0.4-1.7l-2.3-0.5l-1.9-3.8c0,0,0.9-3,1.7-3.3c0.8-0.3,1.6,0,1.6,0l2.9-1.6l0.9-1.6l-0.4-0.9l-5.1-0.6
			c0,0-1.9-2.1-0.5-4.3l1.3-0.4l1.8,1.1h1.6l0.9-1.9l-2.7-1.8l-0.3-3.4l-0.4-1L136.9,215.5z"/>
	</g>
	<g>
		<path class="st1" d="M111.8,131.3l9.5-42.5c0,0,1.9-6.2,9.2-6.4c7.3-0.2,21.4,0,21.4,0s7,1.6,8.3,7.3c1.4,5.8,8.7,41.5,8.7,41.5
			s-0.6,8.5-7.5,3.2l-5.8-32.2h-1.2l10,54.4h-11v35.6c0,0-4.7,11.3-11.4,0.6v-36.3h-1.6v36.4c0,0-6.2,11-12.2,0.4v-36.6h-11.3
			l10.5-54.4h-1.2l-6.4,30.8C119.8,133.1,113.4,142.1,111.8,131.3z"/>
		<polygon class="st2" points="129.3,102.3 118.8,156.6 116.6,156.6 127.3,102.3 		"/>
		<path class="st2" d="M134.7,197.8c-2,0.5-4.5-0.3-6.9-4.5v-36.7h2.2v36.7C131.7,196.1,133.2,197.4,134.7,197.8z"/>
		<path class="st2" d="M140.4,82.4c-2.9,0-5.7,0-7.9,0.1c-7.3,0.2-9.2,6.3-9.2,6.3l-9.5,42.5c0.5,3,1.3,4.5,2.2,5.1
			c-1.8,0.8-3.7,0.2-4.5-5.1l9.5-42.5c0,0,1.9-6.2,9.2-6.3C133,82.4,136.8,82.4,140.4,82.4z"/>
		<g>
			<path class="st3" d="M137.4,44.7c0,0-17.1-5-16.5,28.6c0,0,0,1.5-2.9,1.8c0,0,9.9,9.2,16,4.6v-2.7l-7.3-14l12.5-10.4l10.7,7.3
				c0,0,0.9,11-6.7,16.5l0.9,3.4c0,0,12.5,1.8,15.6-4.9l-3.1-0.9C156.7,73.8,160.9,41.4,137.4,44.7z"/>
			<path class="st4" d="M139.3,52.5l-12.5,10.4l7.3,14c0,0,6,2.5,9.2-0.6c3.1-3.1,5.8-5,6.7-16.5L139.3,52.5z"/>
		</g>
		<path class="st5" d="M120.8,36.9c0,0,8.4,12.8,8.8,13.3c0.4,0.5,8.6-6.5,18.5,0l9.7-13.2C157.8,37.1,142.2,25.8,120.8,36.9z"/>
		<g>
			<circle class="st6" cx="139.7" cy="39.8" r="5"/>
			<g>
				<rect x="135.9" y="39" class="st7" width="7.5" height="0.9"/>
				<rect x="139.1" y="36.3" class="st7" width="1.1" height="7"/>
			</g>
		</g>
	</g>
	<g>
		<g>
			<path class="st4" d="M272.4,81l1.4,16.1l6.3,7.2c0,0,4.7,3.7,9.4,0l4.8-5.5l2-18c0,0-0.2-6-9.3-6.5C278,73.6,272.9,74.9,272.4,81
				z"/>
			<path class="st8" d="M270.7,78.4l1.4-1.9h0.9l-1.2-2.3l0.3-3.5l2.6-2.6l-0.8,2.8l2.2-3.5l2.4-1.9l2,1.3L282,65l4.1-0.4l1.8,1.3
				l2.2,3.3l-0.3-1.8l6.9,6.7c0,0-0.1,5.8-0.4,7.3c0,0-1.4-4-4.7-2.7c0,0-6.7,1.7-7.9,1.5c-1.2-0.2-8.8-1.7-8.8-1.7
				s-1.8,0.3-2.5,3.2c0,0-0.6-1.9-0.3-3.6l-0.9,1.2L270.7,78.4z"/>
		</g>
		<path class="st9" d="M261.3,167.1v-49.3c0,0,1.1-8.9,8.8-8.9c7.7,0,28.4,0,28.4,0s8.6,1.6,9.3,8.6c0.7,7,0,49.6,0,49.6
			s-3.4,5.8-8.2,0v-40.5h-1.2v100.6c0,0-6.1,11.5-12.6,0.8v-52.8h-1.6v52.5c0,0-6.6,11.5-12.8,0.1V126.6h-1.4l0,40.2
			C269.9,166.8,266,175.5,261.3,167.1z"/>
		<path class="st10" d="M298.3,227.2c0,0-4.7,8.8-10.2,3.8c4.2,0.8,7.4-5.3,7.4-5.3l0.8-98.9l1.9-0.2L298.3,227.2z"/>
		<path class="st10" d="M307.7,167.1c0,0-2.9,5-7.2,1.1c2.7,0.4,4.5-2.5,4.5-2.5s0.7-42.5,0-49.6c-0.3-3-2-5-4-6.3
			c2.6,1.1,6.3,3.3,6.7,7.8C308.4,124.6,307.7,167.1,307.7,167.1z"/>
	</g>
	<g>
		<path class="st11" d="M181.9,125.4c0,0,5.7,10.2,11.3,12.2c0,0,3.9-2.5,7.5-0.1c0,0,7.6-4.5,9.4-11.9l0.1-16.1
			c0,0-10.3,7-28.1,0.9L181.9,125.4z"/>
		<path class="st12" d="M232.9,148.9c0,0-0.1,8.8-16,3.7c0,0-8-2.5-6,18"/>
		<path class="st13" d="M196.8,138.8c0,0,0.3,13.5,18.2,5.4c0,0,9.5-5.1,7.7,26.5"/>
		<ellipse class="st14" cx="197.2" cy="138.8" rx="3.8" ry="1.3"/>
		<path class="st15" d="M193.3,137.5l0.1,1.3c0,0,2.1-2.1,7.6-0.4l-0.1-1.1C201,137.4,197.4,135.2,193.3,137.5z"/>
		<text transform="matrix(1 0 0 1 192.8288 118.3957)" class="st16 st17 st18">91%</text>
		<path class="st19" d="M182.1,125.5h5.3H182.1z"/>
		<path class="st19" d="M183.4,128.1h7.1H183.4z"/>
		<path class="st19" d="M181.9,123.1h8.8H181.9z"/>
		<path class="st19" d="M181.9,120.8h4.3H181.9z"/>
		<path class="st19" d="M182,118.4h8.4H182z"/>
		<path class="st19" d="M181.9,116.1h4.3H181.9z"/>
		<path class="st19" d="M181.9,113.7h8.8H181.9z"/>
		<path class="st20" d="M181.8,110.3c0,0,11.1-5.9,28.3-0.7C210.2,109.7,200.1,116.8,181.8,110.3z"/>
		<path class="st19" d="M181.8,111.2h5.8H181.8z"/>
		<path class="st19" d="M181.8,108.8h8.9H181.8z"/>
		<path class="st19" d="M181.8,101.6l0.1,23.8c0,0,4.1,9.1,11,12.1l8-0.1c0,0,6.8-4.6,9.3-11.8v-23.9
			C210.3,101.7,197.5,111.2,181.8,101.6z"/>
		<g>
			<path class="st21" d="M210,101.5c-1.7,1.1-14.3,8.3-27.9-0.5c0,0,4.6-3.6,11.3-4.4c0.3,0,0.7-0.1,1-0.1c0,0,0,0,0,0
				c1-0.1,2.1-0.1,3.2,0c0.4,0,0.8,0.1,1.1,0.1c3.5,0.4,7.3,1.8,11.2,4.6C210.1,101.3,210.1,101.5,210,101.5z"/>
			
				<ellipse transform="matrix(0.9999 -1.534540e-02 1.534540e-02 0.9999 -1.4046 3.0211)" class="st22" cx="196.2" cy="93" rx="3.1" ry="3.4"/>
		</g>
		<ellipse class="st14" cx="233.1" cy="148.9" rx="3.8" ry="1.3"/>
		<path class="st19" d="M247.4,133.1h-8.8H247.4z"/>
		<path class="st19" d="M247.3,128.4h-8.4H247.3z"/>
		<path class="st19" d="M247.4,123.7h-8.8H247.4z"/>
		<path class="st19" d="M247.5,118.8h-8.9H247.5z"/>
		<g>
			<path class="st21" d="M219.3,111.6c1.7,1.1,14.3,8.3,27.9-0.5c0,0-4.6-3.6-11.3-4.4c-0.3,0-0.7-0.1-1-0.1c0,0,0,0,0,0
				c-1-0.1-2.1-0.1-3.2,0c-0.4,0-0.8,0.1-1.1,0.1c-3.5,0.4-7.3,1.8-11.2,4.6C219.2,111.4,219.2,111.5,219.3,111.6z"/>
			
				<ellipse transform="matrix(1.534540e-02 -0.9999 0.9999 1.534540e-02 126.5003 334.5976)" class="st22" cx="233.1" cy="103.1" rx="3.4" ry="3.1"/>
		</g>
		<path class="st23" d="M220.1,138.1c0,0,3.5,6.1,9.2,9.4c0,0,3.9-0.7,7.7,0.1c0,0,4.4-1.6,8.7-8.8
			C245.8,138.8,234.2,142.5,220.1,138.1z"/>
		<path class="st15" d="M237,147.5l-0.1,1.3c0,0-2.1-2.1-7.6-0.4l0.1-1.1C229.3,147.4,232.9,145.3,237,147.5z"/>
		<path class="st24" d="M220.1,138.1c0,0,14.3-4.6,25.6,0.7C245.8,138.8,233.4,142.7,220.1,138.1z"/>
		<path class="st19" d="M247.5,111.7l-0.1,23.8c0,0-3.4,9.1-10.3,12.1l-7.7-0.1c0,0-7.8-4.6-10.3-11.8v-23.9
			C219,111.7,231.8,121.2,247.5,111.7z"/>
		<path class="st19" d="M245.9,138.1h-7.1H245.9z"/>
		<text transform="matrix(1 0 0 1 230.0261 144.2932)" class="st25 st17 st18">9%</text>
		<text transform="matrix(1 0 0 1 177.7917 87.3362)"><tspan x="0" y="0" class="st3 st26 st27">3.5</tspan><tspan x="11.8" y="0" class="st3 st28 st27"> </tspan><tspan x="13.6" y="0" class="st3 st26 st29">Million Nurses in US</tspan></text>
		<text transform="matrix(1 0 0 1 205.9099 166.2131)" class="st3 st26 st30">GENDER</text>
		<g>
			<path class="st31" d="M208.4,171.7c-1.5,2.4-0.4,5.7,1.1,8.1c1.2,1.8,3.4,4.4,7,6.8c0,0,5.8-3.3,7.9-8.1c1-2.4,1.3-5.1-0.1-7.2
				c-1.3-1.9-4.6-2.2-8.2,1.4C216.1,172.6,211.3,167,208.4,171.7z"/>
			<g>
				<rect x="215.8" y="173.8" class="st7" width="1.4" height="8.8"/>
				<rect x="211.7" y="177.1" class="st7" width="9.6" height="1.1"/>
			</g>
		</g>
	</g>
	<g>
		<g>
			<line class="st32" x1="58" y1="133" x2="59" y2="133"/>
			<line class="st33" x1="60.9" y1="133" x2="110.6" y2="133"/>
			<line class="st32" x1="111.6" y1="133" x2="112.6" y2="133"/>
		</g>
	</g>
	<g>
		<g>
			<line class="st32" x1="28.2" y1="146.7" x2="29.2" y2="146.7"/>
			<line class="st34" x1="31.3" y1="146.7" x2="107.9" y2="146.7"/>
			<line class="st32" x1="108.9" y1="146.7" x2="109.9" y2="146.7"/>
		</g>
	</g>
	<g>
		<g>
			<line class="st32" x1="51.6" y1="161.4" x2="52.6" y2="161.4"/>
			<line class="st35" x1="54.7" y1="161.4" x2="115.2" y2="161.4"/>
			<line class="st32" x1="116.3" y1="161.4" x2="117.3" y2="161.4"/>
		</g>
	</g>
	<text transform="matrix(1 0 0 1 67.7033 145.6107)" class="st16 st26 st36">35</text>
	<text transform="matrix(1 0 0 1 11.8605 159.4467)"><tspan x="0" y="0" class="st3 st26 st37"> </tspan><tspan x="2.1" y="0" class="st16 st26 st36">$51,00</tspan></text>
	<text transform="matrix(1 0 0 1 31.7121 130.5511)"><tspan x="0" y="0" class="st16 st26 st38">3.2 </tspan><tspan x="29.7" y="0" class="st3 st39 st37"> </tspan></text>
	<g>
		<g>
			<line class="st40" x1="312.4" y1="167.6" x2="313.4" y2="167.6"/>
			<line class="st41" x1="315.4" y1="167.6" x2="374.7" y2="167.6"/>
			<line class="st40" x1="375.7" y1="167.6" x2="376.7" y2="167.6"/>
		</g>
	</g>
	<g>
		<g>
			<line class="st40" x1="312.4" y1="182.2" x2="313.4" y2="182.2"/>
			<line class="st42" x1="315.4" y1="182.2" x2="385.6" y2="182.2"/>
			<line class="st40" x1="386.6" y1="182.2" x2="387.6" y2="182.2"/>
		</g>
	</g>
	<text transform="matrix(1 0 0 1 377.4924 179.6664)" class="st25 st26 st36">31</text>
	<text transform="matrix(1 0 0 1 368.1994 195.6156)" class="st25 st26 st36"> $60,700</text>
	<text transform="matrix(1 0 0 1 314.965 164.7552)"><tspan x="0" y="0" class="st25 st26 st38">330,000</tspan><tspan x="64.3" y="0" class="st3 st39 st36"> </tspan></text>
	<text transform="matrix(1 0 0 1 54.9841 130.5511)"><tspan x="0" y="0" class="st3 st43 st37"> </tspan><tspan x="2.1" y="0" class="st3 st44 st45">Million Females</tspan></text>
	<text transform="matrix(1 0 0 1 27.6452 144.2943)" class="st3 st44 st45">Median age</text>
	<text transform="matrix(1 0 0 1 51.089 159.0336)" class="st3 st44 st45">Median Earnings</text>
	<g>
		<g>
			<line class="st40" x1="302.5" y1="196.8" x2="303.5" y2="196.8"/>
			<line class="st46" x1="305.4" y1="196.8" x2="359.2" y2="196.8"/>
			<line class="st40" x1="360.1" y1="196.8" x2="361.1" y2="196.8"/>
		</g>
	</g>
	<text transform="matrix(1 0 0 1 314.5129 193.8851)" class="st3 st44 st45">Median Earnings</text>
	<text transform="matrix(1 0 0 1 379.4933 164.7548)" class="st3 st44 st45">Males</text>
	<text transform="matrix(1 0 0 1 337.4992 179.6664)"><tspan x="0" y="0" class="st3 st44 st45">Median age</tspan><tspan x="37.7" y="0" class="st3 st39 st37"> </tspan></text>
</g>
</svg>
