<?xml version="1.0" encoding="utf-8"?>
<!-- Generator: Adobe Illustrator 19.2.1, SVG Export Plug-In . SVG Version: 6.00 Build 0)  -->
<svg version="1.1" id="hook" xmlns="http://www.w3.org/2000/svg" xmlns:xlink="http://www.w3.org/1999/xlink" x="0px" y="0px"
	 viewBox="0 0 750 550" enable-background="new 0 0 750 550" xml:space="preserve">
<g>
	<path opacity="0.79" fill="#F3E5E3" d="M79.7,99.1c0,0,175.1,47.3,314.8,37.3V131l7.7,1.8v10.8H427l9.6,4.6h24.9l-10.5,5.7
		c0,0-12.4,12.3-15.3,14.2c-2.9,1.8-3.8,5.7-3.8,5.7h8.6l2.9-5.7h4.8l1,5.7h6.7l5.7-5.7l16.3-14.2h10.5l-9.6,14.2h9.6
		c0,0,13.4,6.6,27.7-7.1v7.1h7.7l9.6,5.7h-9.6l1,7.9h8.6l8.8,4c0,0,4.6,12.3,2.6,14.9c-2.1,2.6-6.5,8.1-6.5,8.1l2.8,4.6l6.5-8.3
		l5.8-1.1l5.3,13v5c0,0-10.5,15.6-9.1,17.8s7.2,2.4,7.2,2.4h17l3.9-4.6c0,0,29.5-17.6,28.3-23.5l-3.5-5.3l1.9-2.9l24.2-2.9l6.3-6.8
		l1.2-14.5l10.7-12.1l8.4-3.7l29.7-7l0.9-3.7l3.5-2.6l4.9-7.2v-10.3c0,0,4.2-18.7,3.7-20.2c-0.5-1.5,7.9,0,7.9,0l6.5-2.6l5.8,2
		l4.2,5.3l1.9,10.1l9.8,10.5l4.6,1.3l2.6,5l-10,9.4l-6.3-0.4l-4.9,3.7v6.4l-8.1,5.1l-5.6,13.5l-0.7,5.5l2.6,3.3l-0.2,5l5.8,5
		l4.9,1.3l-0.7,4h-9.5l-2.6,4.4l-5.1,2l-2.1,3.1c0,0-18.4,4-16.7,9l3.9,0.7l4.2-4l7.9-0.9l-10,8.8l-7.4,0.9l-5.3,3.1l3,3.7
		l-1.4,14.7l-5.3,9.4l-3-4H665l-6-3.5l3.3,14.7l9.1-1.5l-0.9,8.8h-7.4l-5.8-3.1l-0.9-8.8l-2.1-3.7l2.1-2.2l-1.4-3.7l-7.4,6.6l2.8,4
		l2.6,9.4l-10.9,2.4h11.2l5.1,5.5l3.7,14.5h5.1l0.2,4l1.6,3.5l-5.1,7.2h8.8l0.7,2.9l-2.8,5h-8.4v9.4c0,0-2.3,4.6-4.6,5.3
		c-2.3,0.7-7.7,12.7-7.7,12.7s-11.6,4.6-11.6,6.6c0,2-3.7,9.9-3.7,9.9s-8.8,11.2-12.1,11.4c-3.3,0.2-7.7,1.5-7.7,1.5l-0.9,6.1
		l0.9,4.4l-3.5,3.3c0,0-0.2,14-1.6,15.8l13.5,23.7l5.1,5.7l0.1,6l16,19.4c0,0,5.4,26.7-0.7,30.3s-6.1,3.6-6.1,3.6l-7-9.8l-7.7-0.9
		l-8.3-12.8l-7.4-3l-3.4-7.3l1.6-6.8l-4.7-1.3l-1.1-10.7l-2.5-5.8l-6.3-0.9l-11.7-11.9l-9.5-0.4l-6.3,5.8l-5.2,0.4l-9.5-5.1
		c0,0-10.6-6.4-20.3-1.9l-6.1-2.8l-3.2,5.8l-5-4.3l-1.8,3.4l-12.6,0.9l-8.6,2.3l-5,6.2l8.1-0.9l1.4,1.9l-4.5,1.9l0.2,2.6l8.3,4.5
		l1.1,2.8l-7,0.9l-8.3-6.8l-0.9,8.1l-4.7-3.2l-4.7,3.2l-4.5-0.4l-9.7-8.3H453l-1.8,3l-8.1,0.2l-9.9-5.1l-16.7,7.7l-4.3-1.9l-1.8,0.6
		l-1.5,5.8l-14.4,9.8l-9.3-1.3l0.5,5.1c0,0-6.5,2.6-8.3,3.4s-0.5,3-0.5,3l-5.4,4.5l1.1,4.9l-3.6,2.6l0.7,8.7l2,6l1.4,7.9h-6.1
		l-13.8-5.1l-9.7-9.6l-1.8-8.7l-14.7-17.7l-3.6-12.4l-8.1-6.8l-15.6-4.9c0,0-7.7,1.3-13.5,13.4l-12.2-6.2l-7.9-7.7v-9.2l-4.7-7.9
		l-8.3-2.3L240,405.7l-25.5-1.7l-0.2,5.8l-41.7-2.3l-52.1-27.3l0.5-5.8L86.1,372l-0.7-8.5L78,351.1h-7.7v-4.1l-7.4-2.8l-1.4-6
		l-15.8-3.8l-2.7-3.8l3.2-4.5l-3.2-4.7l1.8-4.1l-5-5.3V304l-6.1-4.7v-1.7l4.1-4.7l-5.2-4.5l-2.7-7.5l1.8-3l7.9,4.3l-4.7-11.1l-5,2.1
		l-2.5-2.6l1.6-3.8l-6.5-8.5v-19.4l-3.4-5.5v-4.3l5.6-4.1l3.6-7l1.8-28.4l8.3-7.7l15.3-36.7l-0.7-5.8l3.6-5.3l-2.5-4.7l1.4-24.3
		l11.7,7.7l5.2-0.6l7.2,8.7l-0.9-10l2.5-1.5L79.7,99.1z"/>
	<path opacity="0.79" fill="#F3E5E3" d="M218.8,464.9l26.3,4.4l9.8,42.8l4.8,1.8l9.6-1.6l18.7,14.5c0,0,2.2,6-7.2,3.2l-25.3-15.1
		l-9,0.2c0,0-5.8-7-10.3,4.4c0,0-2,3-9.2,4c0,0-8,7.4-13.3,13.7c0,0-12.5,9.6-17.3,8.2c0,0-4-4.8,16.1-12.5l3.4-3.2l0.4-5.8
		l-1.4-1.2l-3.8,2.2h-5l-1.6-2.4l-0.8-3.2l-4.2-1l-3.5-7c0,0,1.7-5.6,3.1-6.1c1.4-0.5,3,0,3,0l5.4-3.1l1.6-3l-0.8-1.6l-9.6-1.2
		c0,0-3.6-4-1-8l2.4-0.8l3.4,2h3l1.6-3.6l-5-3.4l-0.6-6.4l-0.8-1.8L218.8,464.9z"/>
</g>
<g>
	<path fill="#F37D7F" d="M176.5,316.7l17.7-78.9c0,0,3.6-11.4,17.1-11.8c13.5-0.4,39.7,0,39.7,0s12.9,2.9,15.5,13.6
		c2.6,10.7,16.2,77,16.2,77s-1.1,15.9-14,5.9l-10.7-59.7h-2.3l18.6,100.9h-20.5v66.1c0,0-8.7,20.9-21.2,1.1v-67.4h-3v67.6
		c0,0-11.5,20.5-22.7,0.7v-68.1h-20.9l19.5-100.9h-2.2l-11.9,57.2C191.3,320.1,179.5,336.8,176.5,316.7z"/>
	<g>
		<path fill="#9B1C1F" d="M224.1,155.8c0,0-31.7-9.3-30.6,53.1c0,0,0,2.8-5.4,3.4c0,0,18.4,17,29.7,8.5v-5.1l-13.6-26l23.2-19.3
			l19.8,13.6c0,0,1.7,20.4-12.5,30.6l1.7,6.2c0,0,23.3,3.4,28.9-9.1l-5.7-1.7C259.8,210,267.7,149.8,224.1,155.8z"/>
		<path fill="#FFFFFF" d="M227.5,170.3l-23.2,19.3l13.6,26c0,0,11.2,4.6,17-1.1c5.8-5.8,10.7-9.4,12.5-30.6L227.5,170.3z"/>
	</g>
	<g>
		<path fill="#F7C5C1" d="M193.1,141.5c0,0,15.7,23.8,16.3,24.7c0.7,0.9,15.9-12.1,34.4,0l18.1-24.5
			C262,141.7,232.9,120.7,193.1,141.5z"/>
		<g>
			<circle fill="#ED2426" stroke="#ED2426" stroke-miterlimit="10" cx="228.2" cy="146.9" r="9.3"/>
			<g>
				<rect x="221.2" y="145.3" fill="#FFFFFF" stroke="#FFFFFF" stroke-miterlimit="10" width="14" height="1.6"/>
				<rect x="227.3" y="140.4" fill="#FFFFFF" stroke="#FFFFFF" stroke-miterlimit="10" width="2.1" height="13"/>
			</g>
		</g>
	</g>
</g>
<path fill="none" stroke="#F16369" stroke-width="1.5" stroke-miterlimit="10" d="M442.8,313.3"/>
<path fill="none" stroke="#F16369" stroke-width="1.5" stroke-miterlimit="10" d="M275.1,309.2"/>
<g>
	<g>
		<g>
			<path fill="none" stroke="#ADDBCF" stroke-miterlimit="10" d="M410.8,363.3c0,0-0.3,20.6-37.7,8.8c0,0-18.8-5.9-14.1,42.4"/>
			<ellipse fill="none" stroke="#FFFFFF" stroke-miterlimit="10" cx="411.1" cy="363.3" rx="9" ry="3.1"/>
			<path fill="none" stroke="#FFFFFF" stroke-width="1.5" stroke-miterlimit="10" d="M444.4,332h-12.3H444.4z"/>
			<path fill="none" stroke="#FFFFFF" stroke-width="1.5" stroke-miterlimit="10" d="M444.9,326.3h-20.6H444.9z"/>
			<path fill="none" stroke="#FFFFFF" stroke-width="1.5" stroke-miterlimit="10" d="M444.7,320.9h-10.1H444.7z"/>
			<path fill="none" stroke="#FFFFFF" stroke-width="1.5" stroke-miterlimit="10" d="M444.5,315.3h-19.8H444.5z"/>
			<path fill="none" stroke="#FFFFFF" stroke-width="1.5" stroke-miterlimit="10" d="M444.7,310h-10.1H444.7z"/>
			<path fill="none" stroke="#FFFFFF" stroke-width="1.5" stroke-miterlimit="10" d="M444.9,304.1h-20.6H444.9z"/>
			<path fill="none" stroke="#FFFFFF" stroke-width="1.5" stroke-miterlimit="10" d="M445.1,298.3h-13.6H445.1z"/>
			<path fill="none" stroke="#FFFFFF" stroke-width="1.5" stroke-miterlimit="10" d="M445.1,292.6h-21H445.1z"/>
			<g>
				<path fill="none" stroke="#FFFFFF" stroke-width="2" stroke-miterlimit="10" d="M378.7,275.7c4,2.5,33.7,19.4,65.6-1.2
					c0,0-10.7-8.4-26.6-10.3c-0.8-0.1-1.6-0.2-2.5-0.2c0,0,0,0,0,0c-2.4-0.2-4.9-0.2-7.5,0c-0.9,0.1-1.8,0.1-2.7,0.3
					c-8.2,1-17.2,4.2-26.4,10.9C378.5,275.2,378.5,275.5,378.7,275.7z"/>
				
					<ellipse transform="matrix(1.534540e-02 -0.9999 0.9999 1.534540e-02 149.3391 663.0175)" fill="none" stroke="#FFFFFF" stroke-width="1.3" stroke-miterlimit="10" cx="411.3" cy="255.7" rx="8.1" ry="7.3"/>
			</g>
			<path fill="#ADDBCF" d="M380.8,338c0,0,8.1,14.4,21.6,22c0,0,9.1-1.7,18,0.2c0,0,10.4-3.7,20.5-20.7
				C441,339.5,413.9,348.2,380.8,338z"/>
			<path opacity="0.66" fill="#65C7C4" d="M380.8,338c0,0,33.6-10.7,60.2,1.6C441,339.5,412,348.7,380.8,338z"/>
			<path fill="none" stroke="#FFFFFF" stroke-width="1.5" stroke-miterlimit="10" d="M444.9,275.9l-0.2,55.9c0,0-8,21.3-24.3,28.4
				l-18-0.2c0,0-18.3-10.9-24.3-27.8V276C378.1,276,408.1,298.3,444.9,275.9z"/>
			<path fill="none" stroke="#FFFFFF" stroke-width="1.5" stroke-miterlimit="10" d="M441.3,338h-16.6H441.3z"/>
			<text transform="matrix(1 0 0 1 403.9978 352.5278)" fill="#196B78" font-family="'Helvetica-Light'" font-size="11px">9%</text>
		</g>
		<g>
			<path fill="#F9DEDA" d="M291,308.2c0,0,13.3,23.9,26.6,28.8c0,0,9.1-5.9,17.7-0.2c0,0,17.9-10.7,22-27.9l0.2-37.9
				c0,0-24.1,16.6-66,2L291,308.2z"/>
			<path fill="none" stroke="#F7C5C1" stroke-width="1.4" stroke-miterlimit="10" d="M326,339.5c0,0,0.7,31.6,42.9,12.6
				c0,0,22.4-12,18,62.3"/>
			<ellipse fill="none" stroke="#FFFFFF" stroke-miterlimit="10" cx="327" cy="339.7" rx="9" ry="3.1"/>
			<path fill="none" stroke="#FFFFFF" stroke-width="1.5" stroke-miterlimit="10" d="M291.3,308.4h12.3H291.3z"/>
			<path fill="none" stroke="#FFFFFF" stroke-width="1.5" stroke-miterlimit="10" d="M294.5,314.4H311H294.5z"/>
			<path fill="none" stroke="#FFFFFF" stroke-width="1.5" stroke-miterlimit="10" d="M290.8,302.7h20.6H290.8z"/>
			<path fill="none" stroke="#FFFFFF" stroke-width="1.5" stroke-miterlimit="10" d="M291,297.3h10.1H291z"/>
			<path fill="none" stroke="#FFFFFF" stroke-width="1.5" stroke-miterlimit="10" d="M291.2,291.7H311H291.2z"/>
			<path fill="none" stroke="#FFFFFF" stroke-width="1.5" stroke-miterlimit="10" d="M291,286.4h10.1H291z"/>
			<path fill="none" stroke="#FFFFFF" stroke-width="1.5" stroke-miterlimit="10" d="M290.8,280.6h20.6H290.8z"/>
			<path opacity="0.77" fill="#F7C5C1" d="M290.8,272.8c0,0,26.1-13.8,66.6-1.6C357.4,271.2,333.7,287.9,290.8,272.8z"/>
			<path fill="none" stroke="#FFFFFF" stroke-width="1.5" stroke-miterlimit="10" d="M290.7,274.8h13.6H290.7z"/>
			<path fill="none" stroke="#FFFFFF" stroke-width="1.5" stroke-miterlimit="10" d="M290.7,269.1h21H290.7z"/>
			<path fill="none" stroke="#FFFFFF" stroke-width="1.5" stroke-miterlimit="10" d="M290.8,252.3l0.2,55.9c0,0,9.6,21.3,25.9,28.4
				l18.8-0.2c0,0,15.9-10.9,21.9-27.8v-56.1C357.6,252.4,327.6,274.7,290.8,252.3z"/>
			<g>
				<path fill="none" stroke="#FFFFFF" stroke-width="2" stroke-miterlimit="10" d="M357,252.1c-4,2.5-33.7,19.4-65.6-1.2
					c0,0,10.7-8.4,26.6-10.3c0.8-0.1,1.6-0.2,2.5-0.2c0,0,0,0,0,0c2.4-0.2,4.9-0.2,7.5,0c0.9,0.1,1.8,0.1,2.7,0.3
					c8.2,1,17.2,4.2,26.4,10.9C357.2,251.6,357.2,251.9,357,252.1z"/>
				
					<ellipse transform="matrix(0.9999 -1.534540e-02 1.534540e-02 0.9999 -3.5236 5.0061)" fill="none" stroke="#FFFFFF" stroke-width="1.3" stroke-miterlimit="10" cx="324.4" cy="232.1" rx="7.3" ry="8.1"/>
			</g>
		</g>
	</g>
	<path fill="#FFFFFF" stroke="#FFFFFF" stroke-linejoin="round" stroke-miterlimit="10" d="M317.4,336.9l0.3,3.1
		c0,0,4.9-4.9,17.9-0.8l-0.2-2.5C335.4,336.7,327.1,331.6,317.4,336.9z"/>
	<path fill="#FFFFFF" stroke="#FFFFFF" stroke-linejoin="round" stroke-miterlimit="10" d="M420,361.7l-0.3,3.1
		c0,0-4.9-4.9-17.9-0.8l0.2-2.5C402,361.4,410.3,356.3,420,361.7z"/>
</g>
<text transform="matrix(1 0 0 1 276.2859 218.7195)"><tspan x="0" y="0" fill="#9B1C1F" font-family="'Helvetica-Bold'" font-size="20px">3.5</tspan><tspan x="27.8" y="0" fill="#9B1C1F" font-family="'MyriadPro-Bold'" font-size="20px"> </tspan><tspan x="31.8" y="0" fill="#9B1C1F" font-family="'Helvetica-Bold'" font-size="16px">Million Nurses in US</tspan></text>
<g>
	<g>
		<line fill="none" stroke="#F16369" stroke-miterlimit="10" x1="87.3" y1="294.2" x2="88.3" y2="294.2"/>
		
			<line fill="none" stroke="#F16369" stroke-miterlimit="10" stroke-dasharray="1.9582,1.9582" x1="90.2" y1="294.2" x2="175.4" y2="294.2"/>
		<line fill="none" stroke="#F16369" stroke-miterlimit="10" x1="176.4" y1="294.2" x2="177.4" y2="294.2"/>
	</g>
</g>
<g>
	<g>
		<line fill="none" stroke="#F16369" stroke-miterlimit="10" x1="38.2" y1="318.8" x2="39.2" y2="318.8"/>
		
			<line fill="none" stroke="#F16369" stroke-miterlimit="10" stroke-dasharray="1.9817,1.9817" x1="41.2" y1="318.8" x2="171" y2="318.8"/>
		<line fill="none" stroke="#F16369" stroke-miterlimit="10" x1="172" y1="318.8" x2="173" y2="318.8"/>
	</g>
</g>
<g>
	<g>
		<line fill="none" stroke="#F16369" stroke-miterlimit="10" x1="76.8" y1="345.4" x2="77.8" y2="345.4"/>
		
			<line fill="none" stroke="#F16369" stroke-miterlimit="10" stroke-dasharray="2.0063,2.0063" x1="79.8" y1="345.4" x2="183.2" y2="345.4"/>
		<line fill="none" stroke="#F16369" stroke-miterlimit="10" x1="184.2" y1="345.4" x2="185.2" y2="345.4"/>
	</g>
</g>
<text transform="matrix(1 0 0 1 109.2387 316.892)" fill="#F16369" font-family="'Helvetica-Bold'" font-size="21px">35</text>
<text transform="matrix(1 0 0 1 8.7265 341.7952)"><tspan x="0" y="0" fill="#9B1C1F" font-family="'Helvetica-Bold'" font-size="13.326px"> </tspan><tspan x="3.7" y="0" fill="#F16369" font-family="'Helvetica-Bold'" font-size="21px">$51,00</tspan></text>
<text transform="matrix(1 0 0 1 44.4572 289.786)"><tspan x="0" y="0" fill="#F16369" font-family="'Helvetica-Bold'" font-size="32px">3.2 </tspan><tspan x="53.4" y="0" fill="#9B1C1F" font-family="'MyriadPro-Semibold'" font-size="13.326px"> </tspan></text>
<text transform="matrix(1 0 0 1 86.3447 289.7858)"><tspan x="0" y="0" fill="#9B1C1F" font-family="'StoneInformalStd-Semibold'" font-size="13.326px"> </tspan><tspan x="3.8" y="0" fill="#9B1C1F" font-family="'Helvetica'" font-size="13px">Million Females</tspan></text>
<text transform="matrix(1 0 0 1 37.1369 314.5229)" fill="#9B1C1F" font-family="'Helvetica'" font-size="13px">Median age</text>
<text transform="matrix(1 0 0 1 79.3344 341.0515)" fill="#9B1C1F" font-family="'Helvetica'" font-size="13px">Median Earnings</text>
<g>
	<g>
		<g>
			<line fill="none" stroke="#196B78" stroke-miterlimit="10" x1="546.9" y1="382.7" x2="547.9" y2="382.7"/>
			
				<line fill="none" stroke="#196B78" stroke-miterlimit="10" stroke-dasharray="1.9889,1.9889" x1="549.9" y1="382.7" x2="680.2" y2="382.7"/>
			<line fill="none" stroke="#196B78" stroke-miterlimit="10" x1="681.2" y1="382.7" x2="682.2" y2="382.7"/>
		</g>
	</g>
	<g>
		<g>
			<line fill="none" stroke="#196B78" stroke-miterlimit="10" x1="529" y1="409" x2="530" y2="409"/>
			
				<line fill="none" stroke="#196B78" stroke-miterlimit="10" stroke-dasharray="2.0312,2.0312" x1="532.1" y1="409" x2="632.6" y2="409"/>
			<line fill="none" stroke="#196B78" stroke-miterlimit="10" x1="633.6" y1="409" x2="634.6" y2="409"/>
		</g>
	</g>
	<text transform="matrix(1 0 0 1 550.6957 403.7823)" fill="#9B1C1F" font-family="'Helvetica'" font-size="13px">Median Earnings</text>
	<text transform="matrix(1 0 0 1 592.0698 378.1897)"><tspan x="0" y="0" fill="#9B1C1F" font-family="'Helvetica'" font-size="13px">Median age</tspan><tspan x="67.9" y="0" fill="#9B1C1F" font-family="'MyriadPro-Semibold'" font-size="13.326px"> </tspan></text>
	<g>
		<g>
			<line fill="none" stroke="#196B78" stroke-miterlimit="10" x1="546.9" y1="356.5" x2="547.9" y2="356.5"/>
			
				<line fill="none" stroke="#196B78" stroke-miterlimit="10" stroke-dasharray="1.994,1.994" x1="549.9" y1="356.5" x2="660.6" y2="356.5"/>
			<line fill="none" stroke="#196B78" stroke-miterlimit="10" x1="661.6" y1="356.5" x2="662.6" y2="356.5"/>
		</g>
	</g>
	<text transform="matrix(1 0 0 1 664.0549 378.1898)" fill="#196B78" font-family="'Helvetica-Bold'" font-size="21px">31</text>
	<text transform="matrix(1 0 0 1 647.3281 406.8969)" fill="#196B78" font-family="'Helvetica-Bold'" font-size="21px"> $60,700</text>
	<text transform="matrix(1 0 0 1 551.5107 351.3499)"><tspan x="0" y="0" fill="#196B78" font-family="'Helvetica-Bold'" font-size="32px">330,000</tspan><tspan x="115.7" y="0" fill="#9B1C1F" font-family="'MyriadPro-Semibold'" font-size="21px"> </tspan></text>
	<text transform="matrix(1 0 0 1 667.6555 351.3496)" fill="#9B1C1F" font-family="'Helvetica'" font-size="13px">Males</text>
</g>
<g>
	<g>
		<path fill="#FFFFFF" d="M478.7,223.2l2.5,29.8l11.7,13.4c0,0,8.7,6.8,17.5,0l9-10.3l3.8-33.3c0,0-0.4-11.1-17.2-12.1
			C489.1,209.6,479.7,212,478.7,223.2z"/>
		<path fill="#82321A" d="M475.5,218.4l2.6-3.5h1.7l-2.2-4.2l0.5-6.5l4.9-4.9l-1.4,5.2l4.1-6.5l4.4-3.5l3.7,2.4l2.8-3.2l7.6-0.8
			l3.4,2.5l4.1,6.1l-0.6-3.3l12.8,12.4c0,0-0.2,10.8-0.8,13.5c0,0-2.6-7.4-8.8-5.1c0,0-12.4,3.1-14.6,2.8s-16.4-3.2-16.4-3.2
			s-3.4,0.6-4.6,6c0,0-1-3.5-0.5-6.7l-1.8,2.2L475.5,218.4z"/>
	</g>
	<g>
		<path fill="#65C7C4" d="M458.1,383.2v-91.5c0,0,2-16.5,16.3-16.5c14.3,0,52.7,0,52.7,0s16,3,17.3,16s0,92,0,92s-6.3,10.8-15.3,0
			V308h-2.3v186.8c0,0-11.3,21.3-23.3,1.5v-98h-3v97.5c0,0-12.3,21.3-23.8,0.3V308h-2.5l0,74.7C474.1,382.7,466.9,398.7,458.1,383.2
			z"/>
		<g>
			<path fill="none" stroke="#FFFFFF" stroke-width="2" stroke-miterlimit="10" d="M514.2,275.7c0,0,12.6,9.3,5.4,24.1
				C519.7,299.8,526.7,287.1,514.2,275.7z"/>
			<ellipse fill="none" stroke="#FFFFFF" stroke-width="2" stroke-miterlimit="10" cx="516.4" cy="304.5" rx="5.9" ry="5.6"/>
		</g>
		<g>
			<path fill="none" stroke="#FFFFFF" stroke-width="2" stroke-miterlimit="10" d="M486.8,275.7c0,0-10,18.1-4.2,30.1
				c0,0-4.4,9.4,1.2,21.3"/>
			<path fill="none" stroke="#FFFFFF" stroke-width="2" stroke-miterlimit="10" d="M482.6,305.8c0,0,10-4.9,17.1,13.9"/>
			
				<ellipse transform="matrix(0.2022 -0.9794 0.9794 0.2022 82.7977 743.295)" fill="none" stroke="#FFFFFF" stroke-width="2" stroke-miterlimit="10" cx="497.6" cy="320.8" rx="2.8" ry="2.1"/>
			
				<ellipse transform="matrix(0.9967 -8.073521e-02 8.073521e-02 0.9967 -24.7238 40.282)" fill="none" stroke="#FFFFFF" stroke-width="2" stroke-miterlimit="10" cx="485.8" cy="325.9" rx="2.5" ry="1.8"/>
		</g>
	</g>
</g>
<text transform="matrix(1 0 0 1 67.1738 66.0852)"><tspan x="0" y="0" fill="#196B78" font-family="'Helvetica-Bold'" font-size="73px">The </tspan><tspan x="150.1" y="0" fill="#ED1C24" font-family="'Helvetica-Bold'" font-size="73px">Modern </tspan><tspan x="433.9" y="0" fill="#196B78" font-family="'Helvetica-Bold'" font-size="73px">Nurse</tspan></text>
<rect x="201.6" y="81.3" fill="none" width="341" height="44"/>
<text transform="matrix(1 0 0 1 267.092 94.5569)"><tspan x="0" y="0" fill="#196B78" font-family="'StoneInformalStd-MediumItal'" font-size="18px">Exploring Today’s Diversity </tspan><tspan x="7.2" y="21.6" fill="#196B78" font-family="'StoneInformalStd-MediumItal'" font-size="18px">in the Nursing Profession</tspan></text>
<text transform="matrix(1 0 0 1 305.6121 291.6883)" fill="#F16369" font-family="'Helvetica-Light'" font-size="11px">91%</text>
<g>
	<path fill="#ED2426" d="M353.2,417c-3.5,5.6-1,13.4,2.7,18.9c2.8,4.3,8,10.4,16.4,15.9c0,0,13.6-7.7,18.5-19.1
		c2.4-5.5,3.1-11.9-0.2-17c-3-4.5-10.9-5.2-19.3,3.3C371.2,419.1,360,405.9,353.2,417z"/>
	<g>
		<rect x="370.6" y="421.8" fill="#FFFFFF" stroke="#FFFFFF" stroke-miterlimit="10" width="3.3" height="20.8"/>
		<rect x="361" y="429.7" fill="#FFFFFF" stroke="#FFFFFF" stroke-miterlimit="10" width="22.4" height="2.6"/>
	</g>
</g>
<text transform="matrix(1 0 0 1 347.3425 404.0234)" fill="#9B1C1F" font-family="'Helvetica-Bold'" font-size="12.0014px">GENDER</text>
</svg>
