<?xml version="1.0" encoding="utf-8"?>
<!-- Generator: Adobe Illustrator 19.2.1, SVG Export Plug-In . SVG Version: 6.00 Build 0)  -->
<svg version="1.1" id="RNs_x26_LPNs" xmlns="http://www.w3.org/2000/svg" xmlns:xlink="http://www.w3.org/1999/xlink" x="0px"
	 y="0px" viewBox="0 0 690 360" enable-background="new 0 0 690 360" xml:space="preserve">
<path fill="none" stroke="#000000" stroke-miterlimit="10" d="M49.4,92.1C49.4,92.1,49.4,92.1,49.4,92.1"/>
<path opacity="0.35" fill="#ADDBCF" d="M666.7,324.4H24c-10.9,0-19.6-8.8-19.6-19.6V54.1c0-10.9,8.8-19.6,19.6-19.6h642.7
	c10.9,0,19.6,8.8,19.6,19.6v250.7C686.3,315.6,677.5,324.4,666.7,324.4z"/>
<g>
	<g>
		<g>
			<path fill="#FABFB7" d="M43,94c0,0,8.5,12.6,8.8,13c0.4,0.5,8.6-6.4,18.6,0l9.8-12.9C80.2,94.2,64.5,83.1,43,94z"/>
			<ellipse fill="#ED2426" stroke="#ED2426" stroke-miterlimit="10" cx="61.6" cy="97.3" rx="5" ry="4.9"/>
			<g>
				<rect x="57.8" y="96.5" fill="#FFFFFF" stroke="#FFFFFF" stroke-miterlimit="10" width="7.6" height="0.8"/>
				<rect x="61.1" y="93.9" fill="#FFFFFF" stroke="#FFFFFF" stroke-miterlimit="10" width="1.1" height="6.8"/>
			</g>
		</g>
		<ellipse fill="#FFFFFF" cx="61.6" cy="130.1" rx="17.1" ry="16.6"/>
		<path fill="#82321A" d="M37.7,119.9c-0.2,2.3-0.1,4.9,0.4,7.6c0.5,2.3,0.6,4.7,0.2,7c-0.8,4.6-3.6,10-12.9,6.1
			c0,0,14.1,15.4,23.8,0.9c0,0-12.9-13.9,3.8-25.7c3.8-2.7,16.3-5.4,23.6,6.2c5,7.9-0.1,16.8-1.6,18.5c0,0,7.9,15.8,22.9-0.6l-3.2,1
			c-4.8,1.5-9.9-1.9-9.9-6.8c0,0,0-0.1,0-0.1c0.1-8.8,0.8-25.7-10.8-30.4c-2.4-1-7.8-3.8-18.7-1.9C45.9,103.3,38.6,110.7,37.7,119.9
			z"/>
	</g>
	<path fill="#FABFB7" d="M60.5,130.9l121.9-45.7c-2.1-1.8,24,19,3.3,39.6L60.5,130.9z"/>
	<g>
		
			<ellipse transform="matrix(0.987 -0.1605 0.1605 0.987 -16.3635 27.5733)" fill="#9B1C1F" cx="162.5" cy="115.1" rx="35.4" ry="35.4"/>
		
			<ellipse transform="matrix(0.987 -0.1605 0.1605 0.987 -16.3543 27.6873)" fill="#FFFFFF" stroke="#9B1C1F" stroke-miterlimit="10" cx="163.2" cy="115.1" rx="26.1" ry="26.1"/>
		
			<rect x="215.9" y="131.2" transform="matrix(0.5845 -0.8114 0.8114 0.5845 -36.4794 247.5654)" fill="none" stroke="#9B1C1F" stroke-miterlimit="10" width="15.2" height="56.4"/>
		
			<rect x="192.3" y="133.1" transform="matrix(0.5491 -0.8357 0.8357 0.5491 -28.1502 226.2244)" fill="none" stroke="#9B1C1F" stroke-miterlimit="10" width="6.6" height="12.3"/>
		<g>
			<rect x="161.6" y="112.1" fill="#9B1C1F" stroke="#9B1C1F" stroke-miterlimit="10" width="3.3" height="16.2"/>
			<polygon fill="#9B1C1F" stroke="#9B1C1F" stroke-miterlimit="10" points="155,110.6 171.5,110.6 163.9,99.5 			"/>
		</g>
	</g>
</g>
<g>
	<g>
		<g>
			<path fill="#FABFB7" d="M43.6,233.1c0,0,7.3,10.9,7.7,11.3s7.5-5.5,16.1,0l8.5-11.2C75.9,233.2,62.3,223.6,43.6,233.1z"/>
			<ellipse fill="#ED2426" stroke="#ED2426" stroke-miterlimit="10" cx="59.8" cy="235.9" rx="4.3" ry="4.2"/>
			<g>
				<rect x="56.5" y="235.2" fill="#FFFFFF" stroke="#FFFFFF" stroke-miterlimit="10" width="6.6" height="0.7"/>
				<rect x="59.3" y="233" fill="#FFFFFF" stroke="#FFFFFF" stroke-miterlimit="10" width="1" height="5.9"/>
			</g>
		</g>
		<ellipse fill="#FFFFFF" cx="59.8" cy="264.4" rx="14.8" ry="14.4"/>
		<path fill="#82321A" d="M39,255.5c-0.2,2-0.1,4.2,0.3,6.6c0.4,2,0.5,4,0.1,6c-0.7,4-3.1,8.7-11.2,5.3c0,0,12.3,13.4,20.6,0.8
			c0,0-11.2-12.1,3.3-22.3c3.3-2.3,14.2-4.7,20.5,5.4c4.3,6.9-0.1,14.6-1.4,16.1c0,0,6.8,13.7,19.9-0.6l-2.8,0.9
			c-4.2,1.3-8.6-1.7-8.6-5.9c0,0,0-0.1,0-0.1c0.1-7.6,0.7-22.3-9.3-26.4c-2.1-0.8-6.7-3.3-16.2-1.6C46.1,241.1,39.8,247.5,39,255.5z
			"/>
	</g>
	<path fill="#FABFB7" d="M58.8,265l105.8-39.6c-1.8-1.6,20.8,16.5,2.9,34.4L58.8,265z"/>
	<g>
		
			<ellipse transform="matrix(0.987 -0.1605 0.1605 0.987 -38.425 26.8987)" fill="#9B1C1F" cx="147.3" cy="251.3" rx="30.7" ry="30.7"/>
		
			<ellipse transform="matrix(0.987 -0.1605 0.1605 0.987 -38.417 26.9976)" fill="#FFFFFF" stroke="#9B1C1F" stroke-miterlimit="10" cx="147.9" cy="251.3" rx="22.6" ry="22.6"/>
		
			<rect x="193.6" y="265.3" transform="matrix(0.5845 -0.8114 0.8114 0.5845 -151.9398 282.842)" fill="none" stroke="#9B1C1F" stroke-miterlimit="10" width="13.2" height="48.9"/>
		
			<rect x="173.1" y="266.9" transform="matrix(0.5491 -0.8357 0.8357 0.5491 -148.1741 269.8362)" fill="none" stroke="#9B1C1F" stroke-miterlimit="10" width="5.7" height="10.6"/>
		<g>
			<rect x="146.5" y="248.8" fill="#9B1C1F" stroke="#9B1C1F" stroke-miterlimit="10" width="2.9" height="14.1"/>
			<polygon fill="#9B1C1F" stroke="#9B1C1F" stroke-miterlimit="10" points="140.8,247.5 155.1,247.5 148.5,237.8 			"/>
		</g>
	</g>
</g>
<g>
	<text transform="matrix(1 0 0 1 269.5268 117.747)"><tspan x="0" y="0" fill="#82321A" font-family="'Helvetica-Bold'" font-size="24.2256px">RNs increased </tspan><tspan x="175" y="0" fill="#F16369" font-family="'Helvetica'" font-size="40.9972px">14%</tspan><tspan x="0" y="29.1" fill="#82321A" font-family="'Helvetica-Bold'" font-size="24.2256px">per100,00 population(per capital)</tspan></text>
</g>
<g>
	<text transform="matrix(1 0 0 1 269.5278 246.3056)"><tspan x="0" y="0" fill="#82321A" font-family="'Helvetica-Bold'" font-size="24.2256px">LPNs increased </tspan><tspan x="188.5" y="0" fill="#F16369" font-family="'Helvetica'" font-size="40.9972px">6%</tspan><tspan x="247.8" y="0" fill="#82321A" font-family="'Helvetica-Bold'" font-size="24.2256px">  </tspan><tspan x="0" y="29.1" fill="#82321A" font-family="'Helvetica-Bold'" font-size="24.2256px">per100,00 population(per capital)</tspan></text>
</g>
</svg>
