<?xml version="1.0" encoding="utf-8"?>
<!-- Generator: Adobe Illustrator 19.2.1, SVG Export Plug-In . SVG Version: 6.00 Build 0)  -->
<svg version="1.1" xmlns="http://www.w3.org/2000/svg" xmlns:xlink="http://www.w3.org/1999/xlink" x="0px" y="0px"
	 viewBox="0 0 690 360" enable-background="new 0 0 690 360" xml:space="preserve">
<g id="education">
</g>
<g id="earning">
</g>
<g id="male">
</g>
<g id="age">
	<path opacity="0.35" fill="#ADDBCF" d="M665.5,345.6H24.7c-10.9,0-19.6-8.8-19.6-19.6V52.8c0-10.9,8.8-19.6,19.6-19.6h640.7
		c10.9,0,19.6,8.8,19.6,19.6V326C685.1,336.8,676.3,345.6,665.5,345.6z"/>
	<text transform="matrix(1 0 0 1 95.8475 85.0103)" fill="#5AC5C8" font-family="'Helvetica-Bold'" font-size="32.2841px">How old are nurses today?</text>
	<text transform="matrix(1 0 0 1 302.5223 129.6841)" font-family="'MyriadPro-Regular'" font-size="26.355px">LPN</text>
	<g>
		<text transform="matrix(1 0 0 1 499.8678 129.6839)" font-family="'MyriadPro-Regular'" font-size="26.355px">RN</text>
	</g>
	<text transform="matrix(1 0 0 1 26.1393 43.1273)" fill="#196B78" font-family="'Helvetica'" font-size="42.1567px">AGE</text>
	<g>
		<g>
			<path opacity="0.72" fill="#FFFFFF" d="M309.1,152.6l-11.7,32c0,0,1.8,13.5,12.4,4.5l11.7-32L309.1,152.6z"/>
			<path fill="#FFFFFF" d="M309.6,149.1l14.5,5.3c0,0,4,2.9-1.1,2.9l-14.5-5.3C308.6,152,304.3,148.9,309.6,149.1z"/>
			<path fill="#ADDBCF" d="M309.8,150.8l-12.2,33.4c0,0,1.2,7.5,6.2,7.6c0,0-3.4-2-2.7-6.7l11.5-31.6l-3.4-1.2L309.8,150.8z"/>
			<path fill="none" stroke="#FFFFFF" stroke-miterlimit="10" d="M309.1,152.6l-11.7,32c0,0,1.8,13.5,12.4,4.5l11.7-32L309.1,152.6z
				"/>
			<path fill="#65C7C4" d="M315.7,173.1l-9-3.3l-4.8,13c0,0-3.7,6.7,1.8,9c0,0,4.3,0.6,7-5.2L315.7,173.1z"/>
		</g>
		<text transform="matrix(1 0 0 1 305.233 191.1021)" fill="#9B1C1F" font-family="'Helvetica'" font-size="27.0177px">42.6%</text>
	</g>
	<g>
		<g>
			<path opacity="0.72" fill="#FFFFFF" d="M309.1,278.6l-11.7,32c0,0,1.8,13.5,12.4,4.5l11.7-32L309.1,278.6z"/>
			<path fill="#FFFFFF" d="M309.6,275l14.5,5.3c0,0,4,2.9-1.1,2.9l-14.5-5.3C308.6,277.9,304.3,274.9,309.6,275z"/>
			<path fill="#ADDBCF" d="M309.8,276.7l-12.2,33.4c0,0,1.2,7.5,6.2,7.6c0,0-3.4-2-2.7-6.7l11.5-31.6l-3.4-1.2L309.8,276.7z"/>
			<path fill="none" stroke="#FFFFFF" stroke-miterlimit="10" d="M309.1,278.6l-11.7,32c0,0,1.8,13.5,12.4,4.5l11.7-32L309.1,278.6z
				"/>
			<path fill="#65C7C4" d="M315.7,299.1l-9-3.3l-4.8,13c0,0-3.7,6.7,1.8,9c0,0,4.3,0.6,7-5.2L315.7,299.1z"/>
		</g>
		<text transform="matrix(1 0 0 1 309.5059 315.4271)" fill="#9B1C1F" font-family="'Helvetica'" font-size="24.5914px">48.5%</text>
	</g>
	<g>
		<g>
			<g>
				<path fill="#FED49A" d="M82.1,122.3c-0.1,12.8-10.5,23.2-23.4,23.1c-12.1-0.1-22-9.4-23-21.3c0.3-0.2,12.5-6.8,8.9-14.7
					c0,0,18.8,5.9,25.9-1c0,0,2.3,12.4,11.4,11.5C82,120.8,82.1,121.5,82.1,122.3z"/>
				<path fill="none" stroke="#000000" stroke-miterlimit="10" d="M35.7,124.1C35.7,124.1,35.7,124.1,35.7,124.1"/>
				<path fill="#82321A" d="M82,120c-9.2,0.9-11.4-11.5-11.4-11.5c-7.2,6.8-25.9,1-25.9,1c3.6,7.9-8.6,14.5-8.9,14.7
					c-0.1-0.7-0.1-1.4-0.1-2.1c0.1-12.8,10.5-23.2,23.4-23.1C71,99,80.9,108.2,82,120z"/>
			</g>
			<path fill="#ADDBCF" d="M28.5,196c0,0,6.3-45.4,29.1-47.7c0,0,23.1-7,31.6,47.7H28.5z"/>
			<g>
				<circle fill="#ED2426" stroke="#ED2426" stroke-width="0.4" stroke-miterlimit="10" cx="69" cy="168.4" r="7.2"/>
				<g>
					
						<rect x="63.6" y="167.1" fill="#FFFFFF" stroke="#FFFFFF" stroke-width="0.4" stroke-miterlimit="10" width="10.8" height="1.2"/>
					
						<rect x="68.2" y="163.4" fill="#FFFFFF" stroke="#FFFFFF" stroke-width="0.4" stroke-miterlimit="10" width="1.6" height="10"/>
				</g>
			</g>
		</g>
		<g>
			<polygon opacity="0.56" fill="#ADDBCF" points="228.4,187.1 228.4,169.5 243.7,178.3 258.9,187.1 243.7,195.9 228.4,204.7 			"/>
			<rect x="85.4" y="177.2" opacity="0.56" fill="#ADDBCF" width="143.1" height="18.7"/>
		</g>
	</g>
	<text transform="matrix(1 0 0 1 90.9642 180.3936)" fill="#D18957" font-family="'Helvetica-Light'" font-size="32.7923px">Under 40</text>
	<path fill="none" stroke="#000000" stroke-miterlimit="10" d="M50.9,327.5C50.8,327.5,50.8,327.5,50.9,327.5"/>
	<g>
		<g>
			<path fill="#FED49A" d="M83,238.1c-0.1,13-10.7,23.5-23.6,23.4c-12.3-0.1-22.3-9.5-23.3-21.6c0.3-0.2,12.7-6.9,9-14.9
				c0,0,19,5.9,26.3-1c0,0,2.3,12.6,11.6,11.7C83,236.5,83,237.3,83,238.1z"/>
			<path fill="none" stroke="#000000" stroke-miterlimit="10" d="M36.1,239.9C36.1,239.9,36.1,239.9,36.1,239.9"/>
			<path fill="#D18957" d="M82.9,235.7c-9.3,0.9-11.6-11.7-11.6-11.7c-7.3,6.9-26.3,1-26.3,1c3.7,8-8.7,14.7-9,14.9
				c-0.1-0.7-0.1-1.4-0.1-2.1c0.1-13,10.7-23.5,23.6-23.4C71.8,214.5,81.8,223.8,82.9,235.7z"/>
			<path fill="#ADDBCF" d="M28.7,312.7c0,0,6.4-46,29.5-48.3c0,0,23.4-7,32,48.3H28.7z"/>
			<g>
				<circle fill="#ED2426" stroke="#ED2426" stroke-width="0.4" stroke-miterlimit="10" cx="69.8" cy="284.7" r="7.2"/>
				<g>
					
						<rect x="64.3" y="283.5" fill="#FFFFFF" stroke="#FFFFFF" stroke-width="0.4" stroke-miterlimit="10" width="10.9" height="1.2"/>
					
						<rect x="69" y="279.7" fill="#FFFFFF" stroke="#FFFFFF" stroke-width="0.4" stroke-miterlimit="10" width="1.6" height="10.1"/>
				</g>
			</g>
		</g>
		<g>
			<polygon opacity="0.56" fill="#ADDBCF" points="228.5,303.8 228.5,286.2 243.7,295 258.9,303.8 243.7,312.5 228.5,321.3 			"/>
			<rect x="86" y="293.9" opacity="0.56" fill="#ADDBCF" width="142.5" height="18.6"/>
		</g>
	</g>
	<text transform="matrix(1 0 0 1 93.9579 300.6079)" fill="#D18957" font-family="'Helvetica-Light'" font-size="32.6673px">41 — 60</text>
	<g>
		<g>
			<path opacity="0.72" fill="#FFFFFF" d="M469.1,150.5l-11.5,31.6c0,0,1.8,13.4,12.3,4.5l11.5-31.6L469.1,150.5z"/>
			<path fill="#FFFFFF" d="M469.6,147l14.4,5.2c0,0,3.9,2.9-1,2.9l-14.4-5.2C468.6,149.9,464.3,146.8,469.6,147z"/>
			<path fill="#ADDBCF" d="M469.8,148.7l-12.1,33.1c0,0,1.2,7.4,6.1,7.5c0,0-3.4-2-2.6-6.7l11.4-31.3l-3.4-1.2L469.8,148.7z"/>
			<path fill="none" stroke="#FFFFFF" stroke-miterlimit="10" d="M469.1,150.5l-11.5,31.6c0,0,1.8,13.4,12.3,4.5l11.5-31.6
				L469.1,150.5z"/>
			<path fill="#65C7C4" d="M475.7,170.8l-8.9-3.3l-4.7,12.9c0,0-3.7,6.6,1.8,8.9c0,0,4.2,0.6,6.9-5.1L475.7,170.8z"/>
		</g>
		<text transform="matrix(1 0 0 1 469.9064 188.1907)" fill="#9B1C1F" font-family="'Helvetica'" font-size="35.1306px">37.8%</text>
	</g>
	<g>
		<g>
			<path opacity="0.72" fill="#FFFFFF" d="M470.3,276.5l-11.5,31.6c0,0,1.8,13.4,12.3,4.5l11.5-31.6L470.3,276.5z"/>
			<path fill="#FFFFFF" d="M470.7,273l14.4,5.2c0,0,3.9,2.9-1,2.9l-14.4-5.2C469.7,275.9,465.5,272.9,470.7,273z"/>
			<path fill="#ADDBCF" d="M470.9,274.7l-12.1,33.1c0,0,1.2,7.4,6.1,7.5c0,0-3.4-2-2.6-6.7l11.4-31.3l-3.4-1.2L470.9,274.7z"/>
			<path fill="none" stroke="#FFFFFF" stroke-miterlimit="10" d="M470.3,276.5l-11.5,31.6c0,0,1.8,13.4,12.3,4.5l11.5-31.6
				L470.3,276.5z"/>
			<path fill="#65C7C4" d="M477.6,294.7l-8.9-3.3l-5.2,14.2c0,0-3.9,7.3,1.5,9.7c0,0,4.3,0.5,7.2-5.9L477.6,294.7z"/>
		</g>
		<text transform="matrix(1 0 0 1 472.6603 315.4271)" fill="#9B1C1F" font-family="'Helvetica'" font-size="35.1306px">53.2%</text>
	</g>
</g>
<g id="hook">
</g>
<g id="RNs_x26_LPNs">
</g>
<g id="Layer_1">
</g>
</svg>
