<?xml version="1.0" encoding="utf-8"?>
<!-- Generator: Adobe Illustrator 19.2.1, SVG Export Plug-In . SVG Version: 6.00 Build 0)  -->
<svg version="1.1" id="age" xmlns="http://www.w3.org/2000/svg" xmlns:xlink="http://www.w3.org/1999/xlink" x="0px" y="0px"
	 viewBox="0 0 690 400" enable-background="new 0 0 690 400" xml:space="preserve">
<path fill="#F3E5E3" d="M638.9,387.5H49c-10.9,0-19.6-8.8-19.6-19.6V86.1c0-10.9,8.8-19.6,19.6-19.6h589.9
	c10.9,0,19.6,8.8,19.6,19.6v281.7C658.5,378.7,649.7,387.5,638.9,387.5z"/>
<g>
	<path fill="none" stroke="#F7C5C1" stroke-miterlimit="10" stroke-dasharray="3.9953,3.9953" d="M659.7,395.6H28.1
		c-10.9,0-19.6-8.8-19.6-19.6V74.5c0-10.9,8.8-19.6,19.6-19.6h631.6c10.9,0,19.6,8.8,19.6,19.6V376
		C679.4,386.8,670.6,395.6,659.7,395.6z"/>
</g>
<g>
	<g>
		<ellipse fill="#FFFFFF" cx="343.9" cy="115.2" rx="22.9" ry="24"/>
	</g>
	<path fill="#65C7C4" d="M304.7,247.3v-86.5c0,0,1.8-15.6,14.7-15.6s47.6,0,47.6,0s14.5,2.8,15.6,15.2c1.1,12.3,0,87,0,87
		s-5.7,10.2-13.8,0v-71.1h-2v176.5c0,0-10.2,20.1-21.1,1.4v-92.7H343v92.2c0,0-11.1,20.1-21.5,0.2V176.2h-2.3l0,70.6
		C319.2,246.8,312.7,262,304.7,247.3z"/>
	<path opacity="0.6" fill="#ADDBCF" d="M366.8,242.5v110.4c0,0-10.2,20.1-21.1,1.4v-1.8c9.3,8.9,17.1-6.7,17.1-6.7l2.1-170.3h2
		l-0.2,64.1C367.5,240.5,366.2,241.9,366.8,242.5z"/>
	<path opacity="0.6" fill="#ADDBCF" d="M382.6,247.4c0,0-5.7,10.2-13.8,0V244c6,3.4,9.9-3.6,9.9-3.6s1.1-74.6,0-87
		c-0.1-0.8-0.2-1.5-0.4-2.2c2.2,2.2,4,5.2,4.3,9.2C383.8,172.8,382.6,247.4,382.6,247.4z"/>
	<g>
		<path fill="none" stroke="#FFFFFF" stroke-width="0.7" stroke-miterlimit="10" d="M357.1,145.2c0,0,11.4,8.7,4.9,22.7
			C362,167.9,368.3,156,357.1,145.2z"/>
		<ellipse fill="none" stroke="#FFFFFF" stroke-width="0.7" stroke-miterlimit="10" cx="359" cy="172.3" rx="5.4" ry="5.3"/>
	</g>
	<g>
		<path fill="none" stroke="#FFFFFF" stroke-width="0.7" stroke-miterlimit="10" d="M332.3,145.2c0,0-9.1,17.1-3.8,28.4
			c0,0-4,8.9,1.1,20.2"/>
		<path fill="none" stroke="#FFFFFF" stroke-width="0.7" stroke-miterlimit="10" d="M328.5,173.6c0,0,9.1-4.6,15.5,13.1"/>
		<path fill="none" stroke="#FFFFFF" stroke-width="0.7" stroke-miterlimit="10" d="M340.3,187.4c-0.3,1.4,0.3,2.7,1.3,2.9
			c1,0.2,2-0.8,2.3-2.2s-0.3-2.7-1.3-2.9C341.6,185,340.5,186,340.3,187.4z"/>
		<path fill="none" stroke="#FFFFFF" stroke-width="0.7" stroke-miterlimit="10" d="M331.3,190.9c-1.2,0.1-2.2,1-2.1,1.9
			c0.1,0.9,1.1,1.6,2.4,1.5c1.2-0.1,2.2-1,2.1-1.9C333.6,191.5,332.5,190.8,331.3,190.9z"/>
	</g>
	<ellipse fill="none" stroke="#FFFFFF" stroke-width="0.7" stroke-miterlimit="10" cx="359" cy="172.3" rx="1.7" ry="1.8"/>
</g>
<g>
	<text transform="matrix(1 0 0 1 57.2832 177.8044)"><tspan x="0" y="0" fill="#9B1C1F" font-family="'Helvetica'" font-size="23.8806px">9.6</tspan><tspan x="33.2" y="0" fill="#9B1C1F" font-family="'Helvetica-Light'" font-size="11.9403px">%</tspan></text>
	<text transform="matrix(1 0 0 1 123.4956 135.2209)" fill="#196B78" font-family="'Helvetica'" font-size="28.9979px">RN</text>
	
		<rect x="112.7" y="187.4" transform="matrix(-1 -8.983404e-11 8.983404e-11 -1 300.7622 387.1037)" opacity="0.74" fill="#65C7C4" width="75.4" height="12.2"/>
	
		<rect x="105.6" y="165.6" transform="matrix(-1 -4.488999e-11 4.488999e-11 -1 293.727 343.3595)" fill="#65C7C4" width="82.5" height="12.2"/>
	
		<rect x="130" y="207.5" transform="matrix(-1 -5.492019e-11 5.492019e-11 -1 318.1267 427.3111)" opacity="0.56" fill="#65C7C4" width="58.1" height="12.2"/>
	
		<rect x="139.5" y="227.5" transform="matrix(-1 -5.661794e-11 5.661794e-11 -1 327.6427 467.2001)" fill="#ADDBCF" width="48.5" height="12.2"/>
	<path fill="none" stroke="#196B78" stroke-miterlimit="10" d="M252.3,151.2l-0.8,137.1c0,0,6.4,10.8,13.9,0l1.5-136.2l-6.9-25.4
		L252.3,151.2z"/>
	<path fill="#196B78" stroke="#196B78" stroke-linejoin="round" stroke-miterlimit="10" d="M257.8,146.2v129.4V146.2z"/>
	<path fill="#196B78" stroke="#196B78" stroke-width="2" stroke-miterlimit="10" d="M252.2,165.1h4.2H252.2z"/>
	<path fill="#196B78" stroke="#196B78" stroke-width="2" stroke-miterlimit="10" d="M252.2,185.8h4.2H252.2z"/>
	<path fill="#196B78" stroke="#196B78" stroke-width="2" stroke-miterlimit="10" d="M252.2,206.8h4.2H252.2z"/>
	<path fill="#196B78" stroke="#196B78" stroke-width="2" stroke-miterlimit="10" d="M252.2,227.5h4.2H252.2z"/>
	<path fill="#196B78" stroke="#196B78" stroke-linejoin="round" stroke-miterlimit="10" d="M259.9,127.9v-23.2V127.9z"/>
	<text transform="matrix(1 0 0 1 64.2114 199.4025)"><tspan x="0" y="0" fill="#9B1C1F" font-family="'Helvetica'" font-size="23.8806px">9.1</tspan><tspan x="33.2" y="0" fill="#9B1C1F" font-family="'Helvetica-Light'" font-size="11.9403px">%</tspan></text>
	<text transform="matrix(1 0 0 1 82.5781 219.7805)"><tspan x="0" y="0" fill="#9B1C1F" font-family="'Helvetica'" font-size="23.8806px">7.7</tspan><tspan x="33.2" y="0" fill="#9B1C1F" font-family="'Helvetica-Light'" font-size="11.9403px">%</tspan></text>
	<text transform="matrix(1 0 0 1 91.9883 239.7253)"><tspan x="0" y="0" fill="#9B1C1F" font-family="'Helvetica'" font-size="23.8806px">5.7</tspan><tspan x="33.2" y="0" fill="#9B1C1F" font-family="'Helvetica-Light'" font-size="11.9403px">%</tspan></text>
	<text transform="matrix(1 0 0 1 193.0811 239.7243)" fill="#D18957" font-family="'Helvetica'" font-size="17.0576px">1990</text>
	<text transform="matrix(1 0 0 1 193.29 220.6491)" fill="#D18957" font-family="'Helvetica'" font-size="17.0576px">2000</text>
	<text transform="matrix(1 0 0 1 193.291 198.424)" fill="#D18957" font-family="'Helvetica'" font-size="17.0576px">2010</text>
	<text transform="matrix(1 0 0 1 193.29 177.277)" fill="#D18957" font-family="'Helvetica'" font-size="17.0576px">Today</text>
	
		<rect x="168.9" y="267.5" transform="matrix(-1 -7.657087e-11 7.657087e-11 -1 357.4082 547.3113)" opacity="0.51" fill="#ADDBCF" width="19.5" height="12.2"/>
	
		<rect x="152.9" y="247.7" transform="matrix(-1 -3.178181e-11 3.178181e-11 -1 341.3929 507.6201)" opacity="0.7" fill="#ADDBCF" width="35.5" height="12.2"/>
	<path fill="#196B78" stroke="#196B78" stroke-width="2" stroke-miterlimit="10" d="M252.2,247.7h4.2H252.2z"/>
	<path fill="#196B78" stroke="#196B78" stroke-width="2" stroke-miterlimit="10" d="M251.5,268.4h4.2H251.5z"/>
	<text transform="matrix(1 0 0 1 105.25 259.9338)"><tspan x="0" y="0" fill="#9B1C1F" font-family="'Helvetica'" font-size="23.8806px">4.1</tspan><tspan x="33.2" y="0" fill="#9B1C1F" font-family="'Helvetica-Light'" font-size="11.9403px">%</tspan></text>
	<text transform="matrix(1 0 0 1 121.9497 279.7805)"><tspan x="0" y="0" fill="#9B1C1F" font-family="'Helvetica'" font-size="23.8806px">2.7</tspan><tspan x="33.2" y="0" fill="#9B1C1F" font-family="'Helvetica-Light'" font-size="11.9403px">%</tspan></text>
	<text transform="matrix(1 0 0 1 192.0186 279.7795)" fill="#D18957" font-family="'Helvetica'" font-size="17.0576px">1970</text>
	<text transform="matrix(1 0 0 1 192.3115 259.0505)" fill="#D18957" font-family="'Helvetica'" font-size="17.0576px">1980</text>
</g>
<g>
	<text transform="matrix(1 0 0 1 492.1548 136.6374)" fill="#196B78" font-family="'Helvetica'" font-size="29.0747px">LVN/LPN</text>
	<g>
		<path fill="none" stroke="#196B78" stroke-miterlimit="10" d="M434.7,152.1l0.8,137.5c0,0-6.4,10.8-13.9,0L420.1,153l6.9-25.5
			L434.7,152.1z"/>
		<path fill="none" stroke="#196B78" stroke-linejoin="round" stroke-miterlimit="10" d="M427,126.7v-23.2V126.7z"/>
		<path fill="none" stroke="#196B78" stroke-linejoin="round" stroke-miterlimit="10" d="M429.1,147.1v129.8V147.1z"/>
		<path fill="none" stroke="#196B78" stroke-width="2" stroke-miterlimit="10" d="M434.8,166.1h-4.2H434.8z"/>
		<path fill="none" stroke="#196B78" stroke-width="2" stroke-miterlimit="10" d="M434.8,186.9h-4.2H434.8z"/>
		<path fill="none" stroke="#196B78" stroke-width="2" stroke-miterlimit="10" d="M434.8,207.8h-4.2H434.8z"/>
		<path fill="none" stroke="#196B78" stroke-width="2" stroke-miterlimit="10" d="M434.8,228.6h-4.2H434.8z"/>
		<path fill="none" stroke="#196B78" stroke-width="2" stroke-miterlimit="10" d="M434.8,249.4h-4.2H434.8z"/>
		<path fill="none" stroke="#196B78" stroke-width="2" stroke-miterlimit="10" d="M434.8,270.2h-4.2H434.8z"/>
	</g>
	<rect x="504.3" y="189" opacity="0.74" fill="#65C7C4" width="73.6" height="12.3"/>
	<rect x="504.3" y="167.1" fill="#65C7C4" width="77.7" height="12.3"/>
	<rect x="504.3" y="209.1" opacity="0.56" fill="#65C7C4" width="69.8" height="12.3"/>
	<rect x="504.3" y="229.1" fill="#ADDBCF" width="48.7" height="12.3"/>
	<rect x="504" y="269.3" opacity="0.51" fill="#ADDBCF" width="33.7" height="12.3"/>
	<rect x="504" y="249.4" opacity="0.7" fill="#ADDBCF" width="26.7" height="12.3"/>
	<text transform="matrix(1 0 0 1 541.147 281.5778)"><tspan x="0" y="0" fill="#9B1C1F" font-family="'Helvetica'" font-size="23.9438px">3.9</tspan><tspan x="33.3" y="0" fill="#9B1C1F" font-family="'Helvetica-Light'" font-size="11.9719px">%</tspan></text>
	<text transform="matrix(1 0 0 1 534.2695 260.7941)"><tspan x="0" y="0" fill="#9B1C1F" font-family="'Helvetica'" font-size="23.9438px">3.4</tspan><tspan x="33.3" y="0" fill="#9B1C1F" font-family="'Helvetica-Light'" font-size="11.9719px">%</tspan></text>
	<text transform="matrix(1 0 0 1 556.4819 242.7209)"><tspan x="0" y="0" fill="#9B1C1F" font-family="'Helvetica'" font-size="23.9438px">6.4</tspan><tspan x="33.3" y="0" fill="#9B1C1F" font-family="'Helvetica-Light'" font-size="11.9719px">%</tspan></text>
	<text transform="matrix(1 0 0 1 577.9639 221.4177)"><tspan x="0" y="0" fill="#9B1C1F" font-family="'Helvetica'" font-size="23.9438px">7.6</tspan><tspan x="33.3" y="0" fill="#9B1C1F" font-family="'Helvetica-Light'" font-size="11.9719px">%</tspan></text>
	<text transform="matrix(1 0 0 1 581.9912 200.9885)"><tspan x="0" y="0" fill="#9B1C1F" font-family="'Helvetica'" font-size="23.9438px">7.8</tspan><tspan x="33.3" y="0" fill="#9B1C1F" font-family="'Helvetica-Light'" font-size="11.9719px">%</tspan></text>
	<text transform="matrix(1 0 0 1 588.9883 178.342)"><tspan x="0" y="0" fill="#9B1C1F" font-family="'Helvetica'" font-size="23.9438px">8.1</tspan><tspan x="33.3" y="0" fill="#9B1C1F" font-family="'Helvetica-Light'" font-size="11.9719px">%</tspan></text>
	<text transform="matrix(1 0 0 1 451.8755 241.4162)" fill="#D18957" font-family="'Helvetica'" font-size="17.1027px">1990</text>
	<text transform="matrix(1 0 0 1 452.0854 222.2907)" fill="#D18957" font-family="'Helvetica'" font-size="17.1027px">2000</text>
	<text transform="matrix(1 0 0 1 452.0854 200.0065)" fill="#D18957" font-family="'Helvetica'" font-size="17.1027px">2010</text>
	<text transform="matrix(1 0 0 1 452.0854 178.8039)" fill="#D18957" font-family="'Helvetica'" font-size="17.1027px">Today</text>
	<text transform="matrix(1 0 0 1 450.8101 281.5773)" fill="#D18957" font-family="'Helvetica'" font-size="17.1027px">1970</text>
	<text transform="matrix(1 0 0 1 451.1035 260.7936)" fill="#D18957" font-family="'Helvetica'" font-size="17.1027px">1980</text>
</g>
<g>
	<path fill="#65C7C4" d="M387.6,43.3H41.5c-6.6,0-12-5.4-12-12V20.6c0-6.6,5.4-12,12-12h346.1c6.6,0,12,5.4,12,12v10.7
		C399.6,37.9,394.2,43.3,387.6,43.3z"/>
	<text transform="matrix(1 0 0 1 76.1567 31.6266)" fill="#FFFFFF" font-family="'Helvetica-Bold'" font-size="16.3977px">Percentage of Male Nurses Over Time</text>
	<g>
		<circle fill="#FFFFFF" cx="54.8" cy="26.7" r="10.9"/>
		<g>
			<rect x="53.4" y="18.5" fill="#ED2426" width="2.8" height="17.8"/>
			
				<rect x="53.4" y="17.1" transform="matrix(4.442586e-11 -1 1 4.442586e-11 28.7797 80.8588)" fill="#ED2426" width="2.8" height="17.8"/>
		</g>
	</g>
</g>
<path fill="none" stroke="#000000" stroke-miterlimit="10" d="M103.6,134.5C103.6,134.5,103.6,134.5,103.6,134.5"/>
</svg>
