<?xml version="1.0" encoding="utf-8"?>
<!-- Generator: Adobe Illustrator 19.2.1, SVG Export Plug-In . SVG Version: 6.00 Build 0)  -->
<svg version="1.1" id="Layer_1" xmlns="http://www.w3.org/2000/svg" xmlns:xlink="http://www.w3.org/1999/xlink" x="0px" y="0px"
	 viewBox="0 0 690 360" enable-background="new 0 0 690 360" xml:space="preserve">
<g>
	<path fill="#F3E5E3" stroke="#FFFFFF" stroke-miterlimit="10" d="M670.4,354.6H299.6c-7.7,0-13.9-6.2-13.9-13.9V83.8
		c0-7.7,6.2-13.9,13.9-13.9h370.8c7.7,0,13.9,6.2,13.9,13.9v256.9C684.3,348.4,678.1,354.6,670.4,354.6z"/>
	<g>
		<path fill="none" stroke="#F7C5C1" stroke-miterlimit="10" stroke-dasharray="3,3" d="M657.6,340.4H312.2
			c-5.8,0-10.5-4.7-10.5-10.5V96.1c0-5.8,4.7-10.5,10.5-10.5h345.4c5.8,0,10.5,4.7,10.5,10.5v233.8
			C668,335.7,663.3,340.4,657.6,340.4z"/>
	</g>
</g>
<g>
	<path fill="#F3E5E3" stroke="#FFFFFF" stroke-miterlimit="10" d="M259,354.6H23.5c-7.7,0-13.9-6.2-13.9-13.9V83.9
		c0-7.7,6.2-13.9,13.9-13.9H259c7.7,0,13.9,6.2,13.9,13.9v256.8C272.9,348.4,266.7,354.6,259,354.6z"/>
	<g>
		<path fill="none" stroke="#F7C5C1" stroke-miterlimit="10" stroke-dasharray="2.9925,2.9925" d="M245,340.7H35.9
			c-5.8,0-10.5-4.7-10.5-10.5V96.4c0-5.8,4.7-10.5,10.5-10.5H245c5.8,0,10.5,4.7,10.5,10.5v233.8C255.5,335.9,250.8,340.7,245,340.7
			z"/>
	</g>
</g>
<text transform="matrix(1 0 0 1 42.1953 111.4174)" fill="#F16369" font-family="'Helvetica-Bold'" font-size="13.6739px">Nurse anesthetists</text>
<text transform="matrix(1 0 0 1 109.3623 134.3027)" fill="#F16369" font-family="'Helvetica-Light'" font-size="10.3164px"> Females</text>
<text transform="matrix(1 0 0 1 41.1392 266.2787)" fill="#F16369" font-family="'Helvetica-Bold'" font-size="13.6739px">Nurse Practitioners</text>
<rect x="97.6" y="125.8" opacity="0.6" fill="#F16369" width="11.7" height="9.3"/>
<rect x="43.7" y="125.8" opacity="0.6" fill="#65C7C4" width="11.7" height="9.3"/>
<text transform="matrix(1 0 0 1 59.6709 134.3027)" fill="#196B78" font-family="'Helvetica-Light'" font-size="10.3164px">Males</text>
<g>
	<path fill="#ED2426" d="M218.5,175.4c0,0-21.6,22.6-5.2,31.4c3.4,1.8,7.4,1.8,10.8-0.1C229.8,203.5,235.7,195.2,218.5,175.4z"/>
	<rect x="213" y="193.2" fill="#FFFFFF" stroke="#FFFFFF" stroke-miterlimit="10" width="11" height="1.3"/>
	<rect x="217.7" y="189" fill="#FFFFFF" stroke="#FFFFFF" stroke-miterlimit="10" width="1.6" height="11"/>
</g>
<path fill="none" stroke="#FFFFFF" stroke-linejoin="round" stroke-miterlimit="10" d="M205,167.9h14.2H205z"/>
<g>
	<path fill="#FCD7D2" d="M173.4,209.5v27.1l23.9-0.4c0,0,21.3-10.8-0.7-26.7H173.4z"/>
	<path opacity="0.3" fill="#F7C5C1" d="M156.4,209.5h38.9c0.8,0,1.6,0.3,2.3,0.7c4.3,3,18.8,14.8-0.1,25.9c-0.7,0.4-1.4,0.6-2.2,0.6
		h-40c-1,0-1.9-0.3-2.7-0.9c-4-2.9-14.8-12.6,1-25.3C154.5,209.8,155.4,209.5,156.4,209.5z"/>
	<g>
		<text transform="matrix(1 0 0 1 153.3843 227.2607)" fill="#F16369" font-family="'Helvetica'" font-size="10.4271px">$144,981</text>
	</g>
</g>
<g>
	<path opacity="0.72" fill="#FFFFFF" stroke="#FFFFFF" stroke-miterlimit="10" d="M149.4,203v20.4c0,0-3.8,7.2-7.9,0V203H149.4z"/>
	<path fill="#FFFFFF" d="M150.1,201.1h-9.3c0,0-2.8,0.8,0,1.8h9.3C150.1,203,153.1,202.1,150.1,201.1z"/>
	<path fill="#F16369" d="M141.5,216.7h5.8v6c0,0,0,3.1-2.9,3.4c0,0-2-1.3-2.9-3.2V216.7z"/>
	<path fill="#F9DEDA" d="M149.4,223.1c0,0-2.2,4-5.1,3c0,0,2.3-0.4,2.9-3.2v-19.6l2.2,0V223.1z"/>
	<path fill="none" stroke="#FFFFFF" stroke-miterlimit="10" d="M149.4,203v20.4c0,0-3.8,7.2-7.9,0V203H149.4z"/>
	
		<text transform="matrix(1 0 0 1 142.9224 223.0336)" fill="#FFFFFF" font-family="'MinionPro-SemiboldCnDisp'" font-size="7.6003px">$</text>
</g>
<g>
	
		<rect x="72.1" y="149.6" fill="#FFFFFF" stroke="#FFFFFF" stroke-linejoin="round" stroke-miterlimit="10" width="115.3" height="36.8"/>
	<rect x="50.1" y="174.1" fill="#F7C5C1" width="137.1" height="5.9"/>
	<rect x="125.3" y="155.8" opacity="0.6" fill="#F16369" width="62" height="30.6"/>
	<rect x="83.1" y="155.8" opacity="0.6" fill="#65C7C4" width="42.2" height="30.6"/>
	
		<rect x="116.8" y="111.2" transform="matrix(1.979351e-10 -1 1 1.979351e-10 -38.9721 298.3557)" fill="none" stroke="#FFFFFF" stroke-miterlimit="10" width="25.8" height="115"/>
	<polygon fill="#FFFFFF" stroke="#FFFFFF" stroke-linejoin="round" stroke-miterlimit="10" points="190.3,168 190.3,149.5 
		200.7,158.7 211.2,167.9 200.8,177.2 190.4,186.5 	"/>
	<rect x="187.8" y="149.4" fill="none" stroke="#FFFFFF" stroke-linejoin="round" stroke-miterlimit="10" width="2.5" height="37"/>
	<line fill="none" stroke="#FFFFFF" stroke-linejoin="round" stroke-miterlimit="10" x1="87.4" y1="174.7" x2="87.4" y2="186.7"/>
	<line fill="none" stroke="#FFFFFF" stroke-linejoin="round" stroke-miterlimit="10" x1="91.8" y1="174.7" x2="91.8" y2="186.7"/>
	<line fill="none" stroke="#FFFFFF" stroke-linejoin="round" stroke-miterlimit="10" x1="95.7" y1="174.7" x2="95.7" y2="186.7"/>
	<line fill="none" stroke="#FFFFFF" stroke-linejoin="round" stroke-miterlimit="10" x1="99.8" y1="174.7" x2="99.8" y2="186.7"/>
	<line fill="none" stroke="#FFFFFF" stroke-linejoin="round" stroke-miterlimit="10" x1="103.7" y1="168.9" x2="103.7" y2="186.7"/>
	<line fill="none" stroke="#FFFFFF" stroke-linejoin="round" stroke-miterlimit="10" x1="107.9" y1="174.7" x2="107.9" y2="186.7"/>
	<line fill="none" stroke="#FFFFFF" stroke-linejoin="round" stroke-miterlimit="10" x1="112.2" y1="174.7" x2="112.2" y2="186.7"/>
	<line fill="none" stroke="#FFFFFF" stroke-linejoin="round" stroke-miterlimit="10" x1="116.5" y1="174.7" x2="116.5" y2="186.7"/>
	<line fill="none" stroke="#FFFFFF" stroke-linejoin="round" stroke-miterlimit="10" x1="120.4" y1="174.7" x2="120.4" y2="186.7"/>
	<line fill="none" stroke="#FFFFFF" stroke-linejoin="round" stroke-miterlimit="10" x1="124.5" y1="168.9" x2="124.5" y2="186.7"/>
	<line fill="none" stroke="#FFFFFF" stroke-linejoin="round" stroke-miterlimit="10" x1="128.4" y1="174.7" x2="128.4" y2="186.7"/>
	<line fill="none" stroke="#FFFFFF" stroke-linejoin="round" stroke-miterlimit="10" x1="132.6" y1="174.7" x2="132.6" y2="186.7"/>
	<line fill="none" stroke="#FFFFFF" stroke-linejoin="round" stroke-miterlimit="10" x1="136.9" y1="174.7" x2="136.9" y2="186.7"/>
	<line fill="none" stroke="#FFFFFF" stroke-linejoin="round" stroke-miterlimit="10" x1="141.2" y1="174.7" x2="141.2" y2="186.7"/>
	<line fill="none" stroke="#FFFFFF" stroke-linejoin="round" stroke-miterlimit="10" x1="145.1" y1="168.9" x2="145.1" y2="186.7"/>
	<line fill="none" stroke="#FFFFFF" stroke-linejoin="round" stroke-miterlimit="10" x1="149.2" y1="174.7" x2="149.2" y2="186.7"/>
	<line fill="none" stroke="#FFFFFF" stroke-linejoin="round" stroke-miterlimit="10" x1="153.1" y1="174.7" x2="153.1" y2="186.7"/>
	<line fill="none" stroke="#FFFFFF" stroke-linejoin="round" stroke-miterlimit="10" x1="157.4" y1="174.7" x2="157.4" y2="186.7"/>
	<line fill="none" stroke="#FFFFFF" stroke-linejoin="round" stroke-miterlimit="10" x1="166.4" y1="168.9" x2="166.4" y2="186.7"/>
	<line fill="none" stroke="#FFFFFF" stroke-linejoin="round" stroke-miterlimit="10" x1="170.6" y1="174.7" x2="170.6" y2="186.7"/>
	<line fill="none" stroke="#FFFFFF" stroke-linejoin="round" stroke-miterlimit="10" x1="174.9" y1="174.7" x2="174.9" y2="186.7"/>
	<line fill="none" stroke="#FFFFFF" stroke-linejoin="round" stroke-miterlimit="10" x1="179.3" y1="174.7" x2="179.3" y2="186.7"/>
	<line fill="none" stroke="#FFFFFF" stroke-linejoin="round" stroke-miterlimit="10" x1="183.2" y1="174.7" x2="183.2" y2="186.7"/>
	<line fill="none" stroke="#FFFFFF" stroke-linejoin="round" stroke-miterlimit="10" x1="161.6" y1="174.7" x2="161.6" y2="186.7"/>
	<text transform="matrix(1 0 0 1 131.6772 166.3276)"><tspan x="0" y="0" fill="#F16369" font-family="'Helvetica'" font-size="8.7969px">Female</tspan><tspan x="29.3" y="0" fill="#F16369" font-family="'Helvetica'" font-size="7.0375px"> </tspan><tspan x="31.3" y="0" fill="#F16369" font-family="'Helvetica'" font-size="9.6766px">59%</tspan></text>
	<text transform="matrix(1 0 0 1 84.3657 166.3276)"><tspan x="0" y="0" fill="#196B78" font-family="'Helvetica'" font-size="8.7969px">Male</tspan><tspan x="19.1" y="0" fill="#196B78" font-family="'Helvetica'" font-size="7.0375px"> </tspan><tspan x="21" y="0" fill="#196B78" font-family="'Helvetica'" font-size="9.6766px">41%</tspan></text>
	<rect x="42.6" y="147" fill="#FFFFFF" stroke="#FFFFFF" stroke-miterlimit="10" width="8.4" height="43.8"/>
	
		<rect x="45.8" y="156.2" transform="matrix(4.494011e-11 -1 1 4.494011e-11 -110.607 227.9465)" fill="none" stroke="#FFFFFF" stroke-miterlimit="10" width="25.8" height="26.1"/>
</g>
<text transform="matrix(1 0 0 1 328.3687 259.6357)" fill="#82321A" font-family="'Helvetica-Light'" font-size="15.4845px">Median Nurse Salary by Ethnicity</text>
<g>
	<path fill="#FFFFFF" d="M420.5,331.7h-91.3c-1.5,0-2.6-1.2-2.6-2.6v-55.8c0-1.5,1.2-2.6,2.6-2.6h91.3c1.5,0,2.6,1.2,2.6,2.6v55.8
		C423.1,330.6,422,331.7,420.5,331.7z"/>
	<text transform="matrix(1 0 0 1 368.3574 304.2397)" fill="#D18957" font-family="'Helvetica-Light'" font-size="9.8257px">Caucasian</text>
	<text transform="matrix(1 0 0 1 361.3145 320.6967)" fill="#D18957" font-family="'Helvetica'" font-size="16.2432px">$70,000</text>
	<g>
		
			<rect x="334.7" y="294.9" fill="#65C7C4" stroke="#000000" stroke-width="0.2" stroke-miterlimit="10" width="22.5" height="30.8"/>
		<path fill="#FFFFFF" d="M351.8,307.1c0,3.2-2.6,5.8-5.9,5.8c-3,0-5.5-2.4-5.8-5.3c0.1,0,3.1-1.7,2.2-3.7c0,0,4.7,1.5,6.5-0.2
			c0,0,0.6,3.1,2.9,2.9C351.8,306.7,351.8,306.9,351.8,307.1z"/>
		<path fill="#82321A" d="M351.8,306.5c-2.3,0.2-2.9-2.9-2.9-2.9c-1.8,1.7-6.5,0.2-6.5,0.2c0.9,2-2.1,3.6-2.2,3.7c0-0.2,0-0.3,0-0.5
			c0-3.2,2.6-5.8,5.9-5.8C349,301.2,351.5,303.5,351.8,306.5z"/>
		<path fill="#ADDBCF" d="M338.4,325.5c0,0,1.6-11.4,7.3-12c0,0,5.8-1.7,7.9,12H338.4z"/>
		<g>
			<circle fill="#ED2426" stroke="#ED2426" stroke-width="0.4" stroke-miterlimit="10" cx="346.5" cy="318.6" r="1.8"/>
			<g>
				
					<rect x="345.2" y="318.3" fill="#FFFFFF" stroke="#FFFFFF" stroke-width="0.4" stroke-miterlimit="10" width="2.7" height="0.3"/>
				
					<rect x="346.3" y="317.4" fill="#FFFFFF" stroke="#FFFFFF" stroke-width="0.4" stroke-miterlimit="10" width="0.4" height="2.5"/>
			</g>
		</g>
	</g>
	<path fill="#F3E5E3" d="M366.8,275.1l15.8,0.1c0,0,6.1,2.2,0.3,4.5h-16.4C366.5,279.7,361.5,277.4,366.8,275.1z"/>
</g>
<g>
	<path fill="#FFFFFF" d="M528.4,331.7h-91.5c-1.5,0-2.6-1.2-2.6-2.6v-56c0-1.5,1.2-2.6,2.6-2.6h91.5c1.5,0,2.6,1.2,2.6,2.6v56
		C531,330.6,529.8,331.7,528.4,331.7z"/>
	<text transform="matrix(1 0 0 1 484.957 304.1591)" fill="#D18957" font-family="'Helvetica-Light'" font-size="9.8257px">Asian</text>
	<text transform="matrix(1 0 0 1 468.5269 320.665)" fill="#D18957" font-family="'Helvetica'" font-size="16.2432px">$61.000</text>
	<g>
		
			<rect x="442.3" y="294.8" fill="#65C7C4" stroke="#000000" stroke-width="0.2" stroke-miterlimit="10" width="22.6" height="30.9"/>
		<g>
			<path fill="#FED49A" d="M459.5,307c0,3.2-2.6,5.8-5.9,5.8c-3.1,0-5.5-2.4-5.8-5.4c0.1,0,3.1-1.7,2.2-3.7c0,0,4.7,1.5,6.5-0.2
				c0,0,0.6,3.1,2.9,2.9C459.5,306.6,459.5,306.8,459.5,307z"/>
			<line fill="none" stroke="#000000" stroke-miterlimit="10" x1="447.8" y1="307.5" x2="447.8" y2="307.5"/>
			<path fill="#82321A" d="M459.4,306.4c-2.3,0.2-2.9-2.9-2.9-2.9c-1.8,1.7-6.5,0.2-6.5,0.2c0.9,2-2.2,3.7-2.2,3.7
				c0-0.2,0-0.3,0-0.5c0-3.2,2.6-5.8,5.9-5.8C456.7,301.1,459.2,303.5,459.4,306.4z"/>
		</g>
		<path fill="#ADDBCF" d="M446,325.5c0,0,1.6-11.4,7.3-12c0,0,5.8-1.8,7.9,12H446z"/>
		<g>
			<circle fill="#ED2426" stroke="#ED2426" stroke-width="0.4" stroke-miterlimit="10" cx="456.2" cy="318.6" r="1.8"/>
			<g>
				
					<rect x="454.8" y="318.3" fill="#FFFFFF" stroke="#FFFFFF" stroke-width="0.4" stroke-miterlimit="10" width="2.7" height="0.3"/>
				<rect x="456" y="317.3" fill="#FFFFFF" stroke="#FFFFFF" stroke-width="0.4" stroke-miterlimit="10" width="0.4" height="2.5"/>
			</g>
		</g>
	</g>
	<path fill="#F3E5E3" d="M474.5,275l15.8,0.1c0,0,6.1,2.2,0.4,4.5h-16.4C474.2,279.6,469.2,277.3,474.5,275z"/>
</g>
<g>
	<path fill="#FFFFFF" d="M638.6,331.9h-90.1c-1.5,0-2.6-1.2-2.6-2.6v-55.1c0-1.5,1.2-2.6,2.6-2.6h90.1c1.5,0,2.6,1.2,2.6,2.6v55.1
		C641.2,330.7,640,331.9,638.6,331.9z"/>
	<text transform="matrix(1 0 0 1 580.1006 320.3071)" fill="#D18957" font-family="'Helvetica'" font-size="16.2432px">$58.000</text>
	<text transform="matrix(1 0 0 1 583.9453 303.4081)" fill="#D18957" font-family="'Helvetica-Light'" font-size="9.8257px">Multi - racial</text>
	<g>
		
			<rect x="555.3" y="294.5" fill="#65C7C4" stroke="#000000" stroke-width="0.2" stroke-miterlimit="10" width="22.3" height="30.4"/>
		<path fill="#ADDBCF" d="M558.6,324.8c0,0,1.6-11.3,7.2-11.8c0,0,5.7-1.7,7.8,11.8H558.6z"/>
		<g>
			<circle fill="#ED2426" stroke="#ED2426" stroke-width="0.4" stroke-miterlimit="10" cx="569.5" cy="318.6" r="1.8"/>
			<g>
				
					<rect x="568.1" y="318.3" fill="#FFFFFF" stroke="#FFFFFF" stroke-width="0.4" stroke-miterlimit="10" width="2.7" height="0.3"/>
				
					<rect x="569.3" y="317.3" fill="#FFFFFF" stroke="#FFFFFF" stroke-width="0.4" stroke-miterlimit="10" width="0.4" height="2.5"/>
			</g>
		</g>
		<line fill="none" stroke="#000000" stroke-miterlimit="10" x1="560.4" y1="307" x2="560.4" y2="307"/>
		<path fill="#F7941E" d="M571.9,306.5c0,3.2-2.6,5.7-5.8,5.7c-3,0-5.5-2.3-5.7-5.3c0.1,0,3.1-1.7,2.2-3.6c0,0,4.6,1.5,6.4-0.2
			c0,0,0.6,3.1,2.8,2.9C571.9,306.1,571.9,306.3,571.9,306.5z"/>
		<path fill="#82321A" d="M571.8,305.9c-2.3,0.2-2.8-2.9-2.8-2.9c-1.8,1.7-6.4,0.2-6.4,0.2c0.9,2-2.1,3.6-2.2,3.6c0-0.2,0-0.3,0-0.5
			c0-3.2,2.6-5.7,5.8-5.7C569.1,300.7,571.6,303,571.8,305.9z"/>
	</g>
	<path fill="#F3E5E3" d="M590.1,275l15.6,0.1c0,0,6,2.1,0.3,4.5h-16.2C589.9,279.5,585,277.2,590.1,275z"/>
</g>
<text transform="matrix(1 0 0 1 328.3691 145.6645)" fill="#82321A" font-family="'Helvetica-Light'" font-size="15.4845px">Percentage of Nurses by Ethnicity</text>
<g>
	<path fill="#FFFFFF" d="M526.8,216H439c-1.5,0-2.6-1.2-2.6-2.6v-53.6c0-1.5,1.2-2.6,2.6-2.6h87.7c1.5,0,2.6,1.2,2.6,2.6v53.6
		C529.4,214.8,528.2,216,526.8,216z"/>
	<g>
		
			<rect x="444.2" y="180.4" fill="#F37D7F" stroke="#000000" stroke-width="0.2" stroke-miterlimit="10" width="21.7" height="29.7"/>
		<circle fill="#FFFFFF" cx="454.7" cy="193.2" r="4.9"/>
		<path fill="#82321A" d="M447.8,190.2c-0.1,0.7,0,1.4,0.1,2.2c0.1,0.7,0.2,1.4,0,2c-0.2,1.3-1,2.9-3.7,1.8c0,0,4,4.5,6.8,0.3
			c0,0-1.8-1.7-1.2-4.4c0,0,3.9,1.4,7.4-3c0,0-0.4,0.5-1.2,1.3c0,0,0.1,2.1,3.4,1.9c0,0,0.3,2.4-1.1,3.9c0,0,2.2,4.6,6.5-0.2
			l-0.9,0.3c-1.4,0.4-2.8-0.6-2.8-2c0,0,0,0,0,0c0-2.6,0.2-7.5-3.1-8.9c-0.7-0.3-2.2-1.1-5.3-0.5
			C450.2,185.4,448.1,187.5,447.8,190.2z"/>
		<g>
			<path fill="#F16369" d="M451.6,184.4c0,0-1.6,1-1.3,1.6l1.1,3c0,0,3-1.6,6.4-0.1l1.1-3c0,0-0.4-0.9-1.4-1.5l0.4,1.2
				c0,0-3.6-0.8-6.7,0.2L451.6,184.4z"/>
			<path fill="#F7C5C1" d="M450.3,186c0,0,4.3-1.9,8.6,0l-1.1,3.1c0,0-2.8-1.5-6.4,0L450.3,186z"/>
			<path fill="#FFFFFF" d="M451.9,185.4c0,0-0.3-1.8,0.6-2c0,0,3.2-0.7,4.5,0.3c0,0,0.2,0,0.2,1.7
				C457.2,185.4,455.3,184.8,451.9,185.4z"/>
			<g>
				<circle fill="#FFFFFF" cx="454.6" cy="184.2" r="0.8"/>
				<g>
					<rect x="454.4" y="183.6" fill="#ED2426" width="0.2" height="1.3"/>
					
						<rect x="454.4" y="183.5" transform="matrix(9.673957e-11 -1 1 9.673957e-11 270.3992 638.7017)" fill="#ED2426" width="0.2" height="1.3"/>
				</g>
			</g>
		</g>
		<path fill="#FABFB7" d="M446.6,210c0,0,1.5-10.7,7.4-11.2c0,0,6.1-1.3,8.3,11.2H446.6z"/>
	</g>
	<text transform="matrix(1 0 0 1 477.6221 187.7587)" fill="#D18957" font-family="'Helvetica-Light'" font-size="9.8257px">Caucasian </text>
	<text transform="matrix(1 0 0 1 480.248 205.3222)" fill="#D18957" font-family="'Helvetica'" font-size="16.2432px">83%</text>
	<path fill="#F3E5E3" d="M475.1,161.4l15.2,0.1c0,0,5.9,2.1,0.3,4.4h-15.8C474.9,165.8,470.1,163.6,475.1,161.4z"/>
</g>
<g>
	<path fill="#FFFFFF" d="M417,216h-87.7c-1.5,0-2.6-1.2-2.6-2.6v-53.6c0-1.5,1.2-2.6,2.6-2.6H417c1.5,0,2.6,1.2,2.6,2.6v53.6
		C419.6,214.8,418.4,216,417,216z"/>
	<g>
		
			<rect x="334.4" y="180.4" fill="#F37D7F" stroke="#000000" stroke-width="0.2" stroke-miterlimit="10" width="21.7" height="29.7"/>
		<g>
			<g>
				<circle fill="#FED49A" cx="344.9" cy="193.2" r="4.9"/>
				<path fill="#82321A" d="M338,190.2c-0.1,0.7,0,1.4,0.1,2.2c0.1,0.7,0.2,1.4,0,2c-0.2,1.3-1,2.9-3.7,1.8c0,0,4,4.5,6.8,0.3
					c0,0-1.8-1.7-1.2-4.4c0,0,3.9,1.4,7.4-3c0,0-0.4,0.5-1.2,1.3c0,0,0.1,2.1,3.4,1.9c0,0,0.3,2.4-1.1,3.9c0,0,2.2,4.6,6.5-0.2
					l-0.9,0.3c-1.4,0.4-2.8-0.6-2.8-2c0,0,0,0,0,0c0-2.6,0.2-7.5-3.1-8.9c-0.7-0.3-2.2-1.1-5.3-0.5
					C340.4,185.4,338.3,187.5,338,190.2z"/>
				<g>
					<path fill="#F16369" d="M341.8,184.4c0,0-1.6,1-1.3,1.6l1.1,3c0,0,3-1.6,6.4-0.1l1.1-3c0,0-0.4-0.9-1.4-1.5l0.4,1.2
						c0,0-3.6-0.8-6.7,0.2L341.8,184.4z"/>
					<path fill="#F7C5C1" d="M340.4,186c0,0,4.3-1.9,8.6,0L348,189c0,0-2.8-1.5-6.4,0L340.4,186z"/>
					<path fill="#FFFFFF" d="M342.1,185.4c0,0-0.3-1.8,0.6-2c0,0,3.2-0.7,4.5,0.3c0,0,0.2,0,0.2,1.7
						C347.4,185.4,345.5,184.8,342.1,185.4z"/>
					<g>
						<circle fill="#FFFFFF" cx="344.7" cy="184.2" r="0.8"/>
						<g>
							<rect x="344.6" y="183.6" fill="#ED2426" width="0.2" height="1.3"/>
							
								<rect x="344.6" y="183.5" transform="matrix(1.099317e-10 -1 1 1.099317e-10 160.5944 528.8969)" fill="#ED2426" width="0.2" height="1.3"/>
						</g>
					</g>
				</g>
			</g>
			<path fill="#FABFB7" d="M336.8,210c0,0,1.5-10.7,7.4-11.2c0,0,6.1-1.3,8.3,11.2H336.8z"/>
		</g>
	</g>
	<text transform="matrix(1 0 0 1 371.6216 187.4331)" fill="#D18957" font-family="'Helvetica-Light'" font-size="9.8257px">Asian </text>
	<text transform="matrix(1 0 0 1 369.7378 205.3217)" fill="#D18957" font-family="'Helvetica'" font-size="16.2432px">6%</text>
	<path fill="#F3E5E3" d="M365.3,161.4l15.2,0.1c0,0,5.9,2.1,0.3,4.4h-15.8C365.1,165.8,360.3,163.6,365.3,161.4z"/>
</g>
<g>
	<path fill="#FFFFFF" d="M637.4,218.5h-87.7c-1.5,0-2.6-1.2-2.6-2.6v-53.6c0-1.5,1.2-2.6,2.6-2.6h87.7c1.5,0,2.6,1.2,2.6,2.6v53.6
		C640.1,217.3,638.9,218.5,637.4,218.5z"/>
	<text transform="matrix(1 0 0 1 590.9014 207.8183)" fill="#D18957" font-family="'Helvetica'" font-size="16.2432px">3%</text>
	<text transform="matrix(1 0 0 1 589.5615 191.9628)" fill="#D18957" font-family="'Helvetica-Light'" font-size="9.8257px">Others</text>
	<g>
		
			<rect x="554.9" y="182.9" fill="#F37D7F" stroke="#000000" stroke-width="0.2" stroke-miterlimit="10" width="21.7" height="29.7"/>
		<circle fill="#F3E5E3" cx="565.3" cy="195.7" r="4.9"/>
		<path fill="#82321A" d="M558.5,192.7c-0.1,0.7,0,1.4,0.1,2.2c0.1,0.7,0.2,1.4,0,2c-0.2,1.3-1,2.9-3.7,1.8c0,0,4,4.5,6.8,0.3
			c0,0-1.8-1.7-1.2-4.4c0,0,3.9,1.4,7.4-3c0,0-0.4,0.5-1.2,1.3c0,0,0.1,2.1,3.4,1.9c0,0,0.3,2.4-1.1,3.9c0,0,2.2,4.6,6.5-0.2
			l-0.9,0.3c-1.4,0.4-2.8-0.6-2.8-2c0,0,0,0,0,0c0-2.6,0.2-7.5-3.1-8.9c-0.7-0.3-2.2-1.1-5.3-0.5C560.8,187.9,558.8,190,558.5,192.7
			z"/>
		<path fill="#F16369" d="M562.2,186.9c0,0-1.6,1-1.3,1.6l1.1,3c0,0,3-1.6,6.4-0.1l1.1-3c0,0-0.4-0.9-1.4-1.5l0.4,1.2
			c0,0-3.6-0.8-6.7,0.2L562.2,186.9z"/>
		<path fill="#F7C5C1" d="M560.9,188.5c0,0,4.3-1.9,8.6,0l-1.1,3.1c0,0-2.8-1.5-6.4,0L560.9,188.5z"/>
		<path fill="#FFFFFF" d="M562.6,187.9c0,0-0.3-1.8,0.6-2c0,0,3.2-0.7,4.5,0.3c0,0,0.2,0,0.2,1.7
			C567.8,187.9,565.9,187.3,562.6,187.9z"/>
		<path fill="#FABFB7" d="M557.2,212.5c0,0,1.5-10.7,7.4-11.2c0,0,6.1-1.3,8.3,11.2H557.2z"/>
	</g>
	<path fill="#F3E5E3" d="M585.7,163.9L601,164c0,0,5.9,2.1,0.3,4.4h-15.8C585.5,168.3,580.7,166.1,585.7,163.9z"/>
</g>
<text transform="matrix(1 0 0 1 331.5815 110.9599)" fill="#F16369" font-family="'Helvetica-Bold'" font-size="13.6739px">Ethnicity</text>
<g>
	<path opacity="0.32" fill="#ADDBCF" d="M70,209.5h38.2c1,0,1.9,0.3,2.7,0.8c4.5,3.2,18.2,14.8-0.2,25.6c-0.7,0.4-1.5,0.6-2.2,0.6
		H69.2c-1.3,0-2.6-0.4-3.7-1.2c-4.3-3.2-13.5-12.5,1.3-24.6C67.7,209.9,68.8,209.5,70,209.5z"/>
	<path opacity="0.6" fill="#ADDBCF" d="M99.2,209.1v27l-32.8,0c0,0-17.7-10.7,0-26.2c0.6-0.5,1.3-0.8,2-0.8L99.2,209.1z"/>
	<text transform="matrix(1 0 0 1 63.3223 227.2641)" fill="#196B78" font-family="'Helvetica'" font-size="10.4271px">$162.900</text>
</g>
<g>
	<path opacity="0.72" fill="#FFFFFF" d="M114.1,203.8v20.1c0,0,3.7,7.1,7.8,0v-20.1H114.1z"/>
	<path fill="#FFFFFF" d="M113.6,201.7h9.1c0,0,2.8,0.8,0,1.8h-9.1C113.6,203.5,110.6,202.7,113.6,201.7z"/>
	<path fill="#ADDBCF" d="M114.1,202.6v21c0,0,2.2,3.9,5,3c0,0-2.3-0.4-2.8-3.2v-19.8h-2.1L114.1,202.6z"/>
	<path fill="none" stroke="#FFFFFF" stroke-miterlimit="10" d="M114.1,203.8v20.1c0,0,3.7,7.1,7.8,0v-20.1H114.1z"/>
	<path fill="#65C7C4" d="M121.9,213.8h-5.7v8.2c0,0-0.7,4.4,2.8,4.6c0,0,2.5-0.5,2.8-4.3V213.8z"/>
	
		<text transform="matrix(1 0 0 1 116.8486 222.8188)" fill="#FFFFFF" font-family="'MinionPro-SemiboldCnDisp'" font-size="10.577px">$</text>
</g>
<rect x="274.7" y="95" fill="#F9DEDA" width="8.9" height="231.2"/>
<g>
	<circle fill="#D18957" cx="288.7" cy="190" r="2.9"/>
	<circle fill="#D18957" cx="288.7" cy="202.3" r="2.9"/>
	<circle fill="#D18957" cx="288.7" cy="213.8" r="2.9"/>
	<circle fill="#D18957" cx="288.7" cy="225.6" r="2.9"/>
	<g>
		<circle fill="#D18957" cx="270" cy="190" r="2.9"/>
		<circle fill="#D18957" cx="270" cy="202.3" r="2.9"/>
		<circle fill="#D18957" cx="270" cy="213.8" r="2.9"/>
		<circle fill="#D18957" cx="270" cy="225.6" r="2.9"/>
		<path fill="none" stroke="#82321A" stroke-miterlimit="10" d="M270,190c0,0,12,3,18.7,0C288.7,190,283.1,192.9,270,190z"/>
		<path fill="none" stroke="#82321A" stroke-miterlimit="10" d="M270,201.7c0,0,12,3,18.7,0C288.7,201.7,283.1,204.6,270,201.7z"/>
		<path fill="none" stroke="#82321A" stroke-miterlimit="10" d="M270,213.1c0,0,12,3,18.7,0C288.7,213.1,283.1,216,270,213.1z"/>
		<path fill="none" stroke="#82321A" stroke-miterlimit="10" d="M270,225.6c0,0,12,3,18.7,0C288.7,225.6,283.1,228.5,270,225.6z"/>
	</g>
</g>
<g>
	<circle fill="#D18957" cx="270" cy="271.2" r="2.9"/>
	<circle fill="#D18957" cx="288.7" cy="271.2" r="2.9"/>
	<circle fill="#D18957" cx="270" cy="283.5" r="2.9"/>
	<circle fill="#D18957" cx="288.7" cy="283.5" r="2.9"/>
	<circle fill="#D18957" cx="270" cy="294.9" r="2.9"/>
	<circle fill="#D18957" cx="288.7" cy="294.9" r="2.9"/>
	<circle fill="#D18957" cx="270" cy="306.7" r="2.9"/>
	<circle fill="#D18957" cx="288.7" cy="306.7" r="2.9"/>
	<path fill="none" stroke="#82321A" stroke-miterlimit="10" d="M270,271.2c0,0,12,3,18.7,0C288.7,271.2,283.1,274.1,270,271.2z"/>
	<path fill="none" stroke="#82321A" stroke-miterlimit="10" d="M270,282.8c0,0,12,3,18.7,0C288.7,282.8,283.1,285.7,270,282.8z"/>
	<path fill="none" stroke="#82321A" stroke-miterlimit="10" d="M270,294.9c0,0,12,3,18.7,0C288.7,294.9,283.1,297.8,270,294.9z"/>
	<path fill="none" stroke="#82321A" stroke-miterlimit="10" d="M270,306.7c0,0,12,3,18.7,0C288.7,306.7,283.1,309.6,270,306.7z"/>
</g>
<g>
	<circle fill="#D18957" cx="270" cy="111.4" r="2.9"/>
	<circle fill="#D18957" cx="288.7" cy="111.4" r="2.9"/>
	<circle fill="#D18957" cx="270" cy="123.7" r="2.9"/>
	<circle fill="#D18957" cx="288.7" cy="123.7" r="2.9"/>
	<circle fill="#D18957" cx="270" cy="135.1" r="2.9"/>
	<circle fill="#D18957" cx="288.7" cy="135.1" r="2.9"/>
	<circle fill="#D18957" cx="270" cy="146.9" r="2.9"/>
	<circle fill="#D18957" cx="288.7" cy="146.9" r="2.9"/>
	<path fill="none" stroke="#82321A" stroke-miterlimit="10" d="M270,111.4c0,0,12,3,18.7,0C288.7,111.4,283.1,114.3,270,111.4z"/>
	<path fill="none" stroke="#82321A" stroke-miterlimit="10" d="M270,123c0,0,12,3,18.7,0C288.7,123,283.1,125.9,270,123z"/>
	<path fill="none" stroke="#82321A" stroke-miterlimit="10" d="M270,135.1c0,0,12,3,18.7,0C288.7,135.1,283.1,138,270,135.1z"/>
	<path fill="none" stroke="#82321A" stroke-miterlimit="10" d="M270,146.9c0,0,12,3,18.7,0C288.7,146.9,283.1,149.8,270,146.9z"/>
</g>
<g>
	<path fill="#65C7C4" d="M392.2,45.2H17.5c-6.6,0-12-5.4-12-12V19.8c0-6.6,5.4-12,12-12h374.6c6.6,0,12,5.4,12,12v13.4
		C404.2,39.8,398.8,45.2,392.2,45.2z"/>
	<g>
		<circle fill="#FFFFFF" cx="32.8" cy="27" r="11.8"/>
		<g>
			<rect x="31.3" y="18.2" fill="#ED2426" width="3" height="19.2"/>
			
				<rect x="31.3" y="16.7" transform="matrix(4.423845e-11 -1 1 4.423845e-11 6.5706 59.1146)" fill="#ED2426" width="3" height="19.2"/>
		</g>
	</g>
	<text transform="matrix(1 0 0 1 55.2793 33.4043)" fill="#FFFFFF" font-family="'Helvetica-Bold'" font-size="17.6602px">Earnings by gender and specialty</text>
</g>
<path fill="#65C7C4" d="M224.3,311.8l-13.1,0.1l-3.9-3.8l-3.6,7.5l-5-11.9l-2.9,21.3L190,306l-3.1,6.1l-10.5,0.1
	c-0.8-1.1-1.5-2.2-2.2-3.4c-4.4-7.3-5.1-17.3-0.4-24.4c4.2-6.3,14-7.6,26,4.3c0,0,17.3-18.7,27.4-2.5
	C231.9,293.7,229,304,224.3,311.8z"/>
<path fill="#F16369" d="M83.1,317.4c-0.3,0.7-0.7,1.4-1,2.1h-9.4l-3.6-2.8l-3.7,9.3l-2.5-10.4l-3.6,7.3l-1.9-6l-0.8,2.3l-8.6,0.2
	c-3.2-5.4-5.1-12.4-1.9-17.6c6.7-11,17.8,2,17.8,2c8.4-8.4,16.2-7.6,19.1-3.2C86.1,305.6,85.4,311.9,83.1,317.4z"/>
<g>
	<text transform="matrix(1 0 0 1 151.8975 311.811)" fill="#196B78" font-family="'Helvetica'" font-size="8.7969px">9%</text>
</g>
<g>
	<text transform="matrix(1 0 0 1 91.0483 318.5854)" fill="#F16369" font-family="'Helvetica'" font-size="8.7969px">91%</text>
</g>
<g>
	<path opacity="0.61" fill="#ADDBCF" d="M227.2,286.2c5,7.9,1.5,19-3.6,26.8c-3.9,6-11.7,14.6-23.5,22.5c0,0-16.5-11.1-25.9-26.7
		c-4.4-7.3-5.1-17.3-0.4-24.4c4.2-6.3,14-7.6,26,4.3C199.7,288.7,217.1,270,227.2,286.2z"/>
	<polyline fill="none" stroke="#FFFFFF" stroke-miterlimit="10" points="224.3,311.7 211.2,311.8 207.3,308 203.7,315.5 
		198.7,303.6 195.8,324.9 190,306 186.8,312.1 142.4,312.3 	"/>
	<path opacity="0.61" fill="#F7C5C1" d="M45.9,301.8c-3.4,5.6-1,13.3,2.6,18.7c2.8,4.2,7.9,10.3,16.2,15.8c0,0,13.4-7.6,18.3-18.9
		c2.3-5.5,3.1-11.8-0.2-16.8c-2.9-4.4-10.8-5.1-19.1,3.2C63.7,303.8,52.6,290.8,45.9,301.8z"/>
	<polyline fill="none" stroke="#FFFFFF" stroke-miterlimit="10" points="47.8,319.4 56.5,319.2 57.3,316.9 59.2,322.9 62.8,315.6 
		65.3,326 69,316.7 72.6,319.5 112.9,319.5 	"/>
	<g>
		<ellipse fill="#FFFFFF" stroke="#FFFFFF" stroke-miterlimit="10" cx="120.7" cy="282.1" rx="3" ry="1.7"/>
		
			<ellipse transform="matrix(0.9994 -3.489950e-02 3.489950e-02 0.9994 -9.7706 4.7035)" fill="#FFFFFF" stroke="#FFFFFF" stroke-miterlimit="10" cx="129.8" cy="282.2" rx="3" ry="1.7"/>
		<path fill="#FFFFFF" stroke="#FFFFFF" stroke-miterlimit="10" d="M117.8,281.5c0,0-7.1,2.2-8.7,8v16.7h2v-15.6
			c0,0,0.9-4.8,6.7-7.1V281.5z"/>
		<path fill="#FFFFFF" stroke="#FFFFFF" stroke-miterlimit="10" d="M132.8,281.6c0,0,7.1,2,9,7.7l0.6,17h-2.1l-0.5-15.8
			c0,0-1.1-4.8-6.9-6.8L132.8,281.6z"/>
		<path fill="#FFFFFF" d="M125.5,326.8v6.5c0,0,2.3,2.5,8.7,2.1c0,0,5.2-0.3,6.3-2.1l0-11.7c0,0,4.3-3.1,9.7-0.1v2.5l1.7,0.1v-3.2
			c0,0-5.8-4.4-12.7-0.2V332c0,0-6.1,3.9-12.1,0.1v-5.4C127.2,326.7,126.2,326.8,125.5,326.8z"/>
		<ellipse fill="none" stroke="#FFFFFF" stroke-miterlimit="10" cx="151.1" cy="326.5" rx="3.1" ry="2.2"/>
		<ellipse fill="none" stroke="#FFFFFF" stroke-miterlimit="10" cx="151.1" cy="326.4" rx="1.7" ry="1.2"/>
		<path fill="#F16369" d="M108.1,306.7h4.4c0,0-2.5,10,9.1,14.2h8.3c0,0,10.1-3.2,9.5-14.2h3.6c0,0,1.6,12.4-11.8,17.9h-10.4
			C120.7,324.6,108.8,322.9,108.1,306.7z"/>
		<path fill="#FFFFFF" d="M121.5,320.9h8.3l1.3,3.7c0,0-5.2,4.3-10.4,0L121.5,320.9z"/>
	</g>
</g>
<path fill="#65C7C4" d="M139.3,306.8h3.6c0,0,0.4,2.7-0.5,5.5l-3.7-0.5C138.8,311.8,139.5,309.3,139.3,306.8z"/>
<text transform="matrix(1 0 0 1 173.7588 300.5395)" fill="#196B78" font-family="'Helvetica'" font-size="13.6974px">$ 96,400</text>
<text transform="matrix(1 0 0 1 49.3945 313.2455)" fill="#9B1C1F" font-family="'Helvetica'" font-size="8.7969px">$83,868</text>
</svg>
