<?xml version="1.0" encoding="utf-8"?>
<!-- Generator: Adobe Illustrator 19.2.1, SVG Export Plug-In . SVG Version: 6.00 Build 0)  -->
<svg version="1.1" id="hook" xmlns="http://www.w3.org/2000/svg" xmlns:xlink="http://www.w3.org/1999/xlink" x="0px" y="0px"
	 viewBox="0 0 750 550" enable-background="new 0 0 750 550" xml:space="preserve">
<g>
	<path opacity="0.79" fill="#F3E5E3" d="M79.7,99.1c0,0,175.1,47.3,314.8,37.3V131l7.7,1.8v10.8H427l9.6,4.6h24.9l-10.5,5.7
		c0,0-12.4,12.3-15.3,14.2c-2.9,1.8-3.8,5.7-3.8,5.7h8.6l2.9-5.7h4.8l1,5.7h6.7l5.7-5.7l16.3-14.2h10.5l-9.6,14.2h9.6
		c0,0,13.4,6.6,27.7-7.1v7.1h7.7l9.6,5.7h-9.6l1,7.9h8.6l8.8,4c0,0,4.6,12.3,2.6,14.9c-2.1,2.6-6.5,8.1-6.5,8.1l2.8,4.6l6.5-8.3
		l5.8-1.1l5.3,13v5c0,0-10.5,15.6-9.1,17.8s7.2,2.4,7.2,2.4h17l3.9-4.6c0,0,29.5-17.6,28.3-23.5l-3.5-5.3l1.9-2.9l24.2-2.9l6.3-6.8
		l1.2-14.5l10.7-12.1l8.4-3.7l29.7-7l0.9-3.7l3.5-2.6l4.9-7.2v-10.3c0,0,4.2-18.7,3.7-20.2c-0.5-1.5,7.9,0,7.9,0l6.5-2.6l5.8,2
		l4.2,5.3l1.9,10.1l9.8,10.5l4.6,1.3l2.6,5l-10,9.4l-6.3-0.4l-4.9,3.7v6.4l-8.1,5.1l-5.6,13.5l-0.7,5.5l2.6,3.3l-0.2,5l5.8,5
		l4.9,1.3l-0.7,4h-9.5l-2.6,4.4l-5.1,2l-2.1,3.1c0,0-18.4,4-16.7,9l3.9,0.7l4.2-4l7.9-0.9l-10,8.8l-7.4,0.9l-5.3,3.1l3,3.7
		l-1.4,14.7l-5.3,9.4l-3-4H665l-6-3.5l3.3,14.7l9.1-1.5l-0.9,8.8h-7.4l-5.8-3.1l-0.9-8.8l-2.1-3.7l2.1-2.2l-1.4-3.7l-7.4,6.6l2.8,4
		l2.6,9.4l-10.9,2.4h11.2l5.1,5.5l3.7,14.5h5.1l0.2,4l1.6,3.5l-5.1,7.2h8.8l0.7,2.9l-2.8,5h-8.4v9.4c0,0-2.3,4.6-4.6,5.3
		c-2.3,0.7-7.7,12.7-7.7,12.7s-11.6,4.6-11.6,6.6c0,2-3.7,9.9-3.7,9.9s-8.8,11.2-12.1,11.4c-3.3,0.2-7.7,1.5-7.7,1.5l-0.9,6.1
		l0.9,4.4l-3.5,3.3c0,0-0.2,14-1.6,15.8l13.5,23.7l5.1,5.7l0.1,6l16,19.4c0,0,5.4,26.7-0.7,30.3s-6.1,3.6-6.1,3.6l-7-9.8l-7.7-0.9
		l-8.3-12.8l-7.4-3l-3.4-7.3l1.6-6.8l-4.7-1.3l-1.1-10.7l-2.5-5.8l-6.3-0.9l-11.7-11.9l-9.5-0.4l-6.3,5.8l-5.2,0.4l-9.5-5.1
		c0,0-10.6-6.4-20.3-1.9l-6.1-2.8l-3.2,5.8l-5-4.3l-1.8,3.4l-12.6,0.9l-8.6,2.3l-5,6.2l8.1-0.9l1.4,1.9l-4.5,1.9l0.2,2.6l8.3,4.5
		l1.1,2.8l-7,0.9l-8.3-6.8l-0.9,8.1l-4.7-3.2l-4.7,3.2l-4.5-0.4l-9.7-8.3H453l-1.8,3l-8.1,0.2l-9.9-5.1l-16.7,7.7l-4.3-1.9l-1.8,0.6
		l-1.5,5.8l-14.4,9.8l-9.3-1.3l0.5,5.1c0,0-6.5,2.6-8.3,3.4s-0.5,3-0.5,3l-5.4,4.5l1.1,4.9l-3.6,2.6l0.7,8.7l2,6l1.4,7.9h-6.1
		l-13.8-5.1l-9.7-9.6l-1.8-8.7l-14.7-17.7l-3.6-12.4l-8.1-6.8l-15.6-4.9c0,0-7.7,1.3-13.5,13.4l-12.2-6.2l-7.9-7.7v-9.2l-4.7-7.9
		l-8.3-2.3L240,405.7l-25.5-1.7l-0.2,5.8l-41.7-2.3l-52.1-27.3l0.5-5.8L86.1,372l-0.7-8.5L78,351.1h-7.7v-4.1l-7.4-2.8l-1.4-6
		l-15.8-3.8l-2.7-3.8l3.2-4.5l-3.2-4.7l1.8-4.1l-5-5.3V304l-6.1-4.7v-1.7l4.1-4.7l-5.2-4.5l-2.7-7.5l1.8-3l7.9,4.3l-4.7-11.1l-5,2.1
		l-2.5-2.6l1.6-3.8l-6.5-8.5v-19.4l-3.4-5.5v-4.3l5.6-4.1l3.6-7l1.8-28.4l8.3-7.7l15.3-36.7l-0.7-5.8l3.6-5.3l-2.5-4.7l1.4-24.3
		l11.7,7.7l5.2-0.6l7.2,8.7l-0.9-10l2.5-1.5L79.7,99.1z"/>
	<path opacity="0.79" fill="#F3E5E3" d="M233,447.5l26.3,4.4l9.8,42.8l4.8,1.8l9.6-1.6l18.7,14.5c0,0,2.2,6-7.2,3.2l-25.3-15.1
		l-9,0.2c0,0-5.8-7-10.3,4.4c0,0-2,3-9.2,4c0,0-8,7.4-13.3,13.7c0,0-12.5,9.6-17.3,8.2c0,0-4-4.8,16.1-12.5l3.4-3.2l0.4-5.8
		l-1.4-1.2l-3.8,2.2h-5l-1.6-2.4l-0.8-3.2l-4.2-1l-3.5-7c0,0,1.7-5.6,3.1-6.1c1.4-0.5,3,0,3,0l5.4-3.1l1.6-3l-0.8-1.6l-9.6-1.2
		c0,0-3.6-4-1-8l2.4-0.8l3.4,2h3l1.6-3.6l-5-3.4l-0.6-6.4l-0.8-1.8L233,447.5z"/>
</g>
<g>
	<path fill="#F37D7F" d="M244.6,316.7l17.7-78.9c0,0,3.6-11.4,17.1-11.8c13.5-0.4,39.7,0,39.7,0s12.9,2.9,15.5,13.6
		c2.6,10.7,16.2,77,16.2,77s-1.1,15.9-14,5.9L326,262.9h-2.3l18.6,100.9h-20.5v66.1c0,0-8.7,20.9-21.2,1.1v-67.4h-3v67.6
		c0,0-11.5,20.5-22.7,0.7v-68.1H254l19.5-100.9h-2.2l-11.9,57.2C259.4,320.1,247.6,336.8,244.6,316.7z"/>
	<g>
		<path fill="#9B1C1F" d="M292.2,155.8c0,0-31.7-9.3-30.6,53.1c0,0,0,2.8-5.4,3.4c0,0,18.4,17,29.7,8.5v-5.1l-13.6-26l23.2-19.3
			l19.8,13.6c0,0,1.7,20.4-12.5,30.6l1.7,6.2c0,0,23.3,3.4,28.9-9.1l-5.7-1.7C327.9,210,335.8,149.8,292.2,155.8z"/>
		<path fill="#FFFFFF" d="M295.6,170.3l-23.2,19.3l13.6,26c0,0,11.2,4.6,17-1.1c5.8-5.8,10.7-9.4,12.5-30.6L295.6,170.3z"/>
	</g>
	<g>
		<path fill="#F7C5C1" d="M261.2,141.5c0,0,15.7,23.8,16.3,24.7c0.7,0.9,15.9-12.1,34.4,0l18.1-24.5
			C330.1,141.7,301,120.7,261.2,141.5z"/>
		<g>
			<circle fill="#ED2426" stroke="#ED2426" stroke-miterlimit="10" cx="296.3" cy="146.9" r="9.3"/>
			<g>
				<rect x="289.3" y="145.3" fill="#FFFFFF" stroke="#FFFFFF" stroke-miterlimit="10" width="14" height="1.6"/>
				<rect x="295.4" y="140.4" fill="#FFFFFF" stroke="#FFFFFF" stroke-miterlimit="10" width="2.1" height="13"/>
			</g>
		</g>
	</g>
</g>
<path fill="none" stroke="#F16369" stroke-width="1.5" stroke-miterlimit="10" d="M375.8,252"/>
<path fill="none" stroke="#F16369" stroke-width="1.5" stroke-miterlimit="10" d="M275.1,309.2"/>
<g>
	<g>
		<g>
			<line fill="none" stroke="#F16369" stroke-miterlimit="10" x1="144.8" y1="316.1" x2="145.8" y2="316.1"/>
			
				<line fill="none" stroke="#F16369" stroke-miterlimit="10" stroke-dasharray="1.9582,1.9582" x1="147.8" y1="316.1" x2="232.9" y2="316.1"/>
			<line fill="none" stroke="#F16369" stroke-miterlimit="10" x1="233.9" y1="316.1" x2="234.9" y2="316.1"/>
		</g>
	</g>
	<g>
		<g>
			<line fill="none" stroke="#F16369" stroke-miterlimit="10" x1="95.7" y1="340.6" x2="96.7" y2="340.6"/>
			
				<line fill="none" stroke="#F16369" stroke-miterlimit="10" stroke-dasharray="1.9817,1.9817" x1="98.7" y1="340.6" x2="228.5" y2="340.6"/>
			<line fill="none" stroke="#F16369" stroke-miterlimit="10" x1="229.5" y1="340.6" x2="230.5" y2="340.6"/>
		</g>
	</g>
	<g>
		<g>
			<line fill="none" stroke="#F16369" stroke-miterlimit="10" x1="134.3" y1="367.3" x2="135.3" y2="367.3"/>
			
				<line fill="none" stroke="#F16369" stroke-miterlimit="10" stroke-dasharray="2.0063,2.0063" x1="137.3" y1="367.3" x2="240.7" y2="367.3"/>
			<line fill="none" stroke="#F16369" stroke-miterlimit="10" x1="241.7" y1="367.3" x2="242.7" y2="367.3"/>
		</g>
	</g>
	<text transform="matrix(1 0 0 1 166.7397 338.7455)" fill="#F16369" font-family="'Helvetica-Bold'" font-size="21px">35</text>
	<text transform="matrix(1 0 0 1 66.2275 363.6487)"><tspan x="0" y="0" fill="#9B1C1F" font-family="'Helvetica-Bold'" font-size="13.326px"> </tspan><tspan x="3.7" y="0" fill="#F16369" font-family="'Helvetica-Bold'" font-size="21px">$51,00</tspan></text>
	<text transform="matrix(1 0 0 1 101.9582 311.6395)"><tspan x="0" y="0" fill="#F16369" font-family="'Helvetica-Bold'" font-size="32px">3.2 </tspan><tspan x="53.4" y="0" fill="#9B1C1F" font-family="'MyriadPro-Semibold'" font-size="13.326px"> </tspan></text>
	<text transform="matrix(1 0 0 1 143.8457 311.6393)"><tspan x="0" y="0" fill="#9B1C1F" font-family="'StoneInformalStd-Semibold'" font-size="13.326px"> </tspan><tspan x="3.8" y="0" fill="#9B1C1F" font-family="'Helvetica'" font-size="13px">Million Females</tspan></text>
	<text transform="matrix(1 0 0 1 94.6379 336.3765)" fill="#9B1C1F" font-family="'Helvetica'" font-size="13px">Median age</text>
	<text transform="matrix(1 0 0 1 136.8354 362.905)" fill="#9B1C1F" font-family="'Helvetica'" font-size="13px">Median Earnings</text>
</g>
<g>
	<g>
		<g>
			<line fill="none" stroke="#196B78" stroke-miterlimit="10" x1="487.9" y1="341.2" x2="488.9" y2="341.2"/>
			
				<line fill="none" stroke="#196B78" stroke-miterlimit="10" stroke-dasharray="1.9889,1.9889" x1="490.9" y1="341.2" x2="621.2" y2="341.2"/>
			<line fill="none" stroke="#196B78" stroke-miterlimit="10" x1="622.2" y1="341.2" x2="623.2" y2="341.2"/>
		</g>
	</g>
	<g>
		<g>
			<line fill="none" stroke="#196B78" stroke-miterlimit="10" x1="470" y1="367.5" x2="471" y2="367.5"/>
			
				<line fill="none" stroke="#196B78" stroke-miterlimit="10" stroke-dasharray="2.0312,2.0312" x1="473" y1="367.5" x2="573.6" y2="367.5"/>
			<line fill="none" stroke="#196B78" stroke-miterlimit="10" x1="574.6" y1="367.5" x2="575.6" y2="367.5"/>
		</g>
	</g>
	<text transform="matrix(1 0 0 1 491.6747 362.3034)" fill="#9B1C1F" font-family="'Helvetica'" font-size="13px">Median Earnings</text>
	<text transform="matrix(1 0 0 1 533.0487 336.7107)"><tspan x="0" y="0" fill="#9B1C1F" font-family="'Helvetica'" font-size="13px">Median age</tspan><tspan x="67.9" y="0" fill="#9B1C1F" font-family="'MyriadPro-Semibold'" font-size="13.326px"> </tspan></text>
	<g>
		<g>
			<line fill="none" stroke="#196B78" stroke-miterlimit="10" x1="487.9" y1="315" x2="488.9" y2="315"/>
			
				<line fill="none" stroke="#196B78" stroke-miterlimit="10" stroke-dasharray="1.994,1.994" x1="490.9" y1="315" x2="601.6" y2="315"/>
			<line fill="none" stroke="#196B78" stroke-miterlimit="10" x1="602.6" y1="315" x2="603.6" y2="315"/>
		</g>
	</g>
	<text transform="matrix(1 0 0 1 605.0338 336.7108)" fill="#196B78" font-family="'Helvetica-Bold'" font-size="21px">31</text>
	<text transform="matrix(1 0 0 1 588.307 365.4179)" fill="#196B78" font-family="'Helvetica-Bold'" font-size="21px"> $60,700</text>
	<text transform="matrix(1 0 0 1 492.4896 309.8709)"><tspan x="0" y="0" fill="#196B78" font-family="'Helvetica-Bold'" font-size="32px">330,000</tspan><tspan x="115.7" y="0" fill="#9B1C1F" font-family="'MyriadPro-Semibold'" font-size="21px"> </tspan></text>
	<text transform="matrix(1 0 0 1 608.6344 309.8706)" fill="#9B1C1F" font-family="'Helvetica'" font-size="13px">Males</text>
</g>
<g>
	<g>
		<path fill="#FFFFFF" d="M411.7,161.9l2.5,29.8l11.7,13.4c0,0,8.7,6.8,17.5,0l9-10.3l3.8-33.3c0,0-0.4-11.1-17.2-12.1
			C422.1,148.3,412.8,150.6,411.7,161.9z"/>
		<path fill="#82321A" d="M408.5,157.1l2.6-3.5h1.7l-2.2-4.2l0.5-6.5l4.9-4.9l-1.4,5.2l4.1-6.5l4.4-3.5l3.7,2.4l2.8-3.2l7.6-0.8
			l3.4,2.5l4.1,6.1l-0.6-3.3l12.8,12.4c0,0-0.2,10.8-0.8,13.5c0,0-2.6-7.4-8.8-5.1c0,0-12.4,3.1-14.6,2.8
			c-2.2-0.3-16.4-3.2-16.4-3.2s-3.4,0.6-4.6,6c0,0-1-3.5-0.5-6.7l-1.8,2.2L408.5,157.1z"/>
	</g>
	<g>
		<path fill="#65C7C4" d="M391.1,321.9v-91.5c0,0,2-16.5,16.3-16.5c14.3,0,52.7,0,52.7,0s16,3,17.3,16c1.3,13,0,92,0,92
			s-6.3,10.8-15.3,0v-75.2h-2.3v186.8c0,0-11.3,21.3-23.3,1.5v-98h-3v97.5c0,0-12.3,21.3-23.8,0.3v-188h-2.5l0,74.7
			C407.2,321.4,399.9,337.4,391.1,321.9z"/>
		<g>
			<path fill="none" stroke="#FFFFFF" stroke-width="2" stroke-miterlimit="10" d="M447.3,214.4c0,0,12.6,9.3,5.4,24.1
				C452.7,238.4,459.7,225.8,447.3,214.4z"/>
			<ellipse fill="none" stroke="#FFFFFF" stroke-width="2" stroke-miterlimit="10" cx="449.4" cy="243.1" rx="5.9" ry="5.6"/>
		</g>
		<g>
			<path fill="none" stroke="#FFFFFF" stroke-width="2" stroke-miterlimit="10" d="M419.8,214.4c0,0-10,18.1-4.2,30.1
				c0,0-4.4,9.4,1.2,21.3"/>
			<path fill="none" stroke="#FFFFFF" stroke-width="2" stroke-miterlimit="10" d="M415.6,244.5c0,0,10-4.9,17.1,13.9"/>
			
				<ellipse transform="matrix(0.2022 -0.9794 0.9794 0.2022 89.4305 628.7803)" fill="none" stroke="#FFFFFF" stroke-width="2" stroke-miterlimit="10" cx="430.6" cy="259.5" rx="2.8" ry="2.1"/>
			
				<ellipse transform="matrix(0.9967 -8.073521e-02 8.073521e-02 0.9967 -19.991 34.6751)" fill="none" stroke="#FFFFFF" stroke-width="2" stroke-miterlimit="10" cx="418.8" cy="264.5" rx="2.5" ry="1.8"/>
		</g>
	</g>
</g>
<text transform="matrix(1 0 0 1 67.1738 66.0852)"><tspan x="0" y="0" fill="#196B78" font-family="'Helvetica-Bold'" font-size="73px">The </tspan><tspan x="150.1" y="0" fill="#ED1C24" font-family="'Helvetica-Bold'" font-size="73px">Modern </tspan><tspan x="433.9" y="0" fill="#196B78" font-family="'Helvetica-Bold'" font-size="73px">Nurse</tspan></text>
<rect x="201.6" y="81.3" fill="none" width="341" height="44"/>
<text transform="matrix(1 0 0 1 267.092 94.5569)"><tspan x="0" y="0" fill="#196B78" font-family="'StoneInformalStd-MediumItal'" font-size="18px">Exploring Today’s Diversity </tspan><tspan x="7.2" y="21.6" fill="#196B78" font-family="'StoneInformalStd-MediumItal'" font-size="18px">in the Nursing Profession</tspan></text>
</svg>
