<?xml version="1.0" encoding="utf-8"?>
<!-- Generator: Adobe Illustrator 19.2.1, SVG Export Plug-In . SVG Version: 6.00 Build 0)  -->
<svg version="1.1" id="hook" xmlns="http://www.w3.org/2000/svg" xmlns:xlink="http://www.w3.org/1999/xlink" x="0px" y="0px"
	 viewBox="0 0 750 510" enable-background="new 0 0 750 510" xml:space="preserve">
<g>
	<path opacity="0.79" fill="#F3E5E3" d="M97.3,99c0,0,163.1,44,293.2,34.8v-5.1l7.1,1.7v10.1h23.2l8.9,4.3h23.2l-9.8,5.3
		c0,0-11.6,11.5-14.3,13.2c-2.7,1.7-3.6,5.3-3.6,5.3h8l2.7-5.3h4.5l0.9,5.3h6.2l5.3-5.3L468,150h9.8l-8.9,13.2h8.9
		c0,0,12.5,6.2,25.8-6.6v6.6h7.1l8.9,5.3h-8.9l0.9,7.4h8l8.2,3.8c0,0,4.3,11.5,2.4,13.9c-1.9,2.5-6.1,7.6-6.1,7.6l2.6,4.3l6.1-7.8
		l5.4-1l5,12.1v4.7c0,0-9.7,14.5-8.4,16.6c1.3,2,6.7,2.2,6.7,2.2h15.8l3.7-4.3c0,0,27.5-16.4,26.4-21.9l-3.2-4.9l1.7-2.7l22.5-2.7
		l5.8-6.3l1.1-13.5l10-11.2l7.8-3.5l27.7-6.5l0.9-3.5l3.2-2.5l4.5-6.7v-9.6c0,0,3.9-17.4,3.5-18.8c-0.4-1.4,7.4,0,7.4,0l6.1-2.5
		l5.4,1.8l3.9,4.9l1.7,9.4l9.1,9.8l4.3,1.2l2.4,4.7l-9.3,8.8l-5.8-0.4l-4.5,3.5v5.9l-7.6,4.8l-5.2,12.6l-0.6,5.1l2.4,3.1l-0.2,4.7
		l5.4,4.7l4.5,1.2l-0.6,3.7h-8.9l-2.4,4.1l-4.8,1.8l-1.9,2.9c0,0-17.1,3.7-15.6,8.4l3.7,0.6l3.9-3.7l7.4-0.8l-9.3,8.2l-6.9,0.8
		l-5,2.9l2.8,3.5l-1.3,13.7l-5,8.8l-2.8-3.7h-3l-5.6-3.3l3,13.7l8.4-1.4l-0.9,8.2h-6.9l-5.4-2.9l-0.9-8.2l-1.9-3.5l1.9-2l-1.3-3.5
		l-6.9,6.1l2.6,3.7l2.4,8.8l-10.2,2.2h10.4l4.8,5.1l3.5,13.5h4.8l0.2,3.7l1.5,3.3l-4.8,6.7h8.2l0.6,2.7l-2.6,4.7h-7.8v8.8
		c0,0-2.2,4.3-4.3,4.9c-2.2,0.6-7.1,11.9-7.1,11.9s-10.8,4.3-10.8,6.1s-3.5,9.2-3.5,9.2s-8.2,10.4-11.3,10.6c-3,0.2-7.1,1.4-7.1,1.4
		l-0.9,5.7l0.9,4.1l-3.2,3.1c0,0-0.2,13.1-1.5,14.7l12.6,22.1l4.8,5.3l0.1,5.6l14.9,18.1c0,0,5,24.8-0.6,28.2
		c-5.7,3.4-5.7,3.4-5.7,3.4l-6.5-9.1l-7.1-0.8l-7.8-11.9l-6.9-2.8l-3.2-6.8l1.5-6.4l-4.4-1.2l-1.1-9.9l-2.3-5.4L573,414l-10.9-11.1
		l-8.8-0.4l-5.9,5.4l-4.8,0.4l-8.8-4.8c0,0-9.9-6-18.9-1.8l-5.7-2.6l-2.9,5.4l-4.6-4l-1.7,3.2l-11.8,0.8l-8,2.2l-4.6,5.8l7.6-0.8
		l1.3,1.8l-4.2,1.8l0.2,2.4l7.8,4.2l1.1,2.6l-6.5,0.8l-7.8-6.4l-0.8,7.5l-4.4-3l-4.4,3l-4.2-0.4l-9-7.7H445l-1.7,2.8l-7.6,0.2
		l-9.2-4.8l-15.6,7.2l-4-1.8l-1.7,0.6l-1.4,5.4l-13.5,9.1l-8.6-1.2l0.4,4.8c0,0-6.1,2.4-7.8,3.2c-1.7,0.8-0.4,2.8-0.4,2.8l-5,4.2
		l1.1,4.6l-3.4,2.4l0.6,8.1l1.9,5.6l1.3,7.3h-5.7l-12.8-4.8l-9-8.9l-1.7-8.1l-13.7-16.5l-3.4-11.5l-7.6-6.4l-14.5-4.6
		c0,0-7.1,1.2-12.6,12.5l-11.4-5.8l-7.4-7.2v-8.5l-4.4-7.3l-7.8-2.2l-12-14.7l-23.8-1.6l-0.2,5.4l-38.9-2.2l-48.6-25.4l0.4-5.4
		l-32.4-2.2l-0.6-7.9l-6.9-11.5h-7.1v-3.8l-6.9-2.6l-1.3-5.6l-14.7-3.6l-2.5-3.6l2.9-4.2l-2.9-4.4l1.7-3.8l-4.6-5v-7.5l-5.7-4.4
		v-1.6l3.8-4.4l-4.8-4.2l-2.5-7l1.7-2.8l7.4,4l-4.4-10.3l-4.6,2l-2.3-2.4l1.5-3.6l-6.1-7.9v-18.1l-3.2-5.2v-4l5.3-3.8l3.4-6.6
		l1.7-26.4l7.8-7.2L73.2,142l-0.6-5.4l3.4-5l-2.3-4.4l1.3-22.6l10.9,7.2l4.8-0.6l6.7,8.1l-0.8-9.3l2.3-1.4L97.3,99z"/>
	<path opacity="0.79" fill="#F3E5E3" d="M240.1,423.5l24.5,4.1l9.1,39.9l4.4,1.7l8.9-1.5l17.4,13.5c0,0,2,5.6-6.7,3L274.2,470
		l-8.3,0.2c0,0-5.4-6.5-9.6,4.1c0,0-1.9,2.8-8.5,3.7c0,0-7.4,6.9-12.4,12.8c0,0-11.7,8.9-16.1,7.6c0,0-3.7-4.4,15-11.7l3.2-3
		l0.4-5.4l-1.3-1.1l-3.5,2h-4.6l-1.5-2.2l-0.7-3l-3.9-0.9l-3.3-6.5c0,0,1.6-5.2,2.9-5.7c1.3-0.4,2.8,0,2.8,0l5-2.8l1.5-2.8l-0.7-1.5
		l-8.9-1.1c0,0-3.3-3.7-0.9-7.4l2.2-0.7l3.2,1.9h2.8l1.5-3.3l-4.6-3.2l-0.6-5.9l-0.7-1.7L240.1,423.5z"/>
</g>
<g>
	<path fill="#F37D7F" d="M248.9,317.9L267,237c0,0,3.7-11.7,17.5-12.1c13.8-0.4,40.7,0,40.7,0s13.2,3,15.9,14s16.6,79,16.6,79
		s-1.1,16.2-14.4,6l-11-61.2H330L349,366.2h-21v67.7c0,0-9,21.4-21.7,1.1v-69.1h-3v69.3c0,0-11.8,21-23.3,0.7v-69.8h-21.4l20-103.5
		h-2.2l-12.2,58.6C264.1,321.3,252,338.5,248.9,317.9z"/>
	<g>
		<path fill="#9B1C1F" d="M297.7,153c0,0-32.5-9.5-31.4,54.4c0,0,0,2.9-5.5,3.5c0,0,18.9,17.4,30.5,8.7v-5.2l-13.9-26.7l23.8-19.8
			l20.3,13.9c0,0,1.7,20.9-12.8,31.4l1.7,6.4c0,0,23.8,3.5,29.6-9.3l-5.8-1.7C334.3,208.6,342.4,146.8,297.7,153z"/>
		<path fill="#FFFFFF" d="M301.2,167.9l-23.8,19.8l13.9,26.7c0,0,11.5,4.7,17.4-1.2c5.9-5.9,11-9.6,12.8-31.4L301.2,167.9z"/>
	</g>
	<g>
		<path fill="#F7C5C1" d="M266,138.3c0,0,16.1,24.4,16.7,25.3c0.7,0.9,16.3-12.4,35.2,0l18.6-25.1C336.5,138.5,306.7,117,266,138.3z
			"/>
		<g>
			<circle fill="#ED2426" stroke="#ED2426" stroke-miterlimit="10" cx="301.9" cy="143.8" r="9.5"/>
			<g>
				<rect x="294.8" y="142.2" fill="#FFFFFF" stroke="#FFFFFF" stroke-miterlimit="10" width="14.3" height="1.6"/>
				<rect x="300.9" y="137.2" fill="#FFFFFF" stroke="#FFFFFF" stroke-miterlimit="10" width="2.1" height="13.3"/>
			</g>
		</g>
	</g>
</g>
<path fill="none" stroke="#F16369" stroke-width="1.5" stroke-miterlimit="10" d="M375.8,250.9"/>
<path fill="none" stroke="#F16369" stroke-width="1.5" stroke-miterlimit="10" d="M275.1,308"/>
<g>
	<g>
		<g>
			<line fill="none" stroke="#F16369" stroke-miterlimit="10" x1="144.8" y1="314.9" x2="145.8" y2="314.9"/>
			
				<line fill="none" stroke="#F16369" stroke-miterlimit="10" stroke-dasharray="1.9582,1.9582" x1="147.8" y1="314.9" x2="232.9" y2="314.9"/>
			<line fill="none" stroke="#F16369" stroke-miterlimit="10" x1="233.9" y1="314.9" x2="234.9" y2="314.9"/>
		</g>
	</g>
	<g>
		<g>
			<line fill="none" stroke="#F16369" stroke-miterlimit="10" x1="95.7" y1="339.5" x2="96.7" y2="339.5"/>
			
				<line fill="none" stroke="#F16369" stroke-miterlimit="10" stroke-dasharray="1.9817,1.9817" x1="98.7" y1="339.5" x2="228.5" y2="339.5"/>
			<line fill="none" stroke="#F16369" stroke-miterlimit="10" x1="229.5" y1="339.5" x2="230.5" y2="339.5"/>
		</g>
	</g>
	<g>
		<g>
			<line fill="none" stroke="#F16369" stroke-miterlimit="10" x1="134.3" y1="366.1" x2="135.3" y2="366.1"/>
			
				<line fill="none" stroke="#F16369" stroke-miterlimit="10" stroke-dasharray="2.0063,2.0063" x1="137.3" y1="366.1" x2="240.7" y2="366.1"/>
			<line fill="none" stroke="#F16369" stroke-miterlimit="10" x1="241.7" y1="366.1" x2="242.7" y2="366.1"/>
		</g>
	</g>
	<text transform="matrix(1 0 0 1 166.7397 337.6104)" fill="#F16369" font-family="'Helvetica-Bold'" font-size="21px">35</text>
	<text transform="matrix(1 0 0 1 66.2275 362.5135)"><tspan x="0" y="0" fill="#9B1C1F" font-family="'Helvetica-Bold'" font-size="13.326px"> </tspan><tspan x="3.7" y="0" fill="#F16369" font-family="'Helvetica-Bold'" font-size="21px">$51,00</tspan></text>
	<text transform="matrix(1 0 0 1 101.9582 310.5044)"><tspan x="0" y="0" fill="#F16369" font-family="'Helvetica-Bold'" font-size="32px">3.2 </tspan><tspan x="53.4" y="0" fill="#9B1C1F" font-family="'MyriadPro-Semibold'" font-size="13.326px"> </tspan></text>
	<text transform="matrix(1 0 0 1 143.8457 310.5042)"><tspan x="0" y="0" fill="#9B1C1F" font-family="'StoneInformalStd-Semibold'" font-size="13.326px"> </tspan><tspan x="3.8" y="0" fill="#9B1C1F" font-family="'Helvetica'" font-size="13px">Million Females</tspan></text>
	<text transform="matrix(1 0 0 1 94.6379 335.2413)" fill="#9B1C1F" font-family="'Helvetica'" font-size="13px">Median age</text>
	<text transform="matrix(1 0 0 1 136.8354 361.7699)" fill="#9B1C1F" font-family="'Helvetica'" font-size="13px">Median Earnings</text>
</g>
<g>
	<g>
		<line fill="none" stroke="#196B78" stroke-miterlimit="10" x1="487.9" y1="340.1" x2="488.9" y2="340.1"/>
		
			<line fill="none" stroke="#196B78" stroke-miterlimit="10" stroke-dasharray="2.002,2.002" x1="490.9" y1="340.1" x2="582" y2="340.1"/>
		<line fill="none" stroke="#196B78" stroke-miterlimit="10" x1="583" y1="340.1" x2="584" y2="340.1"/>
	</g>
</g>
<g>
	<g>
		<line fill="none" stroke="#196B78" stroke-miterlimit="10" x1="470" y1="366.4" x2="471" y2="366.4"/>
		
			<line fill="none" stroke="#196B78" stroke-miterlimit="10" stroke-dasharray="2.0312,2.0312" x1="473" y1="366.4" x2="573.6" y2="366.4"/>
		<line fill="none" stroke="#196B78" stroke-miterlimit="10" x1="574.6" y1="366.4" x2="575.6" y2="366.4"/>
	</g>
</g>
<text transform="matrix(1 0 0 1 491.6747 361.1683)" fill="#9B1C1F" font-family="'Helvetica'" font-size="13px">Median Earnings</text>
<text transform="matrix(1 0 0 1 492.4895 335.5756)"><tspan x="0" y="0" fill="#9B1C1F" font-family="'Helvetica'" font-size="13px">Median age</tspan><tspan x="67.9" y="0" fill="#9B1C1F" font-family="'MyriadPro-Semibold'" font-size="13.326px"> </tspan></text>
<g>
	<g>
		<line fill="none" stroke="#196B78" stroke-miterlimit="10" x1="487.9" y1="313.9" x2="488.9" y2="313.9"/>
		
			<line fill="none" stroke="#196B78" stroke-miterlimit="10" stroke-dasharray="1.994,1.994" x1="490.9" y1="313.9" x2="601.6" y2="313.9"/>
		<line fill="none" stroke="#196B78" stroke-miterlimit="10" x1="602.6" y1="313.9" x2="603.6" y2="313.9"/>
	</g>
</g>
<text transform="matrix(1 0 0 1 588.3071 337.6103)" fill="#196B78" font-family="'Helvetica-Bold'" font-size="21px">31</text>
<text transform="matrix(1 0 0 1 588.307 364.2828)" fill="#196B78" font-family="'Helvetica-Bold'" font-size="21px"> $60,700</text>
<text transform="matrix(1 0 0 1 492.4896 308.7358)"><tspan x="0" y="0" fill="#196B78" font-family="'Helvetica-Bold'" font-size="32px">330,000</tspan><tspan x="115.7" y="0" fill="#9B1C1F" font-family="'MyriadPro-Semibold'" font-size="21px"> </tspan></text>
<text transform="matrix(1 0 0 1 608.6344 308.7355)" fill="#9B1C1F" font-family="'Helvetica'" font-size="13px">Males</text>
<g>
	<g>
		<path fill="#FFFFFF" d="M412.8,158.8l2.6,30l11.7,13.5c0,0,8.8,6.8,17.6,0l9-10.4l3.8-33.6c0,0-0.4-11.2-17.3-12.2
			C423.3,145.1,413.9,147.4,412.8,158.8z"/>
		<path fill="#82321A" d="M409.6,153.9l2.7-3.5h1.7l-2.2-4.3l0.5-6.6l4.9-4.9l-1.4,5.2l4.2-6.6l4.4-3.5l3.7,2.4l2.8-3.2l7.6-0.8
			l3.5,2.5l4.2,6.1l-0.6-3.4l12.9,12.5c0,0-0.2,10.9-0.8,13.6c0,0-2.6-7.5-8.8-5.1c0,0-12.5,3.1-14.7,2.8s-16.5-3.2-16.5-3.2
			s-3.5,0.6-4.7,6c0,0-1-3.5-0.5-6.7l-1.8,2.2L409.6,153.9z"/>
	</g>
	<g>
		<path fill="#65C7C4" d="M392.1,319.9v-92.2c0,0,2-16.7,16.4-16.7c14.4,0,53,0,53,0s16.2,3,17.4,16.2c1.3,13.1,0,92.7,0,92.7
			s-6.3,10.9-15.4,0v-75.7h-2.3v188.1c0,0-11.4,21.5-23.5,1.5V335h-3v98.2c0,0-12.4,21.5-24,0.3V244.2h-2.5l0,75.2
			C408.3,319.4,400.9,335.5,392.1,319.9z"/>
		<g>
			<path fill="none" stroke="#FFFFFF" stroke-width="2" stroke-miterlimit="10" d="M448.6,211.6c0,0,12.7,9.3,5.5,24.2
				C454.1,235.9,461.1,223.1,448.6,211.6z"/>
			<ellipse fill="none" stroke="#FFFFFF" stroke-width="2" stroke-miterlimit="10" cx="450.8" cy="240.6" rx="6" ry="5.6"/>
		</g>
		<g>
			<path fill="none" stroke="#FFFFFF" stroke-width="2" stroke-miterlimit="10" d="M421,211.6c0,0-10.1,18.2-4.2,30.3
				c0,0-4.4,9.4,1.2,21.5"/>
			<path fill="none" stroke="#FFFFFF" stroke-width="2" stroke-miterlimit="10" d="M416.7,241.9c0,0,10.1-4.9,17.3,14"/>
			
				<ellipse transform="matrix(0.2022 -0.9794 0.9794 0.2022 92.7934 628.0645)" fill="none" stroke="#FFFFFF" stroke-width="2" stroke-miterlimit="10" cx="431.9" cy="257.1" rx="2.8" ry="2.1"/>
			
				<ellipse transform="matrix(0.9967 -8.073521e-02 8.073521e-02 0.9967 -19.7947 34.7607)" fill="none" stroke="#FFFFFF" stroke-width="2" stroke-miterlimit="10" cx="420" cy="262.2" rx="2.5" ry="1.8"/>
		</g>
	</g>
</g>
<text transform="matrix(1 0 0 1 67.1738 64.9501)"><tspan x="0" y="0" fill="#196B78" font-family="'Helvetica-Bold'" font-size="73px">The </tspan><tspan x="150.1" y="0" fill="#ED1C24" font-family="'Helvetica-Bold'" font-size="73px">Modern </tspan><tspan x="433.9" y="0" fill="#196B78" font-family="'Helvetica-Bold'" font-size="73px">Nurse</tspan></text>
<rect x="201.6" y="80.2" fill="none" width="341" height="44"/>
<text transform="matrix(1 0 0 1 267.092 93.4217)"><tspan x="0" y="0" fill="#196B78" font-family="'StoneInformalStd-MediumItal'" font-size="18px">Exploring Today’s Diversity </tspan><tspan x="7.2" y="21.6" fill="#196B78" font-family="'StoneInformalStd-MediumItal'" font-size="18px">in the Nursing Profession</tspan></text>
</svg>
