<?xml version="1.0" encoding="utf-8"?>
<!-- Generator: Adobe Illustrator 19.2.1, SVG Export Plug-In . SVG Version: 6.00 Build 0)  -->
<svg version="1.1" id="malenurse" xmlns="http://www.w3.org/2000/svg" xmlns:xlink="http://www.w3.org/1999/xlink" x="0px" y="0px"
	 viewBox="0 0 690 360" enable-background="new 0 0 690 360" xml:space="preserve">
<path fill="#F3E5E3" d="M663.3,353.6H26.2c-10.9,0-19.6-8.8-19.6-19.6V23.9C6.5,13,15.3,4.2,26.2,4.2h637.2
	c10.9,0,19.6,8.8,19.6,19.6V334C683,344.8,674.2,353.6,663.3,353.6z"/>
<g>
	<g>
		<ellipse fill="#FFFFFF" cx="347.5" cy="40.8" rx="28.6" ry="29.9"/>
	</g>
	<path fill="#65C7C4" d="M298.6,205.6V97.7c0,0,2.3-19.5,18.4-19.5c16.1,0,59.4,0,59.4,0s18.1,3.5,19.5,18.9s0,108.5,0,108.5
		s-7.1,12.7-17.2,0V117H376v220.2c0,0-12.7,25.1-26.3,1.8V223.4h-3.4v115c0,0-13.8,25.1-26.8,0.3V117h-2.8l0,88.1
		C316.7,205,308.5,223.9,298.6,205.6z"/>
	<path opacity="0.6" fill="#ADDBCF" d="M376,199.6v137.7c0,0-12.7,25.1-26.3,1.8v-2.2c11.6,11,21.4-8.3,21.4-8.3l2.7-212.5h2.5
		l-0.2,79.9C376.8,197.1,375.2,198.9,376,199.6z"/>
	<path opacity="0.6" fill="#ADDBCF" d="M395.8,205.8c0,0-7.1,12.7-17.2,0v-4.2c7.5,4.3,12.3-4.5,12.3-4.5s1.4-93.1,0-108.5
		c-0.1-1-0.2-1.9-0.5-2.7c2.7,2.8,4.9,6.5,5.4,11.4C397.2,112.7,395.8,205.8,395.8,205.8z"/>
	<g>
		<path fill="none" stroke="#FFFFFF" stroke-width="0.7" stroke-miterlimit="10" d="M363.9,78.2c0,0,14.2,10.9,6.1,28.4
			C370.1,106.6,377.9,91.7,363.9,78.2z"/>
		<ellipse fill="none" stroke="#FFFFFF" stroke-width="0.7" stroke-miterlimit="10" cx="366.3" cy="112.1" rx="6.7" ry="6.6"/>
	</g>
	<g>
		<path fill="none" stroke="#FFFFFF" stroke-width="0.7" stroke-miterlimit="10" d="M333,78.2c0,0-11.3,21.4-4.7,35.5
			c0,0-5,11.1,1.3,25.2"/>
		<path fill="none" stroke="#FFFFFF" stroke-width="0.7" stroke-miterlimit="10" d="M328.2,113.7c0,0,11.3-5.7,19.3,16.4"/>
		<path fill="none" stroke="#FFFFFF" stroke-width="0.7" stroke-miterlimit="10" d="M342.9,130.9c-0.3,1.8,0.4,3.4,1.6,3.7
			c1.3,0.3,2.6-0.9,2.9-2.7c0.3-1.8-0.4-3.4-1.6-3.7C344.6,127.9,343.3,129.1,342.9,130.9z"/>
		<path fill="none" stroke="#FFFFFF" stroke-width="0.7" stroke-miterlimit="10" d="M331.7,135.2c-1.6,0.1-2.7,1.2-2.6,2.4
			c0.1,1.2,1.4,2,3,1.9c1.6-0.1,2.7-1.2,2.6-2.4C334.6,135.9,333.2,135.1,331.7,135.2z"/>
	</g>
	<ellipse fill="none" stroke="#FFFFFF" stroke-width="0.7" stroke-miterlimit="10" cx="366.3" cy="112.1" rx="2.2" ry="2.3"/>
</g>
<g>
	<text transform="matrix(1 0 0 1 24.9323 157.749)"><tspan x="0" y="0" fill="#9B1C1F" font-family="'Helvetica'" font-size="28.7876px">9.6</tspan><tspan x="40" y="0" fill="#9B1C1F" font-family="'Helvetica-Light'" font-size="14.3938px">%</tspan></text>
	<text transform="matrix(1 0 0 1 104.7502 106.415)" fill="#196B78" font-family="'Helvetica'" font-size="34.9563px">RN</text>
	
		<rect x="91.7" y="169.4" transform="matrix(-1 -8.982605e-11 8.982605e-11 -1 274.3214 353.4652)" opacity="0.74" fill="#65C7C4" width="90.9" height="14.8"/>
	
		<rect x="83.2" y="143" transform="matrix(-1 -4.488733e-11 4.488733e-11 -1 265.8406 300.7325)" fill="#65C7C4" width="99.4" height="14.8"/>
	
		<rect x="112.6" y="193.6" transform="matrix(-1 -5.492774e-11 5.492774e-11 -1 295.2539 401.9343)" opacity="0.56" fill="#65C7C4" width="70" height="14.8"/>
	
		<rect x="124.1" y="217.6" transform="matrix(-1 -5.660284e-11 5.660284e-11 -1 306.7253 450.0197)" fill="#ADDBCF" width="58.5" height="14.8"/>
	<path fill="none" stroke="#196B78" stroke-miterlimit="10" d="M260,125.7L259,291c0,0,7.7,13,16.8,0l1.8-164.2l-8.3-30.6L260,125.7
		z"/>
	<path fill="#196B78" stroke="#196B78" stroke-linejoin="round" stroke-miterlimit="10" d="M266.7,119.6v156V119.6z"/>
	<path fill="#196B78" stroke="#196B78" stroke-width="2" stroke-miterlimit="10" d="M259.9,142.4h5.1H259.9z"/>
	<path fill="#196B78" stroke="#196B78" stroke-width="2" stroke-miterlimit="10" d="M259.9,167.4h5.1H259.9z"/>
	<path fill="#196B78" stroke="#196B78" stroke-width="2" stroke-miterlimit="10" d="M259.9,192.6h5.1H259.9z"/>
	<path fill="#196B78" stroke="#196B78" stroke-width="2" stroke-miterlimit="10" d="M259.9,217.6h5.1H259.9z"/>
	<path fill="#196B78" stroke="#196B78" stroke-linejoin="round" stroke-miterlimit="10" d="M269.2,97.6v-28V97.6z"/>
	<text transform="matrix(1 0 0 1 33.2843 183.7856)"><tspan x="0" y="0" fill="#9B1C1F" font-family="'Helvetica'" font-size="28.7876px">9.1</tspan><tspan x="40" y="0" fill="#9B1C1F" font-family="'Helvetica-Light'" font-size="14.3938px">%</tspan></text>
	<text transform="matrix(1 0 0 1 55.425 208.3506)"><tspan x="0" y="0" fill="#9B1C1F" font-family="'Helvetica'" font-size="28.7876px">7.7</tspan><tspan x="40" y="0" fill="#9B1C1F" font-family="'Helvetica-Light'" font-size="14.3938px">%</tspan></text>
	<text transform="matrix(1 0 0 1 66.7692 232.3936)"><tspan x="0" y="0" fill="#9B1C1F" font-family="'Helvetica'" font-size="28.7876px">5.7</tspan><tspan x="40" y="0" fill="#9B1C1F" font-family="'Helvetica-Light'" font-size="14.3938px">%</tspan></text>
	<text transform="matrix(1 0 0 1 188.634 232.3916)" fill="#D18957" font-family="'Helvetica'" font-size="20.5625px">1990</text>
	<text transform="matrix(1 0 0 1 188.8859 209.397)" fill="#D18957" font-family="'Helvetica'" font-size="20.5625px">2000</text>
	<text transform="matrix(1 0 0 1 188.8869 182.6055)" fill="#D18957" font-family="'Helvetica'" font-size="20.5625px">2010</text>
	<text transform="matrix(1 0 0 1 188.8859 157.1133)" fill="#D18957" font-family="'Helvetica'" font-size="20.5625px">Today</text>
	
		<rect x="159.5" y="265.9" transform="matrix(-1 -7.653979e-11 7.653979e-11 -1 342.607 546.592)" opacity="0.51" fill="#ADDBCF" width="23.5" height="14.8"/>
	
		<rect x="140.2" y="242" transform="matrix(-1 -3.179869e-11 3.179869e-11 -1 323.3009 498.7452)" opacity="0.7" fill="#ADDBCF" width="42.8" height="14.8"/>
	<path fill="#196B78" stroke="#196B78" stroke-width="2" stroke-miterlimit="10" d="M259.9,242h5.1H259.9z"/>
	<path fill="#196B78" stroke="#196B78" stroke-width="2" stroke-miterlimit="10" d="M259,267h5.1H259z"/>
	<text transform="matrix(1 0 0 1 82.7555 256.7544)"><tspan x="0" y="0" fill="#9B1C1F" font-family="'Helvetica'" font-size="28.7876px">4.1</tspan><tspan x="40" y="0" fill="#9B1C1F" font-family="'Helvetica-Light'" font-size="14.3938px">%</tspan></text>
	<text transform="matrix(1 0 0 1 102.8869 280.6792)"><tspan x="0" y="0" fill="#9B1C1F" font-family="'Helvetica'" font-size="28.7876px">2.7</tspan><tspan x="40" y="0" fill="#9B1C1F" font-family="'Helvetica-Light'" font-size="14.3938px">%</tspan></text>
	<text transform="matrix(1 0 0 1 187.3532 280.6782)" fill="#D18957" font-family="'Helvetica'" font-size="20.5625px">1970</text>
	<text transform="matrix(1 0 0 1 187.7057 255.6899)" fill="#D18957" font-family="'Helvetica'" font-size="20.5625px">1980</text>
</g>
<g>
	<text transform="matrix(1 0 0 1 502.2962 108.9909)" fill="#196B78" font-family="'Helvetica'" font-size="34.9029px">LVN/LPN</text>
	<g>
		<path fill="none" stroke="#196B78" stroke-miterlimit="10" d="M433.3,127.6l1,165.1c0,0-7.7,13-16.7,0l-1.8-164l8.3-30.6
			L433.3,127.6z"/>
		<path fill="none" stroke="#196B78" stroke-linejoin="round" stroke-miterlimit="10" d="M424.1,97V69.1V97z"/>
		<path fill="none" stroke="#196B78" stroke-linejoin="round" stroke-miterlimit="10" d="M426.6,121.6v155.8V121.6z"/>
		<path fill="none" stroke="#196B78" stroke-width="2" stroke-miterlimit="10" d="M433.4,144.3h-5.1H433.4z"/>
		<path fill="none" stroke="#196B78" stroke-width="2" stroke-miterlimit="10" d="M433.4,169.3h-5.1H433.4z"/>
		<path fill="none" stroke="#196B78" stroke-width="2" stroke-miterlimit="10" d="M433.4,194.5h-5.1H433.4z"/>
		<path fill="none" stroke="#196B78" stroke-width="2" stroke-miterlimit="10" d="M433.4,219.4h-5.1H433.4z"/>
		<path fill="none" stroke="#196B78" stroke-width="2" stroke-miterlimit="10" d="M433.4,244.4h-5.1H433.4z"/>
		<path fill="none" stroke="#196B78" stroke-width="2" stroke-miterlimit="10" d="M433.4,269.3h-5.1H433.4z"/>
	</g>
	<rect x="516.9" y="171.8" opacity="0.74" fill="#65C7C4" width="88.4" height="14.7"/>
	<rect x="516.9" y="145.5" fill="#65C7C4" width="93.2" height="14.7"/>
	<rect x="516.9" y="196" opacity="0.56" fill="#65C7C4" width="83.8" height="14.7"/>
	<rect x="516.9" y="220" fill="#ADDBCF" width="58.4" height="14.7"/>
	<rect x="516.5" y="268.2" opacity="0.51" fill="#ADDBCF" width="40.4" height="14.7"/>
	<rect x="516.5" y="244.4" opacity="0.7" fill="#ADDBCF" width="32" height="14.7"/>
	<text transform="matrix(1 0 0 1 561.1097 282.986)"><tspan x="0" y="0" fill="#9B1C1F" font-family="'Helvetica'" font-size="28.7436px">3.9</tspan><tspan x="40" y="0" fill="#9B1C1F" font-family="'Helvetica-Light'" font-size="14.3718px">%</tspan></text>
	<text transform="matrix(1 0 0 1 552.8538 258.0358)"><tspan x="0" y="0" fill="#9B1C1F" font-family="'Helvetica'" font-size="28.7436px">3.4</tspan><tspan x="40" y="0" fill="#9B1C1F" font-family="'Helvetica-Light'" font-size="14.3718px">%</tspan></text>
	<text transform="matrix(1 0 0 1 579.5189 236.3405)"><tspan x="0" y="0" fill="#9B1C1F" font-family="'Helvetica'" font-size="28.7436px">6.4</tspan><tspan x="40" y="0" fill="#9B1C1F" font-family="'Helvetica-Light'" font-size="14.3718px">%</tspan></text>
	<text transform="matrix(1 0 0 1 605.3069 210.7663)"><tspan x="0" y="0" fill="#9B1C1F" font-family="'Helvetica'" font-size="28.7436px">7.6</tspan><tspan x="40" y="0" fill="#9B1C1F" font-family="'Helvetica-Light'" font-size="14.3718px">%</tspan></text>
	<text transform="matrix(1 0 0 1 610.1419 186.2418)"><tspan x="0" y="0" fill="#9B1C1F" font-family="'Helvetica'" font-size="28.7436px">7.8</tspan><tspan x="40" y="0" fill="#9B1C1F" font-family="'Helvetica-Light'" font-size="14.3718px">%</tspan></text>
	<text transform="matrix(1 0 0 1 618.5413 159.0563)"><tspan x="0" y="0" fill="#9B1C1F" font-family="'Helvetica'" font-size="28.7436px">8.1</tspan><tspan x="40" y="0" fill="#9B1C1F" font-family="'Helvetica-Light'" font-size="14.3718px">%</tspan></text>
	<text transform="matrix(1 0 0 1 453.9427 234.7741)" fill="#D18957" font-family="'Helvetica'" font-size="20.5311px">1990</text>
	<text transform="matrix(1 0 0 1 454.1946 211.8141)" fill="#D18957" font-family="'Helvetica'" font-size="20.5311px">2000</text>
	<text transform="matrix(1 0 0 1 454.1946 185.0631)" fill="#D18957" font-family="'Helvetica'" font-size="20.5311px">2010</text>
	<text transform="matrix(1 0 0 1 454.1946 159.61)" fill="#D18957" font-family="'Helvetica'" font-size="20.5311px">Today</text>
	<text transform="matrix(1 0 0 1 452.6644 282.986)" fill="#D18957" font-family="'Helvetica'" font-size="20.5311px">1970</text>
	<text transform="matrix(1 0 0 1 453.0159 258.0358)" fill="#D18957" font-family="'Helvetica'" font-size="20.5311px">1980</text>
</g>
<path fill="none" stroke="#000000" stroke-miterlimit="10" d="M80.8,105.5C80.8,105.5,80.8,105.5,80.8,105.5"/>
</svg>
