<?xml version="1.0" encoding="utf-8"?>
<!-- Generator: Adobe Illustrator 19.2.1, SVG Export Plug-In . SVG Version: 6.00 Build 0)  -->
<svg version="1.1" id="needle" xmlns="http://www.w3.org/2000/svg" xmlns:xlink="http://www.w3.org/1999/xlink" x="0px" y="0px"
	 viewBox="0 0 345 360" enable-background="new 0 0 345 360" xml:space="preserve">
<g>
	<path fill="#F3E5E3" stroke="#FFFFFF" stroke-miterlimit="10" d="M319.8,353.7H25.2c-7.7,0-13.9-6.2-13.9-13.9V19.1
		c0-7.7,6.2-13.9,13.9-13.9h294.5c7.7,0,13.9,6.2,13.9,13.9v320.6C333.7,347.4,327.5,353.7,319.8,353.7z"/>
	<g>
		<path fill="none" stroke="#F7C5C1" stroke-miterlimit="10" stroke-dasharray="2.9973,2.9973" d="M301.9,336.6H41.2
			c-5.8,0-10.5-4.7-10.5-10.5V35.2c0-5.8,4.7-10.5,10.5-10.5h260.7c5.8,0,10.5,4.7,10.5,10.5v290.9
			C312.4,331.9,307.7,336.6,301.9,336.6z"/>
	</g>
</g>
<text transform="matrix(1 0 0 1 51.2959 57.9453)" fill="#F16369" font-family="'Helvetica-Bold'" font-size="27.2104px">Nurse anesthetists</text>
<g>
	<text transform="matrix(1 0 0 1 75.4604 236.9804)" fill="#F16369" font-family="'Helvetica-Light'" font-size="20.0771px"> Females</text>
	<rect x="52.6" y="220.4" opacity="0.6" fill="#F16369" width="22.8" height="18.2"/>
</g>
<g>
	<rect x="51.3" y="175.9" opacity="0.6" fill="#65C7C4" width="22.8" height="18.2"/>
	<text transform="matrix(1 0 0 1 82.3765 192.5484)" fill="#196B78" font-family="'Helvetica-Light'" font-size="20.0771px">Males</text>
</g>
<g>
	<g>
		<path fill="#FCD7D2" d="M229,273.9V326l45.9-0.8c0,0,40.8-20.6-1.4-51.3H229z"/>
		<path opacity="0.3" fill="#F7C5C1" d="M196.5,273.9h74.7c1.6,0,3.1,0.5,4.4,1.4c8.2,5.8,36.1,28.4-0.1,49.6
			c-1.3,0.7-2.7,1.1-4.2,1.1h-76.7c-1.9,0-3.7-0.6-5.2-1.7c-7.7-5.5-28.5-24.2,2-48.6C192.9,274.6,194.7,273.9,196.5,273.9z"/>
		<g>
			<text transform="matrix(1 0 0 1 190.6972 308.0503)" fill="#F16369" font-family="'Helvetica'" font-size="20.0005px">$144,981</text>
		</g>
	</g>
	<g>
		<path opacity="0.72" fill="#FFFFFF" stroke="#FFFFFF" stroke-miterlimit="10" d="M183.1,261.5v39.1c0,0-7.3,13.9-15.2,0v-39.1
			H183.1z"/>
		<path fill="#FFFFFF" d="M184.3,257.9h-17.8c0,0-5.4,1.6,0,3.5h17.8C184.3,261.5,190.2,259.8,184.3,257.9z"/>
		<path fill="#F16369" d="M167.9,287.8h11v11.5c0,0,0,5.9-5.5,6.6c0,0-3.9-2.6-5.5-6.1V287.8z"/>
		<path fill="#F9DEDA" d="M183.1,300.1c0,0-4.2,7.6-9.7,5.8c0,0,4.5-0.8,5.5-6.2V262l4.2,0.1V300.1z"/>
		<path fill="none" stroke="#FFFFFF" stroke-miterlimit="10" d="M183.1,261.5v39.1c0,0-7.3,13.9-15.2,0v-39.1H183.1z"/>
		
			<text transform="matrix(1 0 0 1 170.6308 299.9438)" fill="#FFFFFF" font-family="'MinionPro-SemiboldCnDisp'" font-size="14.5783px">$</text>
	</g>
</g>
<g>
	<g>
		<path fill="#ED2426" d="M281,138.7c0,0-49.7,52.1-12,72.1c7.7,4.1,17.1,4.2,24.7-0.2C307,203.1,320.6,184.2,281,138.7z"/>
		<rect x="268.4" y="179.6" fill="#FFFFFF" stroke="#FFFFFF" stroke-miterlimit="10" width="25.2" height="2.9"/>
		<rect x="279.2" y="169.9" fill="#FFFFFF" stroke="#FFFFFF" stroke-miterlimit="10" width="3.7" height="25.3"/>
	</g>
	<g>
		<path fill="none" stroke="#FFFFFF" stroke-linejoin="round" stroke-miterlimit="10" d="M266.3,114h16.3H266.3z"/>
		<g>
			
				<rect x="76.1" y="88.9" fill="#FFFFFF" stroke="#FFFFFF" stroke-linejoin="round" stroke-miterlimit="10" width="157.6" height="50.4"/>
			<rect x="46" y="122.5" fill="#F7C5C1" width="187.4" height="8.1"/>
			<rect x="148.9" y="97.3" opacity="0.6" fill="#F16369" width="84.8" height="41.9"/>
			<rect x="91.2" y="97.3" opacity="0.6" fill="#65C7C4" width="57.8" height="41.9"/>
			
				<rect x="137.2" y="36.4" transform="matrix(1.979333e-10 -1 1 1.979333e-10 39.8791 269.877)" fill="none" stroke="#FFFFFF" stroke-miterlimit="10" width="35.3" height="157.2"/>
			<polygon fill="#FFFFFF" stroke="#FFFFFF" stroke-linejoin="round" stroke-miterlimit="10" points="237.8,114.1 237.7,88.8 
				252,101.4 266.3,114 252.1,126.7 237.8,139.4 			"/>
			
				<rect x="234.4" y="88.7" fill="none" stroke="#FFFFFF" stroke-linejoin="round" stroke-miterlimit="10" width="3.4" height="50.6"/>
			<line fill="none" stroke="#FFFFFF" stroke-linejoin="round" stroke-miterlimit="10" x1="97.1" y1="123.3" x2="97.1" y2="139.6"/>
			<line fill="none" stroke="#FFFFFF" stroke-linejoin="round" stroke-miterlimit="10" x1="103" y1="123.3" x2="103" y2="139.6"/>
			
				<line fill="none" stroke="#FFFFFF" stroke-linejoin="round" stroke-miterlimit="10" x1="108.4" y1="123.3" x2="108.4" y2="139.6"/>
			<line fill="none" stroke="#FFFFFF" stroke-linejoin="round" stroke-miterlimit="10" x1="114" y1="123.3" x2="114" y2="139.6"/>
			
				<line fill="none" stroke="#FFFFFF" stroke-linejoin="round" stroke-miterlimit="10" x1="119.3" y1="115.4" x2="119.3" y2="139.6"/>
			<line fill="none" stroke="#FFFFFF" stroke-linejoin="round" stroke-miterlimit="10" x1="125" y1="123.3" x2="125" y2="139.6"/>
			
				<line fill="none" stroke="#FFFFFF" stroke-linejoin="round" stroke-miterlimit="10" x1="130.9" y1="123.3" x2="130.9" y2="139.6"/>
			
				<line fill="none" stroke="#FFFFFF" stroke-linejoin="round" stroke-miterlimit="10" x1="136.8" y1="123.3" x2="136.8" y2="139.6"/>
			
				<line fill="none" stroke="#FFFFFF" stroke-linejoin="round" stroke-miterlimit="10" x1="142.1" y1="123.3" x2="142.1" y2="139.6"/>
			
				<line fill="none" stroke="#FFFFFF" stroke-linejoin="round" stroke-miterlimit="10" x1="147.8" y1="115.4" x2="147.8" y2="139.6"/>
			
				<line fill="none" stroke="#FFFFFF" stroke-linejoin="round" stroke-miterlimit="10" x1="153.1" y1="123.3" x2="153.1" y2="139.6"/>
			
				<line fill="none" stroke="#FFFFFF" stroke-linejoin="round" stroke-miterlimit="10" x1="158.8" y1="123.3" x2="158.8" y2="139.6"/>
			
				<line fill="none" stroke="#FFFFFF" stroke-linejoin="round" stroke-miterlimit="10" x1="164.7" y1="123.3" x2="164.7" y2="139.6"/>
			
				<line fill="none" stroke="#FFFFFF" stroke-linejoin="round" stroke-miterlimit="10" x1="170.7" y1="123.3" x2="170.7" y2="139.6"/>
			<line fill="none" stroke="#FFFFFF" stroke-linejoin="round" stroke-miterlimit="10" x1="176" y1="115.4" x2="176" y2="139.6"/>
			
				<line fill="none" stroke="#FFFFFF" stroke-linejoin="round" stroke-miterlimit="10" x1="181.6" y1="123.3" x2="181.6" y2="139.6"/>
			
				<line fill="none" stroke="#FFFFFF" stroke-linejoin="round" stroke-miterlimit="10" x1="186.9" y1="123.3" x2="186.9" y2="139.6"/>
			
				<line fill="none" stroke="#FFFFFF" stroke-linejoin="round" stroke-miterlimit="10" x1="192.8" y1="123.3" x2="192.8" y2="139.6"/>
			
				<line fill="none" stroke="#FFFFFF" stroke-linejoin="round" stroke-miterlimit="10" x1="205.1" y1="115.4" x2="205.1" y2="139.6"/>
			
				<line fill="none" stroke="#FFFFFF" stroke-linejoin="round" stroke-miterlimit="10" x1="210.9" y1="123.3" x2="210.9" y2="139.6"/>
			
				<line fill="none" stroke="#FFFFFF" stroke-linejoin="round" stroke-miterlimit="10" x1="216.7" y1="123.3" x2="216.7" y2="139.6"/>
			
				<line fill="none" stroke="#FFFFFF" stroke-linejoin="round" stroke-miterlimit="10" x1="222.7" y1="123.3" x2="222.7" y2="139.6"/>
			<line fill="none" stroke="#FFFFFF" stroke-linejoin="round" stroke-miterlimit="10" x1="228" y1="123.3" x2="228" y2="139.6"/>
			
				<line fill="none" stroke="#FFFFFF" stroke-linejoin="round" stroke-miterlimit="10" x1="198.6" y1="123.3" x2="198.6" y2="139.6"/>
			<text transform="matrix(1 0 0 1 157.5928 111.8042)"><tspan x="0" y="0" fill="#F16369" font-family="'Helvetica'" font-size="12.0294px">Female</tspan><tspan x="40.1" y="0" fill="#F16369" font-family="'Helvetica'" font-size="9.6235px"> </tspan><tspan x="42.8" y="0" fill="#F16369" font-family="'Helvetica'" font-size="13.2323px">59%</tspan></text>
			<text transform="matrix(1 0 0 1 92.897 111.8042)"><tspan x="0" y="0" fill="#196B78" font-family="'Helvetica'" font-size="12.0294px">Male</tspan><tspan x="26.1" y="0" fill="#196B78" font-family="'Helvetica'" font-size="9.6235px"> </tspan><tspan x="28.7" y="0" fill="#196B78" font-family="'Helvetica'" font-size="13.2323px">41%</tspan></text>
			<rect x="35.8" y="85.4" fill="#FFFFFF" stroke="#FFFFFF" stroke-miterlimit="10" width="11.5" height="59.8"/>
			
				<rect x="40.1" y="98" transform="matrix(4.499518e-11 -1 1 4.499518e-11 -58.078 173.5961)" fill="none" stroke="#FFFFFF" stroke-miterlimit="10" width="35.3" height="35.7"/>
		</g>
	</g>
</g>
<g>
	<g>
		<path opacity="0.32" fill="#ADDBCF" d="M61.5,273.9h71.8c1.8,0,3.6,0.5,5,1.6c8.4,6,34.3,27.7-0.4,48.1c-1.3,0.7-2.7,1.1-4.2,1.1
			H60c-2.5,0-5-0.8-7-2.3c-8-6.1-25.4-23.6,2.4-46.3C57.2,274.7,59.3,273.9,61.5,273.9z"/>
		<path opacity="0.6" fill="#ADDBCF" d="M116.4,273.1v50.7l-61.6,0c0,0-33.2-20.1,0-49.3c1.1-0.9,2.4-1.4,3.8-1.4L116.4,273.1z"/>
		<text transform="matrix(1 0 0 1 48.9869 307.2612)" fill="#196B78" font-family="'Helvetica'" font-size="19.6056px">$162.900</text>
	</g>
	<g>
		<path opacity="0.72" fill="#FFFFFF" d="M144.4,263.1v37.7c0,0,7.1,13.4,14.7,0v-37.7H144.4z"/>
		<path fill="#FFFFFF" d="M143.6,259.2h17.2c0,0,5.3,1.5,0,3.4h-17.2C143.6,262.6,138,261.1,143.6,259.2z"/>
		<path fill="#ADDBCF" d="M144.4,260.9v39.4c0,0,4.1,7.3,9.4,5.6c0,0-4.3-0.8-5.3-6v-37.3h-4V260.9z"/>
		<path fill="none" stroke="#FFFFFF" stroke-miterlimit="10" d="M144.4,263.1v37.7c0,0,7.1,13.4,14.7,0v-37.7H144.4z"/>
		<path fill="#65C7C4" d="M159.1,281.9h-10.6v15.4c0,0-1.3,8.4,5.3,8.7c0,0,4.7-1,5.3-8.1V281.9z"/>
		
			<text transform="matrix(1 0 0 1 149.627 298.9019)" fill="#FFFFFF" font-family="'MinionPro-SemiboldCnDisp'" font-size="19.8874px">$</text>
	</g>
</g>
</svg>
