<?xml version="1.0" encoding="utf-8"?>
<!-- Generator: Adobe Illustrator 19.2.1, SVG Export Plug-In . SVG Version: 6.00 Build 0)  -->
<svg version="1.1" id="notebook" xmlns="http://www.w3.org/2000/svg" xmlns:xlink="http://www.w3.org/1999/xlink" x="0px" y="0px"
	 viewBox="0 0 345 360" enable-background="new 0 0 345 360" xml:space="preserve">
<g>
	<path fill="#F3E5E3" stroke="#FFFFFF" stroke-miterlimit="10" d="M319.8,353.7H25.2c-7.7,0-13.9-6.2-13.9-13.9V19.1
		c0-7.7,6.2-13.9,13.9-13.9h294.5c7.7,0,13.9,6.2,13.9,13.9v320.6C333.7,347.4,327.5,353.7,319.8,353.7z"/>
	<g>
		<path fill="none" stroke="#F7C5C1" stroke-miterlimit="10" stroke-dasharray="2.9973,2.9973" d="M301.9,336.6H41.2
			c-5.8,0-10.5-4.7-10.5-10.5V35.2c0-5.8,4.7-10.5,10.5-10.5h260.7c5.8,0,10.5,4.7,10.5,10.5v290.9
			C312.4,331.9,307.7,336.6,301.9,336.6z"/>
	</g>
</g>
<text transform="matrix(1 0 0 1 46.4999 62.9998)" fill="#82321A" font-family="'Helvetica-Light'" font-size="15.4845px">Median Nurse Salary by Ethnicity</text>
<g>
	<path fill="#FFFFFF" d="M132.5,146.8H58.1c-1.5,0-2.6-1.2-2.6-2.6V99.1c0-1.5,1.2-2.6,2.6-2.6h74.4c1.5,0,2.6,1.2,2.6,2.6v45.1
		C135.1,145.7,133.9,146.8,132.5,146.8z"/>
	<text transform="matrix(1 0 0 1 89.9386 124.1665)" fill="#D18957" font-family="'Helvetica-Light'" font-size="8.1055px">Caucasian</text>
	<text transform="matrix(1 0 0 1 84.13 137.7427)" fill="#D18957" font-family="'Helvetica'" font-size="13.3995px">$70,000</text>
	<g>
		
			<rect x="62.2" y="116.4" fill="#65C7C4" stroke="#000000" stroke-width="0.2" stroke-miterlimit="10" width="18.6" height="25.4"/>
		<path fill="#FFFFFF" d="M76.3,126.5c0,2.7-2.2,4.8-4.8,4.8c-2.5,0-4.6-1.9-4.8-4.4c0.1,0,2.6-1.4,1.8-3c0,0,3.9,1.2,5.4-0.2
			c0,0,0.5,2.6,2.4,2.4C76.3,126.2,76.3,126.3,76.3,126.5z"/>
		<path fill="#82321A" d="M76.3,126c-1.9,0.2-2.4-2.4-2.4-2.4c-1.5,1.4-5.4,0.2-5.4,0.2c0.7,1.6-1.8,3-1.8,3c0-0.1,0-0.3,0-0.4
			c0-2.7,2.2-4.8,4.8-4.8C74,121.7,76,123.6,76.3,126z"/>
		<path fill="#ADDBCF" d="M65.2,141.7c0,0,1.3-9.4,6-9.9c0,0,4.8-1.4,6.5,9.9H65.2z"/>
		<g>
			<circle fill="#ED2426" stroke="#ED2426" stroke-width="0.4" stroke-miterlimit="10" cx="71.9" cy="136" r="1.5"/>
			<g>
				
					<rect x="70.8" y="135.8" fill="#FFFFFF" stroke="#FFFFFF" stroke-width="0.4" stroke-miterlimit="10" width="2.2" height="0.3"/>
				<rect x="71.8" y="135" fill="#FFFFFF" stroke="#FFFFFF" stroke-width="0.4" stroke-miterlimit="10" width="0.3" height="2.1"/>
			</g>
		</g>
	</g>
	<path fill="#F3E5E3" d="M88.6,100.1l13,0.1c0,0,5,1.8,0.3,3.7H88.4C88.4,103.9,84.3,102,88.6,100.1z"/>
</g>
<g>
	<path fill="#FFFFFF" d="M131.5,207H58.1c-1.5,0-2.6-1.2-2.6-2.6v-44.5c0-1.5,1.2-2.6,2.6-2.6h73.3c1.5,0,2.6,1.2,2.6,2.6v44.5
		C134.1,205.8,132.9,207,131.5,207z"/>
	<text transform="matrix(1 0 0 1 96.7236 184.6081)" fill="#D18957" font-family="'Helvetica-Light'" font-size="7.9787px">Asian</text>
	<text transform="matrix(1 0 0 1 83.3823 198.0109)" fill="#D18957" font-family="'Helvetica'" font-size="13.1898px">$61.000</text>
	<g>
		<rect x="62.1" y="177" fill="#65C7C4" stroke="#000000" stroke-width="0.2" stroke-miterlimit="10" width="18.3" height="25.1"/>
		<g>
			<path fill="#FED49A" d="M76,186.9c0,2.6-2.2,4.7-4.8,4.7c-2.5,0-4.5-1.9-4.7-4.3c0.1,0,2.6-1.4,1.8-3c0,0,3.8,1.2,5.3-0.2
				c0,0,0.5,2.5,2.3,2.4C76,186.6,76,186.7,76,186.9z"/>
			<line fill="none" stroke="#000000" stroke-miterlimit="10" x1="66.6" y1="187.3" x2="66.5" y2="187.3"/>
			<path fill="#82321A" d="M76,186.4c-1.9,0.2-2.3-2.4-2.3-2.4c-1.5,1.4-5.3,0.2-5.3,0.2c0.7,1.6-1.8,3-1.8,3c0-0.1,0-0.3,0-0.4
				c0-2.6,2.2-4.7,4.8-4.7C73.8,182.1,75.8,184,76,186.4z"/>
		</g>
		<path fill="#ADDBCF" d="M65.1,202c0,0,1.3-9.3,5.9-9.8c0,0,4.7-1.4,6.5,9.8H65.1z"/>
		<g>
			<circle fill="#ED2426" stroke="#ED2426" stroke-width="0.4" stroke-miterlimit="10" cx="73.3" cy="196.3" r="1.5"/>
			<g>
				
					<rect x="72.2" y="196.1" fill="#FFFFFF" stroke="#FFFFFF" stroke-width="0.4" stroke-miterlimit="10" width="2.2" height="0.3"/>
				<rect x="73.2" y="195.3" fill="#FFFFFF" stroke="#FFFFFF" stroke-width="0.4" stroke-miterlimit="10" width="0.3" height="2"/>
			</g>
		</g>
	</g>
	<path fill="#F3E5E3" d="M88.2,160.9l12.9,0.1c0,0,4.9,1.8,0.3,3.7H88C88,164.6,84,162.8,88.2,160.9z"/>
</g>
<g>
	<line fill="none" stroke="#000000" stroke-miterlimit="10" x1="69.6" y1="240.3" x2="69.6" y2="240.3"/>
	<path fill="#FFFFFF" d="M135.4,261H58.1c-1.5,0-2.6-1.2-2.6-2.6v-43.2c0-1.5,1.2-2.6,2.6-2.6h77.2c1.5,0,2.6,1.2,2.6,2.6v43.2
		C138,259.8,136.8,261,135.4,261z"/>
	<rect x="61.9" y="231.7" fill="#65C7C4" stroke="#000000" stroke-width="0.2" stroke-miterlimit="10" width="17.9" height="24.4"/>
	<path fill="#F3E5E3" d="M87.4,216.1l12.5,0.1c0,0,4.8,1.7,0.3,3.6h-13C87.2,219.7,83.2,217.9,87.4,216.1z"/>
	<g>
		<text transform="matrix(1 0 0 1 84.0297 237.6085)" fill="#D18957" font-family="'Helvetica-Light'" font-size="8.1055px">Hispanic</text>
	</g>
	<g>
		<text transform="matrix(1 0 0 1 84.0297 252.2432)" fill="#D18957" font-family="'Helvetica'" font-size="13.3995px">$59,000</text>
	</g>
	<path fill="#FFFFFF" d="M75.5,241.4c0,2.6-2.1,4.6-4.6,4.6c-2.4,0-4.4-1.9-4.6-4.2c0.1,0,2.5-1.4,1.8-2.9c0,0,3.7,1.2,5.2-0.2
		c0,0,0.5,2.5,2.3,2.3C75.5,241.1,75.5,241.3,75.5,241.4z"/>
	<path fill="#82321A" d="M75.5,241c-1.8,0.2-2.3-2.3-2.3-2.3c-1.4,1.4-5.2,0.2-5.2,0.2c0.7,1.6-1.7,2.9-1.8,2.9c0-0.1,0-0.3,0-0.4
		c0-2.6,2.1-4.6,4.6-4.6C73.3,236.8,75.3,238.6,75.5,241z"/>
	<path fill="#ADDBCF" d="M64.8,256.1c0,0,1.3-9,5.8-9.5c0,0,4.6-1.4,6.3,9.5H64.8z"/>
	<g>
		<circle fill="#ED2426" stroke="#ED2426" stroke-width="0.4" stroke-miterlimit="10" cx="72.9" cy="250.6" r="1.4"/>
		<g>
			<rect x="71.8" y="250.3" fill="#FFFFFF" stroke="#FFFFFF" stroke-width="0.4" stroke-miterlimit="10" width="2.1" height="0.2"/>
			<rect x="72.7" y="249.6" fill="#FFFFFF" stroke="#FFFFFF" stroke-width="0.4" stroke-miterlimit="10" width="0.3" height="2"/>
		</g>
	</g>
</g>
<g>
	<g>
		<path fill="#FFFFFF" d="M137.4,324H58.1c-1.5,0-2.6-1.2-2.6-2.6v-48.2c0-1.5,1.2-2.6,2.6-2.6h79.3c1.5,0,2.6,1.2,2.6,2.6v48.2
			C140,322.8,138.8,324,137.4,324z"/>
		<g>
			<text transform="matrix(1 0 0 1 90.3428 298.7254)" fill="#D18957" font-family="'Helvetica-Light'" font-size="8.1055px">Multi - racial</text>
		</g>
		<g>
			<text transform="matrix(1 0 0 1 86.9346 313.7068)" fill="#D18957" font-family="'Helvetica'" font-size="13.3995px">$58.000</text>
		</g>
		<rect x="63.9" y="290.8" fill="#65C7C4" stroke="#000000" stroke-width="0.2" stroke-miterlimit="10" width="19.7" height="27"/>
		<path fill="#F7941E" d="M78.5,301.5c0,2.8-2.3,5.1-5.1,5.1c-2.7,0-4.8-2.1-5.1-4.7c0.1,0,2.7-1.5,2-3.2c0,0,4.1,1.3,5.7-0.2
			c0,0,0.5,2.7,2.5,2.5C78.5,301.1,78.5,301.3,78.5,301.5z"/>
		<line fill="none" stroke="#000000" stroke-miterlimit="10" x1="68.3" y1="301.9" x2="68.3" y2="301.9"/>
		<path fill="#82321A" d="M78.5,301c-2,0.2-2.5-2.5-2.5-2.5c-1.6,1.5-5.7,0.2-5.7,0.2c0.8,1.7-1.9,3.2-2,3.2c0-0.1,0-0.3,0-0.5
			c0-2.8,2.3-5.1,5.1-5.1C76.1,296.4,78.3,298.4,78.5,301z"/>
		<path fill="#ADDBCF" d="M66.7,317.7c0,0,1.4-10,6.4-10.5c0,0,5.1-1.5,6.9,10.5H66.7z"/>
		<g>
			<circle fill="#ED2426" stroke="#ED2426" stroke-width="0.4" stroke-miterlimit="10" cx="75.6" cy="311.6" r="1.6"/>
			<g>
				
					<rect x="74.5" y="311.3" fill="#FFFFFF" stroke="#FFFFFF" stroke-width="0.4" stroke-miterlimit="10" width="2.4" height="0.3"/>
				
					<rect x="75.5" y="310.5" fill="#FFFFFF" stroke="#FFFFFF" stroke-width="0.4" stroke-miterlimit="10" width="0.3" height="2.2"/>
			</g>
		</g>
	</g>
	<path fill="#F3E5E3" d="M89.3,275.9l12.5,0.1c0,0,4.8,1.7,0.3,3.6H89.1C89.1,279.5,85.2,277.7,89.3,275.9z"/>
</g>
<g>
	<path fill="#FFFFFF" d="M260,146.8h-74.4c-1.5,0-2.6-1.2-2.6-2.6V99.1c0-1.5,1.2-2.6,2.6-2.6H260c1.5,0,2.6,1.2,2.6,2.6v45.1
		C262.6,145.7,261.4,146.8,260,146.8z"/>
	<text transform="matrix(1 0 0 1 217.4386 124.1665)" fill="#D18957" font-family="'Helvetica-Light'" font-size="8.1055px">Caucasian</text>
	<text transform="matrix(1 0 0 1 211.63 137.7427)" fill="#D18957" font-family="'Helvetica'" font-size="13.3995px">$10,000</text>
	<g>
		
			<rect x="189.7" y="116.4" fill="#65C7C4" stroke="#000000" stroke-width="0.2" stroke-miterlimit="10" width="18.6" height="25.4"/>
		<path fill="#FFFFFF" d="M203.8,126.5c0,2.7-2.2,4.8-4.8,4.8c-2.5,0-4.6-1.9-4.8-4.4c0.1,0,2.6-1.4,1.8-3c0,0,3.9,1.2,5.4-0.2
			c0,0,0.5,2.6,2.4,2.4C203.8,126.2,203.8,126.3,203.8,126.5z"/>
		<path fill="#82321A" d="M203.8,126c-1.9,0.2-2.4-2.4-2.4-2.4c-1.5,1.4-5.4,0.2-5.4,0.2c0.7,1.6-1.8,3-1.8,3c0-0.1,0-0.3,0-0.4
			c0-2.7,2.2-4.8,4.8-4.8C201.5,121.7,203.5,123.6,203.8,126z"/>
		<path fill="#ADDBCF" d="M192.7,141.7c0,0,1.3-9.4,6-9.9c0,0,4.8-1.4,6.5,9.9H192.7z"/>
		<g>
			<circle fill="#ED2426" stroke="#ED2426" stroke-width="0.4" stroke-miterlimit="10" cx="199.4" cy="136" r="1.5"/>
			<g>
				
					<rect x="198.3" y="135.8" fill="#FFFFFF" stroke="#FFFFFF" stroke-width="0.4" stroke-miterlimit="10" width="2.2" height="0.3"/>
				<rect x="199.3" y="135" fill="#FFFFFF" stroke="#FFFFFF" stroke-width="0.4" stroke-miterlimit="10" width="0.3" height="2.1"/>
			</g>
		</g>
	</g>
	<path fill="#F3E5E3" d="M216.1,100.1l13,0.1c0,0,5,1.8,0.3,3.7h-13.5C215.9,103.9,211.8,102,216.1,100.1z"/>
</g>
<g>
	<path fill="#FFFFFF" d="M259,207h-73.3c-1.5,0-2.6-1.2-2.6-2.6v-44.5c0-1.5,1.2-2.6,2.6-2.6H259c1.5,0,2.6,1.2,2.6,2.6v44.5
		C261.6,205.8,260.4,207,259,207z"/>
	<text transform="matrix(1 0 0 1 224.2236 184.6081)" fill="#D18957" font-family="'Helvetica-Light'" font-size="7.9787px">Asian</text>
	<text transform="matrix(1 0 0 1 210.8823 198.0109)" fill="#D18957" font-family="'Helvetica'" font-size="13.1898px">$21.000</text>
	<g>
		<rect x="189.6" y="177" fill="#65C7C4" stroke="#000000" stroke-width="0.2" stroke-miterlimit="10" width="18.3" height="25.1"/>
		<g>
			<path fill="#FED49A" d="M203.5,186.9c0,2.6-2.2,4.7-4.8,4.7c-2.5,0-4.5-1.9-4.7-4.3c0.1,0,2.6-1.4,1.8-3c0,0,3.8,1.2,5.3-0.2
				c0,0,0.5,2.5,2.3,2.4C203.5,186.6,203.5,186.7,203.5,186.9z"/>
			<line fill="none" stroke="#000000" stroke-miterlimit="10" x1="194.1" y1="187.3" x2="194" y2="187.3"/>
			<path fill="#82321A" d="M203.5,186.4c-1.9,0.2-2.3-2.4-2.3-2.4c-1.5,1.4-5.3,0.2-5.3,0.2c0.7,1.6-1.8,3-1.8,3c0-0.1,0-0.3,0-0.4
				c0-2.6,2.2-4.7,4.8-4.7C201.3,182.1,203.3,184,203.5,186.4z"/>
		</g>
		<path fill="#ADDBCF" d="M192.6,202c0,0,1.3-9.3,5.9-9.8c0,0,4.7-1.4,6.5,9.8H192.6z"/>
		<g>
			<circle fill="#ED2426" stroke="#ED2426" stroke-width="0.4" stroke-miterlimit="10" cx="200.8" cy="196.3" r="1.5"/>
			<g>
				
					<rect x="199.7" y="196.1" fill="#FFFFFF" stroke="#FFFFFF" stroke-width="0.4" stroke-miterlimit="10" width="2.2" height="0.3"/>
				<rect x="200.7" y="195.3" fill="#FFFFFF" stroke="#FFFFFF" stroke-width="0.4" stroke-miterlimit="10" width="0.3" height="2"/>
			</g>
		</g>
	</g>
	<path fill="#F3E5E3" d="M215.7,160.9l12.9,0.1c0,0,4.9,1.8,0.3,3.7h-13.3C215.5,164.6,211.5,162.8,215.7,160.9z"/>
</g>
<g>
	<line fill="none" stroke="#000000" stroke-miterlimit="10" x1="197.1" y1="240.3" x2="197.1" y2="240.3"/>
	<path fill="#FFFFFF" d="M262.9,261h-77.2c-1.5,0-2.6-1.2-2.6-2.6v-43.2c0-1.5,1.2-2.6,2.6-2.6h77.2c1.5,0,2.6,1.2,2.6,2.6v43.2
		C265.5,259.8,264.3,261,262.9,261z"/>
	
		<rect x="189.4" y="231.7" fill="#65C7C4" stroke="#000000" stroke-width="0.2" stroke-miterlimit="10" width="17.9" height="24.4"/>
	<path fill="#F3E5E3" d="M214.9,216.1l12.5,0.1c0,0,4.8,1.7,0.3,3.6h-13C214.7,219.7,210.7,217.9,214.9,216.1z"/>
	<g>
		<text transform="matrix(1 0 0 1 211.5297 237.6085)" fill="#D18957" font-family="'Helvetica-Light'" font-size="8.1055px">Hispanic</text>
	</g>
	<g>
		<text transform="matrix(1 0 0 1 211.5297 252.2432)" fill="#D18957" font-family="'Helvetica'" font-size="13.3995px">$23,000</text>
	</g>
	<path fill="#FFFFFF" d="M203,241.4c0,2.6-2.1,4.6-4.6,4.6c-2.4,0-4.4-1.9-4.6-4.2c0.1,0,2.5-1.4,1.8-2.9c0,0,3.7,1.2,5.2-0.2
		c0,0,0.5,2.5,2.3,2.3C203,241.1,203,241.3,203,241.4z"/>
	<path fill="#82321A" d="M203,241c-1.8,0.2-2.3-2.3-2.3-2.3c-1.4,1.4-5.2,0.2-5.2,0.2c0.7,1.6-1.7,2.9-1.8,2.9c0-0.1,0-0.3,0-0.4
		c0-2.6,2.1-4.6,4.6-4.6C200.8,236.8,202.8,238.6,203,241z"/>
	<path fill="#ADDBCF" d="M192.3,256.1c0,0,1.3-9,5.8-9.5c0,0,4.6-1.4,6.3,9.5H192.3z"/>
	<g>
		<circle fill="#ED2426" stroke="#ED2426" stroke-width="0.4" stroke-miterlimit="10" cx="200.4" cy="250.6" r="1.4"/>
		<g>
			
				<rect x="199.3" y="250.3" fill="#FFFFFF" stroke="#FFFFFF" stroke-width="0.4" stroke-miterlimit="10" width="2.1" height="0.2"/>
			<rect x="200.2" y="249.6" fill="#FFFFFF" stroke="#FFFFFF" stroke-width="0.4" stroke-miterlimit="10" width="0.3" height="2"/>
		</g>
	</g>
</g>
<g>
	<g>
		<path fill="#FFFFFF" d="M264.9,324h-79.3c-1.5,0-2.6-1.2-2.6-2.6v-48.2c0-1.5,1.2-2.6,2.6-2.6h79.3c1.5,0,2.6,1.2,2.6,2.6v48.2
			C267.5,322.8,266.3,324,264.9,324z"/>
		<g>
			<text transform="matrix(1 0 0 1 217.8428 298.7254)" fill="#D18957" font-family="'Helvetica-Light'" font-size="8.1055px">Multi - racial</text>
		</g>
		<g>
			<text transform="matrix(1 0 0 1 214.4346 313.7068)" fill="#D18957" font-family="'Helvetica'" font-size="13.3995px">$34.000</text>
		</g>
		<rect x="191.4" y="290.8" fill="#65C7C4" stroke="#000000" stroke-width="0.2" stroke-miterlimit="10" width="19.7" height="27"/>
		<path fill="#F7941E" d="M206,301.5c0,2.8-2.3,5.1-5.1,5.1c-2.7,0-4.8-2.1-5.1-4.7c0.1,0,2.7-1.5,2-3.2c0,0,4.1,1.3,5.7-0.2
			c0,0,0.5,2.7,2.5,2.5C206,301.1,206,301.3,206,301.5z"/>
		<line fill="none" stroke="#000000" stroke-miterlimit="10" x1="195.8" y1="301.9" x2="195.8" y2="301.9"/>
		<path fill="#82321A" d="M206,301c-2,0.2-2.5-2.5-2.5-2.5c-1.6,1.5-5.7,0.2-5.7,0.2c0.8,1.7-1.9,3.2-2,3.2c0-0.1,0-0.3,0-0.5
			c0-2.8,2.3-5.1,5.1-5.1C203.6,296.4,205.8,298.4,206,301z"/>
		<path fill="#ADDBCF" d="M194.2,317.7c0,0,1.4-10,6.4-10.5c0,0,5.1-1.5,6.9,10.5H194.2z"/>
		<g>
			<circle fill="#ED2426" stroke="#ED2426" stroke-width="0.4" stroke-miterlimit="10" cx="203.1" cy="311.6" r="1.6"/>
			<g>
				<rect x="202" y="311.3" fill="#FFFFFF" stroke="#FFFFFF" stroke-width="0.4" stroke-miterlimit="10" width="2.4" height="0.3"/>
				<rect x="203" y="310.5" fill="#FFFFFF" stroke="#FFFFFF" stroke-width="0.4" stroke-miterlimit="10" width="0.3" height="2.2"/>
			</g>
		</g>
	</g>
	<path fill="#F3E5E3" d="M216.8,275.9l12.5,0.1c0,0,4.8,1.7,0.3,3.6h-12.9C216.6,279.5,212.7,277.7,216.8,275.9z"/>
</g>
</svg>
