<?xml version="1.0" encoding="utf-8"?>
<!-- Generator: Adobe Illustrator 19.2.1, SVG Export Plug-In . SVG Version: 6.00 Build 0)  -->
<svg version="1.1" id="notebook" xmlns="http://www.w3.org/2000/svg" xmlns:xlink="http://www.w3.org/1999/xlink" x="0px" y="0px"
	 viewBox="0 0 345 360" enable-background="new 0 0 345 360" xml:space="preserve">
<g>
	<path fill="#F3E5E3" stroke="#FFFFFF" stroke-miterlimit="10" d="M319.8,353.7H25.2c-7.7,0-13.9-6.2-13.9-13.9V19.1
		c0-7.7,6.2-13.9,13.9-13.9h294.5c7.7,0,13.9,6.2,13.9,13.9v320.6C333.7,347.4,327.5,353.7,319.8,353.7z"/>
	<g>
		<path fill="none" stroke="#F7C5C1" stroke-miterlimit="10" stroke-dasharray="2.9973,2.9973" d="M301.9,336.6H41.2
			c-5.8,0-10.5-4.7-10.5-10.5V35.2c0-5.8,4.7-10.5,10.5-10.5h260.7c5.8,0,10.5,4.7,10.5,10.5v290.9
			C312.4,331.9,307.7,336.6,301.9,336.6z"/>
	</g>
</g>
<g>
	<path fill="#FFFFFF" d="M295.8,208.8h-105c-1.5,0-2.6-1.2-2.6-2.6v-64.5c0-1.5,1.2-2.6,2.6-2.6h105c1.5,0,2.6,1.2,2.6,2.6v64.5
		C298.4,207.6,297.2,208.8,295.8,208.8z"/>
	<g>
		
			<rect x="197.4" y="166.7" fill="#F37D7F" stroke="#000000" stroke-width="0.2" stroke-miterlimit="10" width="25.7" height="35.2"/>
		<circle fill="#FFFFFF" cx="209.8" cy="181.8" r="5.8"/>
		<path fill="#82321A" d="M201.7,178.3c-0.1,0.8-0.1,1.7,0.1,2.6c0.2,0.8,0.2,1.6,0.1,2.4c-0.3,1.6-1.2,3.5-4.4,2.1
			c0,0,4.8,5.3,8,0.3c0,0-2.1-2-1.4-5.2c0,0,4.7,1.7,8.8-3.6c0,0-0.5,0.6-1.4,1.5c0,0,0.1,2.5,4,2.3c0,0,0.3,2.8-1.3,4.6
			c0,0,2.7,5.5,7.7-0.2l-1.1,0.4c-1.6,0.5-3.4-0.7-3.4-2.4c0,0,0,0,0,0c0-3,0.3-8.9-3.6-10.5c-0.8-0.3-2.6-1.3-6.3-0.6
			C204.5,172.5,202,175.1,201.7,178.3z"/>
		<g>
			<path fill="#F16369" d="M206.2,171.4c0,0-1.9,1.2-1.6,1.9l1.3,3.6c0,0,3.5-1.9,7.6-0.1l1.3-3.5c0,0-0.5-1-1.6-1.8l0.4,1.4
				c0,0-4.3-0.9-8,0.3L206.2,171.4z"/>
			<path fill="#F7C5C1" d="M204.6,173.3c0,0,5.1-2.3,10.2-0.1l-1.3,3.7c0,0-3.4-1.8-7.6,0L204.6,173.3z"/>
			<path fill="#FFFFFF" d="M206.6,172.6c0,0-0.3-2.1,0.7-2.4c0,0,3.8-0.8,5.3,0.3c0,0,0.3,0,0.2,2.1
				C212.8,172.6,210.6,171.8,206.6,172.6z"/>
			<g>
				<circle fill="#FFFFFF" cx="209.7" cy="171.1" r="0.9"/>
				<g>
					<rect x="209.6" y="170.4" fill="#ED2426" width="0.2" height="1.5"/>
					
						<rect x="209.6" y="170.3" transform="matrix(9.273655e-11 -1 1 9.273655e-11 38.6239 380.7624)" fill="#ED2426" width="0.2" height="1.5"/>
				</g>
			</g>
		</g>
		<path fill="#FABFB7" d="M200.2,201.7c0,0,1.7-12.7,8.8-13.3c0,0,7.2-1.6,9.8,13.3H200.2z"/>
	</g>
	<text transform="matrix(1 0 0 1 237.0417 175.3445)" fill="#D18957" font-family="'Helvetica-Light'" font-size="11.6475px">Caucasian </text>
	<text transform="matrix(1 0 0 1 240.156 196.1658)" fill="#D18957" font-family="'Helvetica'" font-size="19.2549px">83%</text>
	<path fill="#F3E5E3" d="M234,144.1l18,0.1c0,0,6.9,2.5,0.4,5.2h-18.7C233.8,149.4,228.1,146.7,234,144.1z"/>
</g>
<g>
	<path fill="#FFFFFF" d="M295.8,296.9h-105c-1.5,0-2.6-1.2-2.6-2.6v-64.5c0-1.5,1.2-2.6,2.6-2.6h105c1.5,0,2.6,1.2,2.6,2.6v64.5
		C298.4,295.7,297.2,296.9,295.8,296.9z"/>
	<g>
		
			<rect x="197.4" y="254.8" fill="#F37D7F" stroke="#000000" stroke-width="0.2" stroke-miterlimit="10" width="25.7" height="35.2"/>
		<g>
			<g>
				<circle fill="#FED49A" cx="209.8" cy="270" r="5.8"/>
				<path fill="#82321A" d="M201.7,266.4c-0.1,0.8-0.1,1.7,0.1,2.6c0.2,0.8,0.2,1.6,0.1,2.4c-0.3,1.6-1.2,3.5-4.4,2.1
					c0,0,4.8,5.3,8,0.3c0,0-2.1-2-1.4-5.2c0,0,4.7,1.7,8.8-3.6c0,0-0.5,0.6-1.4,1.5c0,0,0.1,2.5,4,2.3c0,0,0.3,2.8-1.3,4.6
					c0,0,2.7,5.5,7.7-0.2l-1.1,0.4c-1.6,0.5-3.4-0.7-3.4-2.4c0,0,0,0,0,0c0-3,0.3-8.9-3.6-10.5c-0.8-0.3-2.6-1.3-6.3-0.6
					C204.5,260.7,202,263.2,201.7,266.4z"/>
				<g>
					<path fill="#F16369" d="M206.2,259.6c0,0-1.9,1.2-1.6,1.9l1.3,3.6c0,0,3.5-1.9,7.6-0.1l1.3-3.5c0,0-0.5-1-1.6-1.8l0.4,1.4
						c0,0-4.3-0.9-8,0.3L206.2,259.6z"/>
					<path fill="#F7C5C1" d="M204.6,261.4c0,0,5.1-2.3,10.2-0.1l-1.3,3.7c0,0-3.4-1.8-7.6,0L204.6,261.4z"/>
					<path fill="#FFFFFF" d="M206.6,260.7c0,0-0.3-2.1,0.7-2.4c0,0,3.8-0.8,5.3,0.3c0,0,0.3,0,0.2,2.1
						C212.8,260.7,210.6,260,206.6,260.7z"/>
					<g>
						<circle fill="#FFFFFF" cx="209.7" cy="259.3" r="0.9"/>
						<g>
							<rect x="209.6" y="258.6" fill="#ED2426" width="0.2" height="1.5"/>
							
								<rect x="209.6" y="258.4" transform="matrix(1.149934e-10 -1 1 1.149934e-10 -49.5266 468.9128)" fill="#ED2426" width="0.2" height="1.5"/>
						</g>
					</g>
				</g>
			</g>
			<path fill="#FABFB7" d="M200.2,289.8c0,0,1.7-12.7,8.8-13.3c0,0,7.2-1.6,9.8,13.3H200.2z"/>
		</g>
	</g>
	<text transform="matrix(1 0 0 1 241.5524 263.1082)" fill="#D18957" font-family="'Helvetica-Light'" font-size="11.6475px">Asian </text>
	<text transform="matrix(1 0 0 1 239.319 284.3142)" fill="#D18957" font-family="'Helvetica'" font-size="19.2549px">6%</text>
	<path fill="#F3E5E3" d="M234,232.3l18,0.1c0,0,6.9,2.5,0.4,5.2h-18.7C233.8,237.5,228.1,234.9,234,232.3z"/>
</g>
<text transform="matrix(1 0 0 1 37.5 63)" fill="#F16369" font-family="'Helvetica-Bold'" font-size="34.9876px">Ethnicity</text>
<text transform="matrix(1 0 0 1 37.5004 98.9998)" fill="#82321A" font-family="'Helvetica-Light'" font-size="15.4845px">Percentage of Nurses by Ethnicity</text>
<g>
	<path fill="#FFFFFF" d="M149,208.7H44.3c-1.5,0-2.6-1.2-2.6-2.6v-64.3c0-1.5,1.2-2.6,2.6-2.6H149c1.5,0,2.6,1.2,2.6,2.6v64.3
		C151.6,207.5,150.5,208.7,149,208.7z"/>
	<rect x="50.9" y="166.7" fill="#F37D7F" stroke="#000000" stroke-width="0.2" stroke-miterlimit="10" width="25.7" height="35.1"/>
	<circle fill="#F3E5E3" cx="63.2" cy="181.8" r="5.8"/>
	<path fill="#82321A" d="M55.2,178.3c-0.1,0.8-0.1,1.7,0.1,2.6c0.2,0.8,0.2,1.6,0.1,2.4c-0.3,1.6-1.2,3.5-4.3,2.1c0,0,4.8,5.3,8,0.3
		c0,0-2.1-2-1.4-5.2c0,0,4.7,1.7,8.8-3.6c0,0-0.5,0.6-1.4,1.5c0,0,0.1,2.4,4,2.3c0,0,0.3,2.8-1.3,4.6c0,0,2.7,5.5,7.7-0.2l-1.1,0.3
		c-1.6,0.5-3.3-0.7-3.4-2.4c0,0,0,0,0,0c0-3,0.3-8.9-3.6-10.5c-0.8-0.3-2.6-1.3-6.3-0.6C57.9,172.5,55.5,175.1,55.2,178.3z"/>
	<g>
		<path fill="#F16369" d="M59.6,171.4c0,0-1.9,1.2-1.6,1.9l1.3,3.6c0,0,3.5-1.9,7.6-0.1l1.3-3.5c0,0-0.5-1-1.6-1.8l0.4,1.4
			c0,0-4.3-0.9-8,0.3L59.6,171.4z"/>
		<path fill="#F7C5C1" d="M58,173.3c0,0,5.1-2.3,10.2-0.1l-1.3,3.6c0,0-3.3-1.8-7.6,0L58,173.3z"/>
		<path fill="#FFFFFF" d="M60,172.6c0,0-0.3-2.1,0.7-2.4c0,0,3.8-0.8,5.3,0.3c0,0,0.3,0,0.2,2C66.2,172.6,64,171.8,60,172.6z"/>
		<g>
			<circle fill="#FFFFFF" cx="63.1" cy="171.1" r="0.9"/>
			<g>
				<rect x="63" y="170.4" fill="#ED2426" width="0.2" height="1.5"/>
				
					<rect x="63" y="170.3" transform="matrix(1.003953e-10 -1 1 1.003953e-10 -107.9531 234.1989)" fill="#ED2426" width="0.2" height="1.5"/>
			</g>
		</g>
	</g>
	<path fill="#FABFB7" d="M53.7,201.6c0,0,1.7-12.6,8.8-13.3c0,0,7.2-1.6,9.8,13.3H53.7z"/>
	<path fill="#F3E5E3" d="M87.4,144.2l18,0.1c0,0,6.9,2.5,0.4,5.2H87.1C87.1,149.4,81.5,146.8,87.4,144.2z"/>
	<g>
		<text transform="matrix(1 0 0 1 93.5124 196.1131)" fill="#D18957" font-family="'Helvetica'" font-size="19.2549px">3%</text>
	</g>
	<g>
		<text transform="matrix(1 0 0 1 91.9275 177.3641)" fill="#D18957" font-family="'Helvetica-Light'" font-size="11.6475px">Others</text>
	</g>
</g>
<g>
	<path fill="#FFFFFF" d="M149,296.8H44.3c-1.5,0-2.6-1.2-2.6-2.6v-64.3c0-1.5,1.2-2.6,2.6-2.6H149c1.5,0,2.6,1.2,2.6,2.6v64.3
		C151.6,295.7,150.5,296.8,149,296.8z"/>
	<rect x="47.5" y="254.8" fill="#F37D7F" stroke="#000000" stroke-width="0.2" stroke-miterlimit="10" width="25.7" height="35.1"/>
	<circle fill="#F3E5E3" cx="59.8" cy="269.9" r="5.8"/>
	<path fill="#82321A" d="M51.8,266.4c-0.1,0.8-0.1,1.7,0.1,2.6c0.2,0.8,0.2,1.6,0.1,2.4c-0.3,1.6-1.2,3.5-4.3,2.1c0,0,4.8,5.3,8,0.3
		c0,0-2.1-2-1.4-5.2c0,0,4.7,1.7,8.8-3.6c0,0-0.5,0.6-1.4,1.5c0,0,0.1,2.4,4,2.3c0,0,0.3,2.8-1.3,4.6c0,0,2.7,5.5,7.7-0.2l-1.1,0.3
		c-1.6,0.5-3.3-0.7-3.4-2.4c0,0,0,0,0,0c0-3,0.3-8.9-3.6-10.5c-0.8-0.3-2.6-1.3-6.3-0.6C54.5,260.7,52.1,263.2,51.8,266.4z"/>
	<g>
		<path fill="#F16369" d="M56.2,259.6c0,0-1.9,1.2-1.6,1.9l1.3,3.6c0,0,3.5-1.9,7.6-0.1l1.3-3.5c0,0-0.5-1-1.6-1.8l0.4,1.4
			c0,0-4.3-0.9-8,0.3L56.2,259.6z"/>
		<path fill="#F7C5C1" d="M54.6,261.4c0,0,5.1-2.3,10.2-0.1l-1.3,3.6c0,0-3.3-1.8-7.6,0L54.6,261.4z"/>
		<path fill="#FFFFFF" d="M56.6,260.7c0,0-0.3-2.1,0.7-2.4c0,0,3.8-0.8,5.3,0.3c0,0,0.3,0,0.2,2C62.8,260.7,60.6,260,56.6,260.7z"/>
		<g>
			<circle fill="#FFFFFF" cx="59.7" cy="259.3" r="0.9"/>
			<g>
				<rect x="59.6" y="258.6" fill="#ED2426" width="0.2" height="1.5"/>
				
					<rect x="59.6" y="258.5" transform="matrix(1.115499e-10 -1 1 1.115499e-10 -199.5169 318.9361)" fill="#ED2426" width="0.2" height="1.5"/>
			</g>
		</g>
	</g>
	<path fill="#FABFB7" d="M50.3,289.8c0,0,1.7-12.6,8.8-13.3c0,0,7.2-1.6,9.8,13.3H50.3z"/>
	<path fill="#F3E5E3" d="M87.1,232.3l18,0.1c0,0,6.9,2.5,0.4,5.2H86.8C86.8,237.6,81.1,235,87.1,232.3z"/>
	<g>
		<text transform="matrix(1 0 0 1 90.0984 284.2644)" fill="#D18957" font-family="'Helvetica'" font-size="19.2549px">3%</text>
	</g>
	<g>
		<text transform="matrix(1 0 0 1 81.6276 264.6092)" fill="#D18957" font-family="'Helvetica-Light'" font-size="9.7301px">Hispanic/Latino</text>
	</g>
</g>
</svg>
