<?xml version="1.0" encoding="utf-8"?>
<!-- Generator: Adobe Illustrator 19.2.1, SVG Export Plug-In . SVG Version: 6.00 Build 0)  -->
<svg version="1.1" id="notebook" xmlns="http://www.w3.org/2000/svg" xmlns:xlink="http://www.w3.org/1999/xlink" x="0px" y="0px"
	 viewBox="0 0 345 360" enable-background="new 0 0 345 360" xml:space="preserve">
<g>
	<path fill="#F3E5E3" stroke="#FFFFFF" stroke-miterlimit="10" d="M319.8,353.7H25.2c-7.7,0-13.9-6.2-13.9-13.9V19.1
		c0-7.7,6.2-13.9,13.9-13.9h294.5c7.7,0,13.9,6.2,13.9,13.9v320.6C333.7,347.4,327.5,353.7,319.8,353.7z"/>
	<g>
		<path fill="none" stroke="#F7C5C1" stroke-miterlimit="10" stroke-dasharray="2.9973,2.9973" d="M301.9,336.6H41.2
			c-5.8,0-10.5-4.7-10.5-10.5V35.2c0-5.8,4.7-10.5,10.5-10.5h260.7c5.8,0,10.5,4.7,10.5,10.5v290.9
			C312.4,331.9,307.7,336.6,301.9,336.6z"/>
	</g>
</g>
<g>
	<path fill="#FFFFFF" d="M247.9,324H97.1c-1.5,0-2.6-1.2-2.6-2.6v-93.4c0-1.5,1.2-2.6,2.6-2.6h150.7c1.5,0,2.6,1.2,2.6,2.6v93.4
		C250.5,322.8,249.3,324,247.9,324z"/>
	<g>
		
			<rect x="107.6" y="264.4" fill="#F37D7F" stroke="#000000" stroke-width="0.2" stroke-miterlimit="10" width="36.4" height="49.8"/>
		<circle fill="#FFFFFF" cx="125.1" cy="285.9" r="8.2"/>
		<path fill="#82321A" d="M113.7,280.8c-0.1,1.1-0.1,2.4,0.2,3.7c0.2,1.1,0.3,2.3,0.1,3.4c-0.4,2.3-1.7,4.9-6.2,3
			c0,0,6.8,7.6,11.4,0.5c0,0-3-2.8-2-7.3c0,0,6.6,2.4,12.4-5.1c0,0-0.7,0.8-2,2.2c0,0,0.1,3.5,5.7,3.2c0,0,0.4,3.9-1.8,6.6
			c0,0,3.8,7.7,11-0.3l-1.5,0.5c-2.3,0.7-4.7-0.9-4.8-3.4c0,0,0,0,0-0.1c0-4.3,0.4-12.6-5.1-14.9c-1.2-0.5-3.7-1.8-8.9-0.9
			C117.6,272.7,114.1,276.3,113.7,280.8z"/>
		<g>
			<path fill="#F16369" d="M120,271.1c0,0-2.6,1.8-2.2,2.6l1.9,5.1c0,0,5-2.7,10.8-0.2l1.8-5c0,0-0.7-1.5-2.3-2.5l0.6,1.9
				c0,0-6.1-1.3-11.3,0.4L120,271.1z"/>
			<path fill="#F7C5C1" d="M117.7,273.7c0,0,7.2-3.2,14.5-0.1l-1.8,5.2c0,0-4.7-2.5-10.8,0L117.7,273.7z"/>
			<path fill="#FFFFFF" d="M120.5,272.8c0,0-0.4-3,1-3.3c0,0,5.4-1.1,7.6,0.4c0,0,0.4,0,0.3,2.9
				C129.3,272.7,126.2,271.7,120.5,272.8z"/>
			<g>
				<circle fill="#FFFFFF" cx="124.9" cy="270.7" r="1.3"/>
				<g>
					<rect x="124.8" y="269.7" fill="#ED2426" width="0.3" height="2.2"/>
					
						<rect x="124.8" y="269.6" transform="matrix(9.699003e-11 -1 1 9.699003e-11 -145.7108 395.582)" fill="#ED2426" width="0.3" height="2.2"/>
				</g>
			</g>
		</g>
		<path fill="#FABFB7" d="M111.6,313.9c0,0,2.4-17.9,12.5-18.8c0,0,10.2-2.2,13.9,18.8H111.6z"/>
	</g>
	<text transform="matrix(1 0 0 1 163.6377 276.6985)" fill="#D18957" font-family="'Helvetica-Light'" font-size="16.4823px">Caucasian </text>
	<text transform="matrix(1 0 0 1 168.043 306.1604)" fill="#D18957" font-family="'Helvetica'" font-size="27.2475px">83%</text>
	<path fill="#F3E5E3" d="M159.4,232.5l25.5,0.1c0,0,9.8,3.5,0.6,7.3H159C159,239.9,151,236.2,159.4,232.5z"/>
</g>
<g>
	<path fill="#FFFFFF" d="M247.9,216H97.1c-1.5,0-2.6-1.2-2.6-2.6v-93.4c0-1.5,1.2-2.6,2.6-2.6h150.7c1.5,0,2.6,1.2,2.6,2.6v93.4
		C250.5,214.8,249.3,216,247.9,216z"/>
	<g>
		
			<rect x="107.6" y="156.4" fill="#F37D7F" stroke="#000000" stroke-width="0.2" stroke-miterlimit="10" width="36.4" height="49.8"/>
		<g>
			<g>
				<circle fill="#FED49A" cx="125.1" cy="177.9" r="8.2"/>
				<path fill="#82321A" d="M113.7,172.8c-0.1,1.1-0.1,2.4,0.2,3.7c0.2,1.1,0.3,2.3,0.1,3.4c-0.4,2.3-1.7,4.9-6.2,3
					c0,0,6.8,7.6,11.4,0.5c0,0-3-2.8-2-7.3c0,0,6.6,2.4,12.4-5.1c0,0-0.7,0.8-2,2.2c0,0,0.1,3.5,5.7,3.2c0,0,0.4,3.9-1.8,6.6
					c0,0,3.8,7.7,11-0.3l-1.5,0.5c-2.3,0.7-4.7-0.9-4.8-3.4c0,0,0,0,0-0.1c0-4.3,0.4-12.6-5.1-14.9c-1.2-0.5-3.7-1.8-8.9-0.9
					C117.6,164.7,114.1,168.3,113.7,172.8z"/>
				<g>
					<path fill="#F16369" d="M120,163.1c0,0-2.6,1.8-2.2,2.6l1.9,5.1c0,0,5-2.7,10.8-0.2l1.8-5c0,0-0.7-1.5-2.3-2.5l0.6,1.9
						c0,0-6.1-1.3-11.3,0.4L120,163.1z"/>
					<path fill="#F7C5C1" d="M117.7,165.7c0,0,7.2-3.2,14.5-0.1l-1.8,5.2c0,0-4.7-2.5-10.8,0L117.7,165.7z"/>
					<path fill="#FFFFFF" d="M120.5,164.8c0,0-0.4-3,1-3.3c0,0,5.4-1.1,7.6,0.4c0,0,0.4,0,0.3,2.9
						C129.3,164.7,126.2,163.7,120.5,164.8z"/>
					<g>
						<circle fill="#FFFFFF" cx="124.9" cy="162.7" r="1.3"/>
						<g>
							<rect x="124.8" y="161.7" fill="#ED2426" width="0.3" height="2.2"/>
							
								<rect x="124.8" y="161.6" transform="matrix(1.127188e-10 -1 1 1.127188e-10 -37.7108 287.582)" fill="#ED2426" width="0.3" height="2.2"/>
						</g>
					</g>
				</g>
			</g>
			<path fill="#FABFB7" d="M111.6,205.9c0,0,2.4-17.9,12.5-18.8c0,0,10.2-2.2,13.9,18.8H111.6z"/>
		</g>
	</g>
	<text transform="matrix(1 0 0 1 170.02 168.1516)" fill="#D18957" font-family="'Helvetica-Light'" font-size="16.4823px">Asian </text>
	<text transform="matrix(1 0 0 1 166.8599 198.1594)" fill="#D18957" font-family="'Helvetica'" font-size="27.2475px">6%</text>
	<path fill="#F3E5E3" d="M159.4,124.5l25.5,0.1c0,0,9.8,3.5,0.6,7.3H159C159,131.9,151,128.2,159.4,124.5z"/>
</g>
<text transform="matrix(1 0 0 1 37.5 63)" fill="#F16369" font-family="'Helvetica-Bold'" font-size="34.9876px">Ethnicity</text>
<text transform="matrix(1 0 0 1 37.5004 98.9998)" fill="#82321A" font-family="'Helvetica-Light'" font-size="15.4845px">Percentage of Nurses by Ethnicity</text>
</svg>
