<?xml version="1.0" encoding="utf-8"?>
<!-- Generator: Adobe Illustrator 19.2.1, SVG Export Plug-In . SVG Version: 6.00 Build 0)  -->
<svg version="1.1" id="nurseage" xmlns="http://www.w3.org/2000/svg" xmlns:xlink="http://www.w3.org/1999/xlink" x="0px" y="0px"
	 viewBox="0 0 690 360" enable-background="new 0 0 690 360" xml:space="preserve">
<path opacity="0.35" fill="#ADDBCF" d="M665.5,353.6H24.7c-10.9,0-19.6-8.8-19.6-19.6V25.4c0-10.9,8.8-19.6,19.6-19.6h640.7
	c10.9,0,19.6,8.8,19.6,19.6v308.6C685.1,344.8,676.3,353.6,665.5,353.6z"/>
<text transform="matrix(1 0 0 1 95.8475 85.0103)" fill="#5AC5C8" font-family="'Helvetica-Bold'" font-size="32.2841px">How old are nurses today?</text>
<text transform="matrix(1 0 0 1 325.6514 132.1831)" font-family="'MyriadPro-Regular'" font-size="34.8712px">LPN</text>
<g>
	<text transform="matrix(1 0 0 1 485.4966 131.1828)" font-family="'MyriadPro-Regular'" font-size="34.8712px">RN</text>
</g>
<text transform="matrix(1 0 0 1 26.1393 43.1273)" fill="#196B78" font-family="'Helvetica'" font-size="42.1567px">AGE</text>
<g>
	<g>
		<path opacity="0.72" fill="#FFFFFF" d="M313.5,143.7l-16,43.9c0,0,2.5,18.6,17.1,6.2l16-43.9L313.5,143.7z"/>
		<path fill="#FFFFFF" d="M314.1,138.8l19.9,7.3c0,0,5.5,4-1.5,4l-19.9-7.3C312.7,142.8,306.8,138.6,314.1,138.8z"/>
		<path fill="#ADDBCF" d="M314.4,141.2l-16.7,45.9c0,0,1.7,10.3,8.5,10.4c0,0-4.7-2.7-3.6-9.2l15.8-43.4l-4.7-1.7L314.4,141.2z"/>
		<path fill="none" stroke="#FFFFFF" stroke-miterlimit="10" d="M313.5,143.7l-16,43.9c0,0,2.5,18.6,17.1,6.2l16-43.9L313.5,143.7z"
			/>
		<path fill="#65C7C4" d="M322.5,171.8l-12.4-4.5l-6.5,17.9c0,0-5.1,9.1,2.5,12.3c0,0,5.9,0.9,9.6-7.1L322.5,171.8z"/>
	</g>
	<text transform="matrix(1 0 0 1 308.1299 196.5054)" fill="#9B1C1F" font-family="'Helvetica'" font-size="37.072px">42.6%</text>
</g>
<g>
	<g>
		<path opacity="0.72" fill="#FFFFFF" d="M309.3,266.7l-14,38.4c0,0,2.2,16.2,14.9,5.5l14-38.4L309.3,266.7z"/>
		<path fill="#FFFFFF" d="M309.9,262.5l17.5,6.4c0,0,4.8,3.5-1.3,3.5l-17.5-6.4C308.7,266,303.5,262.3,309.9,262.5z"/>
		<path fill="#ADDBCF" d="M310.1,264.6l-14.7,40.2c0,0,1.4,9,7.5,9.1c0,0-4.1-2.4-3.2-8.1l13.9-38l-4.1-1.5L310.1,264.6z"/>
		<path fill="none" stroke="#FFFFFF" stroke-miterlimit="10" d="M309.3,266.7l-14,38.4c0,0,2.2,16.2,14.9,5.5l14-38.4L309.3,266.7z"
			/>
		<path fill="#65C7C4" d="M317.3,291.4l-10.8-4l-5.7,15.6c0,0-4.5,8,2.2,10.8c0,0,5.1,0.7,8.4-6.2L317.3,291.4z"/>
	</g>
	<text transform="matrix(1 0 0 1 309.8041 311.0222)" fill="#9B1C1F" font-family="'Helvetica'" font-size="29.546px">48.5%</text>
</g>
<g>
	<g>
		<g>
			<g>
				<path fill="#FED49A" d="M82.1,122.3c-0.1,12.8-10.5,23.2-23.4,23.1c-12.1-0.1-22-9.4-23-21.3c0.3-0.2,12.5-6.8,8.9-14.7
					c0,0,18.8,5.9,25.9-1c0,0,2.3,12.4,11.4,11.5C82,120.8,82.1,121.5,82.1,122.3z"/>
				<path fill="none" stroke="#000000" stroke-miterlimit="10" d="M35.7,124.1C35.7,124.1,35.7,124.1,35.7,124.1"/>
				<path fill="#82321A" d="M82,120c-9.2,0.9-11.4-11.5-11.4-11.5c-7.2,6.8-25.9,1-25.9,1c3.6,7.9-8.6,14.5-8.9,14.7
					c-0.1-0.7-0.1-1.4-0.1-2.1c0.1-12.8,10.5-23.2,23.4-23.1C71,99,80.9,108.2,82,120z"/>
			</g>
			<path fill="#ADDBCF" d="M28.5,196c0,0,6.3-45.4,29.1-47.7c0,0,23.1-7,31.6,47.7H28.5z"/>
			<g>
				<circle fill="#ED2426" stroke="#ED2426" stroke-width="0.4" stroke-miterlimit="10" cx="69" cy="168.4" r="7.2"/>
				<g>
					
						<rect x="63.6" y="167.1" fill="#FFFFFF" stroke="#FFFFFF" stroke-width="0.4" stroke-miterlimit="10" width="10.8" height="1.2"/>
					
						<rect x="68.2" y="163.4" fill="#FFFFFF" stroke="#FFFFFF" stroke-width="0.4" stroke-miterlimit="10" width="1.6" height="10"/>
				</g>
			</g>
		</g>
		<g>
			<polygon opacity="0.56" fill="#ADDBCF" points="228.4,187.1 228.4,169.5 243.7,178.3 258.9,187.1 243.7,195.9 228.4,204.7 			"/>
			<rect x="85.4" y="177.2" opacity="0.56" fill="#ADDBCF" width="143.1" height="18.7"/>
		</g>
	</g>
	<text transform="matrix(1 0 0 1 90.9642 180.3936)" fill="#D18957" font-family="'Helvetica-Light'" font-size="32.7923px">Under 40</text>
</g>
<path fill="none" stroke="#000000" stroke-miterlimit="10" d="M50.9,327.5C50.8,327.5,50.8,327.5,50.9,327.5"/>
<g>
	<g>
		<g>
			<path fill="#FED49A" d="M83,238.1c-0.1,13-10.7,23.5-23.6,23.4c-12.3-0.1-22.3-9.5-23.3-21.6c0.3-0.2,12.7-6.9,9-14.9
				c0,0,19,5.9,26.3-1c0,0,2.3,12.6,11.6,11.7C83,236.5,83,237.3,83,238.1z"/>
			<path fill="none" stroke="#000000" stroke-miterlimit="10" d="M36.1,239.9C36.1,239.9,36.1,239.9,36.1,239.9"/>
			<path fill="#D18957" d="M82.9,235.7c-9.3,0.9-11.6-11.7-11.6-11.7c-7.3,6.9-26.3,1-26.3,1c3.7,8-8.7,14.7-9,14.9
				c-0.1-0.7-0.1-1.4-0.1-2.1c0.1-13,10.7-23.5,23.6-23.4C71.8,214.5,81.8,223.8,82.9,235.7z"/>
			<path fill="#ADDBCF" d="M28.7,312.7c0,0,6.4-46,29.5-48.3c0,0,23.4-7,32,48.3H28.7z"/>
			<g>
				<circle fill="#ED2426" stroke="#ED2426" stroke-width="0.4" stroke-miterlimit="10" cx="69.8" cy="284.7" r="7.2"/>
				<g>
					
						<rect x="64.3" y="283.5" fill="#FFFFFF" stroke="#FFFFFF" stroke-width="0.4" stroke-miterlimit="10" width="10.9" height="1.2"/>
					
						<rect x="69" y="279.7" fill="#FFFFFF" stroke="#FFFFFF" stroke-width="0.4" stroke-miterlimit="10" width="1.6" height="10.1"/>
				</g>
			</g>
		</g>
		<g>
			<polygon opacity="0.56" fill="#ADDBCF" points="228.5,303.8 228.5,286.2 243.7,295 258.9,303.8 243.7,312.5 228.5,321.3 			"/>
			<rect x="86" y="293.9" opacity="0.56" fill="#ADDBCF" width="142.5" height="18.6"/>
		</g>
	</g>
	<text transform="matrix(1 0 0 1 93.9579 300.6079)" fill="#D18957" font-family="'Helvetica-Light'" font-size="32.6673px">41 — 60</text>
</g>
<g>
	<g>
		<path opacity="0.72" fill="#FFFFFF" d="M471.3,145.6l-13.7,37.6c0,0,2.2,15.9,14.6,5.3L486,151L471.3,145.6z"/>
		<path fill="#FFFFFF" d="M471.9,141.5l17.1,6.2c0,0,4.7,3.4-1.2,3.4l-17.1-6.2C470.7,144.9,465.6,141.3,471.9,141.5z"/>
		<path fill="#ADDBCF" d="M472.1,143.5l-14.4,39.4c0,0,1.4,8.8,7.3,9c0,0-4-2.3-3.1-7.9l13.6-37.2l-4-1.5L472.1,143.5z"/>
		<path fill="none" stroke="#FFFFFF" stroke-miterlimit="10" d="M471.3,145.6l-13.7,37.6c0,0,2.2,15.9,14.6,5.3L486,151L471.3,145.6
			z"/>
		<path fill="#65C7C4" d="M479.1,169.8l-10.6-3.9l-5.6,15.3c0,0-4.4,7.8,2.2,10.6c0,0,5,0.7,8.3-6.1L479.1,169.8z"/>
	</g>
	<text transform="matrix(1 0 0 1 472.2456 190.499)" fill="#9B1C1F" font-family="'Helvetica'" font-size="41.8087px">37.8%</text>
</g>
<g>
	<g>
		<path opacity="0.72" fill="#FFFFFF" d="M470.3,275.5l-11.5,31.6c0,0,1.8,13.4,12.3,4.5l11.5-31.6L470.3,275.5z"/>
		<path fill="#FFFFFF" d="M470.7,272l14.4,5.2c0,0,3.9,2.9-1,2.9l-14.4-5.2C469.7,274.9,465.5,271.9,470.7,272z"/>
		<path fill="#ADDBCF" d="M470.9,273.7l-12.1,33.1c0,0,1.2,7.4,6.1,7.5c0,0-3.4-2-2.6-6.7l11.4-31.3l-3.4-1.2L470.9,273.7z"/>
		<path fill="none" stroke="#FFFFFF" stroke-miterlimit="10" d="M470.3,275.5l-11.5,31.6c0,0,1.8,13.4,12.3,4.5l11.5-31.6
			L470.3,275.5z"/>
		<path fill="#65C7C4" d="M477.6,293.7l-8.9-3.3l-5.2,14.2c0,0-3.9,7.3,1.5,9.7c0,0,4.3,0.5,7.2-5.9L477.6,293.7z"/>
	</g>
	<text transform="matrix(1 0 0 1 480.2759 311.0222)" fill="#9B1C1F" font-family="'Helvetica'" font-size="30px">53.2%</text>
</g>
</svg>
