<?xml version="1.0" encoding="utf-8"?>
<!-- Generator: Adobe Illustrator 19.2.1, SVG Export Plug-In . SVG Version: 6.00 Build 0)  -->
<svg version="1.1" id="rns" xmlns="http://www.w3.org/2000/svg" xmlns:xlink="http://www.w3.org/1999/xlink" x="0px" y="0px"
	 viewBox="0 0 690 360" enable-background="new 0 0 690 360" xml:space="preserve">
<path fill="none" stroke="#000000" stroke-miterlimit="10" d="M49.4,92.1C49.4,92.1,49.4,92.1,49.4,92.1"/>
<path opacity="0.35" fill="#ADDBCF" d="M666.7,354.6H24c-10.9,0-19.6-8.8-19.6-19.6V25.1C4.3,14.2,13.1,5.4,24,5.4h642.7
	c10.9,0,19.6,8.8,19.6,19.6V335C686.3,345.8,677.5,354.6,666.7,354.6z"/>
<g>
	<g>
		<g>
			<path fill="#FABFB7" d="M44.7,69.5c0,0,9.3,13.8,9.7,14.3c0.4,0.5,9.4-7,20.4,0l10.7-14.2C85.4,69.6,68.2,57.5,44.7,69.5z"/>
			<ellipse fill="#ED2426" stroke="#ED2426" stroke-miterlimit="10" cx="65.1" cy="73" rx="5.5" ry="5.3"/>
			<g>
				<rect x="60.9" y="72.1" fill="#FFFFFF" stroke="#FFFFFF" stroke-miterlimit="10" width="8.3" height="0.9"/>
				<rect x="64.5" y="69.3" fill="#FFFFFF" stroke="#FFFFFF" stroke-miterlimit="10" width="1.2" height="7.5"/>
			</g>
		</g>
		<ellipse fill="#FFFFFF" cx="65.1" cy="109" rx="18.7" ry="18.2"/>
		<path fill="#82321A" d="M38.9,97.8c-0.2,2.5-0.2,5.3,0.4,8.3c0.5,2.5,0.6,5.1,0.2,7.6c-0.9,5-4,11-14.1,6.7c0,0,15.5,16.9,26,1
			c0,0-14.1-15.2,4.1-28.1c4.1-2.9,17.9-5.9,25.9,6.8c5.5,8.7-0.1,18.4-1.8,20.3c0,0,8.6,17.3,25.1-0.7l-3.5,1.1
			c-5.3,1.7-10.9-2.1-10.9-7.5c0,0,0-0.1,0-0.1c0.1-9.6,0.9-28.2-11.8-33.3c-2.6-1.1-8.5-4.1-20.5-2C47.8,79.6,39.8,87.7,38.9,97.8z
			"/>
	</g>
	<path fill="#FABFB7" d="M63.9,109.8l133.5-50c-2.3-2,26.3,20.8,3.6,43.4L63.9,109.8z"/>
	<g>
		
			<ellipse transform="matrix(0.987 -0.1605 0.1605 0.987 -12.5702 29.3774)" fill="#9B1C1F" cx="175.6" cy="92.5" rx="38.7" ry="38.7"/>
		
			<ellipse transform="matrix(0.987 -0.1605 0.1605 0.987 -12.5601 29.5023)" fill="#FFFFFF" stroke="#9B1C1F" stroke-miterlimit="10" cx="176.4" cy="92.5" rx="28.5" ry="28.5"/>
		
			<rect x="234" y="110.2" transform="matrix(0.5845 -0.8114 0.8114 0.5845 -13.7387 255.2485)" fill="none" stroke="#9B1C1F" stroke-miterlimit="10" width="16.7" height="61.7"/>
		
			<rect x="208.2" y="112.2" transform="matrix(0.5491 -0.8357 0.8357 0.5491 -3.8859 230.6311)" fill="none" stroke="#9B1C1F" stroke-miterlimit="10" width="7.3" height="13.4"/>
		<g>
			<rect x="174.5" y="89.3" fill="#9B1C1F" stroke="#9B1C1F" stroke-miterlimit="10" width="3.6" height="17.8"/>
			<polygon fill="#9B1C1F" stroke="#9B1C1F" stroke-miterlimit="10" points="167.3,87.6 185.4,87.6 177.1,75.4 			"/>
		</g>
	</g>
</g>
<g>
	<g>
		<g>
			<path fill="#FABFB7" d="M45.4,234.7c0,0,8,11.9,8.4,12.4c0.3,0.4,8.2-6.1,17.7,0l9.3-12.3C80.7,234.9,65.8,224.4,45.4,234.7z"/>
			<ellipse fill="#ED2426" stroke="#ED2426" stroke-miterlimit="10" cx="63.1" cy="237.9" rx="4.8" ry="4.6"/>
			<g>
				<rect x="59.5" y="237.1" fill="#FFFFFF" stroke="#FFFFFF" stroke-miterlimit="10" width="7.2" height="0.8"/>
				<rect x="62.6" y="234.6" fill="#FFFFFF" stroke="#FFFFFF" stroke-miterlimit="10" width="1.1" height="6.5"/>
			</g>
		</g>
		<ellipse fill="#FFFFFF" cx="63.1" cy="269" rx="16.2" ry="15.8"/>
		<path fill="#82321A" d="M40.3,259.3c-0.2,2.2-0.1,4.6,0.4,7.2c0.4,2.2,0.5,4.4,0.2,6.6c-0.8,4.4-3.4,9.5-12.3,5.8
			c0,0,13.4,14.7,22.6,0.9c0,0-12.2-13.2,3.6-24.4c3.6-2.5,15.5-5.1,22.5,5.9c4.8,7.5-0.1,16-1.5,17.6c0,0,7.5,15,21.8-0.6l-3,1
			c-4.6,1.4-9.4-1.8-9.5-6.5c0,0,0-0.1,0-0.1c0.1-8.3,0.8-24.4-10.2-28.9c-2.3-0.9-7.4-3.6-17.8-1.8
			C48.1,243.6,41.2,250.6,40.3,259.3z"/>
	</g>
	<path fill="#FABFB7" d="M62,269.7l115.8-43.4c-2-1.7,22.8,18,3.1,37.7L62,269.7z"/>
	<g>
		
			<ellipse transform="matrix(0.987 -0.1605 0.1605 0.987 -38.821 28.8072)" fill="#9B1C1F" cx="158.9" cy="254.7" rx="33.6" ry="33.6"/>
		
			<ellipse transform="matrix(0.987 -0.1605 0.1605 0.987 -38.8123 28.9155)" fill="#FFFFFF" stroke="#9B1C1F" stroke-miterlimit="10" cx="159.6" cy="254.7" rx="24.8" ry="24.8"/>
		
			<rect x="209.6" y="270.1" transform="matrix(0.5845 -0.8114 0.8114 0.5845 -150.7541 299.2917)" fill="none" stroke="#9B1C1F" stroke-miterlimit="10" width="14.5" height="53.5"/>
		
			<rect x="187.2" y="271.8" transform="matrix(0.5491 -0.8357 0.8357 0.5491 -146.2157 284.2629)" fill="none" stroke="#9B1C1F" stroke-miterlimit="10" width="6.3" height="11.7"/>
		<g>
			<rect x="158" y="251.9" fill="#9B1C1F" stroke="#9B1C1F" stroke-miterlimit="10" width="3.2" height="15.4"/>
			<polygon fill="#9B1C1F" stroke="#9B1C1F" stroke-miterlimit="10" points="151.7,250.5 167.5,250.5 160.2,239.9 			"/>
		</g>
	</g>
</g>
<g>
	<text transform="matrix(1 0 0 1 277.1675 104.0842)"><tspan x="0" y="0" fill="#82321A" font-family="'Helvetica-Bold'" font-size="23.7381px">RNs increased</tspan><tspan x="0" y="28.5" fill="#82321A" font-family="'Helvetica-Bold'" font-size="23.7381px">per100,00 population(per capital)</tspan></text>
	<text transform="matrix(1 0 0 1 446.7793 104.0832)" fill="#F16369" font-family="'Helvetica'" font-size="40.1721px">14%</text>
</g>
<g>
	<text transform="matrix(1 0 0 1 277.1685 243.0658)"><tspan x="0" y="0" fill="#82321A" font-family="'Helvetica-Bold'" font-size="23.7381px">LPNs increased  </tspan><tspan x="0" y="28.5" fill="#82321A" font-family="'Helvetica-Bold'" font-size="23.7381px">per100,00 population(per capital)</tspan></text>
	<text transform="matrix(1 0 0 1 461.0591 248.5296)" fill="#F16369" font-family="'Helvetica'" font-size="40.1721px">6%</text>
</g>
</svg>
