<?xml version="1.0" encoding="utf-8"?>
<!-- Generator: Adobe Illustrator 19.2.1, SVG Export Plug-In . SVG Version: 6.00 Build 0)  -->
<svg version="1.1" id="rns" xmlns="http://www.w3.org/2000/svg" xmlns:xlink="http://www.w3.org/1999/xlink" x="0px" y="0px"
	 viewBox="0 0 700 300" enable-background="new 0 0 700 300" xml:space="preserve">
<path fill="none" stroke="#000000" stroke-miterlimit="10" d="M54.4,62.1C54.4,62.1,54.4,62.1,54.4,62.1"/>
<path opacity="0.35" fill="#ADDBCF" d="M671.7,294.4H29c-10.9,0-19.6-8.8-19.6-19.6V24.1C9.3,13.2,18.1,4.4,29,4.4h642.7
	c10.9,0,19.6,8.8,19.6,19.6v250.7C691.3,285.6,682.5,294.4,671.7,294.4z"/>
<g>
	<g>
		<g>
			<path fill="#FABFB7" d="M49.7,39.5c0,0,9.3,13.8,9.7,14.3c0.4,0.5,9.4-7,20.4,0l10.7-14.2C90.4,39.6,73.2,27.5,49.7,39.5z"/>
			<ellipse fill="#ED2426" stroke="#ED2426" stroke-miterlimit="10" cx="70.1" cy="43" rx="5.5" ry="5.3"/>
			<g>
				<rect x="65.9" y="42.1" fill="#FFFFFF" stroke="#FFFFFF" stroke-miterlimit="10" width="8.3" height="0.9"/>
				<rect x="69.5" y="39.3" fill="#FFFFFF" stroke="#FFFFFF" stroke-miterlimit="10" width="1.2" height="7.5"/>
			</g>
		</g>
		<ellipse fill="#FFFFFF" cx="70.1" cy="79" rx="18.7" ry="18.2"/>
		<path fill="#82321A" d="M43.9,67.8c-0.2,2.5-0.2,5.3,0.4,8.3c0.5,2.5,0.6,5.1,0.2,7.6c-0.9,5-4,11-14.1,6.7c0,0,15.5,16.9,26,1
			c0,0-14.1-15.2,4.1-28.1c4.1-2.9,17.9-5.9,25.9,6.8c5.5,8.7-0.1,18.4-1.8,20.3c0,0,8.6,17.3,25.1-0.7l-3.5,1.1
			c-5.3,1.7-10.9-2.1-10.9-7.5c0,0,0-0.1,0-0.1c0.1-9.6,0.9-28.2-11.8-33.3c-2.6-1.1-8.5-4.1-20.5-2C52.8,49.6,44.8,57.7,43.9,67.8z
			"/>
	</g>
	<path fill="#FABFB7" d="M68.9,79.8l133.5-50c-2.3-2,26.3,20.8,3.6,43.4L68.9,79.8z"/>
	<g>
		
			<ellipse transform="matrix(0.987 -0.1605 0.1605 0.987 -7.6909 29.791)" fill="#9B1C1F" cx="180.6" cy="62.5" rx="38.7" ry="38.7"/>
		
			<ellipse transform="matrix(0.987 -0.1605 0.1605 0.987 -7.6808 29.9159)" fill="#FFFFFF" stroke="#9B1C1F" stroke-miterlimit="10" cx="181.4" cy="62.5" rx="28.5" ry="28.5"/>
		
			<rect x="239" y="80.2" transform="matrix(0.5845 -0.8114 0.8114 0.5845 12.6816 246.8395)" fill="none" stroke="#9B1C1F" stroke-miterlimit="10" width="16.7" height="61.7"/>
		
			<rect x="213.2" y="82.2" transform="matrix(0.5491 -0.8357 0.8357 0.5491 23.4403 221.2839)" fill="none" stroke="#9B1C1F" stroke-miterlimit="10" width="7.3" height="13.4"/>
		<g>
			<rect x="179.5" y="59.3" fill="#9B1C1F" stroke="#9B1C1F" stroke-miterlimit="10" width="3.6" height="17.8"/>
			<polygon fill="#9B1C1F" stroke="#9B1C1F" stroke-miterlimit="10" points="172.3,57.6 190.4,57.6 182.1,45.4 			"/>
		</g>
	</g>
</g>
<g>
	<g>
		<g>
			<path fill="#FABFB7" d="M50.4,191.7c0,0,8,11.9,8.4,12.4c0.3,0.4,8.2-6.1,17.7,0l9.3-12.3C85.7,191.9,70.8,181.4,50.4,191.7z"/>
			<ellipse fill="#ED2426" stroke="#ED2426" stroke-miterlimit="10" cx="68.1" cy="194.8" rx="4.8" ry="4.6"/>
			<g>
				<rect x="64.5" y="194.1" fill="#FFFFFF" stroke="#FFFFFF" stroke-miterlimit="10" width="7.2" height="0.8"/>
				<rect x="67.6" y="191.6" fill="#FFFFFF" stroke="#FFFFFF" stroke-miterlimit="10" width="1.1" height="6.5"/>
			</g>
		</g>
		<ellipse fill="#FFFFFF" cx="68.1" cy="226" rx="16.2" ry="15.8"/>
		<path fill="#82321A" d="M45.3,216.3c-0.2,2.2-0.1,4.6,0.4,7.2c0.4,2.2,0.5,4.4,0.2,6.6c-0.8,4.4-3.4,9.5-12.3,5.8
			c0,0,13.4,14.7,22.6,0.9c0,0-12.2-13.2,3.6-24.4c3.6-2.5,15.5-5.1,22.5,5.9c4.8,7.5-0.1,16-1.5,17.6c0,0,7.5,15,21.8-0.6l-3,1
			c-4.6,1.4-9.4-1.8-9.5-6.5c0,0,0-0.1,0-0.1c0.1-8.3,0.8-24.4-10.2-28.9c-2.3-0.9-7.4-3.6-17.8-1.8
			C53.1,200.6,46.2,207.6,45.3,216.3z"/>
	</g>
	<path fill="#FABFB7" d="M67,226.7l115.8-43.4c-2-1.7,22.8,18,3.1,37.7L67,226.7z"/>
	<g>
		
			<ellipse transform="matrix(0.987 -0.1605 0.1605 0.987 -31.8539 29.0522)" fill="#9B1C1F" cx="163.9" cy="211.7" rx="33.6" ry="33.6"/>
		
			<ellipse transform="matrix(0.987 -0.1605 0.1605 0.987 -31.8451 29.1605)" fill="#FFFFFF" stroke="#9B1C1F" stroke-miterlimit="10" cx="164.6" cy="211.7" rx="24.8" ry="24.8"/>
		
			<rect x="214.6" y="227.1" transform="matrix(0.5845 -0.8114 0.8114 0.5845 -113.7769 285.4765)" fill="none" stroke="#9B1C1F" stroke-miterlimit="10" width="14.5" height="53.5"/>
		
			<rect x="192.2" y="228.8" transform="matrix(0.5491 -0.8357 0.8357 0.5491 -108.0163 269.05)" fill="none" stroke="#9B1C1F" stroke-miterlimit="10" width="6.3" height="11.7"/>
		<g>
			<rect x="163" y="208.9" fill="#9B1C1F" stroke="#9B1C1F" stroke-miterlimit="10" width="3.2" height="15.4"/>
			<polygon fill="#9B1C1F" stroke="#9B1C1F" stroke-miterlimit="10" points="156.7,207.5 172.5,207.5 165.2,196.9 			"/>
		</g>
	</g>
</g>
<g>
	<text transform="matrix(1 0 0 1 282.1675 74.0842)"><tspan x="0" y="0" fill="#82321A" font-family="'Helvetica-Bold'" font-size="23.7381px">RNs increased</tspan><tspan x="0" y="28.5" fill="#82321A" font-family="'Helvetica-Bold'" font-size="23.7381px">per100,00 population(per capital)</tspan></text>
	<text transform="matrix(1 0 0 1 451.7793 74.0832)" fill="#F16369" font-family="'Helvetica'" font-size="40.1721px">14%</text>
</g>
<g>
	<text transform="matrix(1 0 0 1 282.1685 200.0554)"><tspan x="0" y="0" fill="#82321A" font-family="'Helvetica-Bold'" font-size="23.7381px">LPNs increased  </tspan><tspan x="0" y="28.5" fill="#82321A" font-family="'Helvetica-Bold'" font-size="23.7381px">per100,00 population(per capital)</tspan></text>
	<text transform="matrix(1 0 0 1 466.0591 205.5193)" fill="#F16369" font-family="'Helvetica'" font-size="40.1721px">6%</text>
</g>
</svg>
